<svg width="40" height="40" viewBox="0 0 40 40" fill="none" xmlns="http://www.w3.org/2000/svg">
<mask id="path-1-inside-1_362_99666" fill="white">
<path d="M0 8C0 3.58172 3.58172 0 8 0H32C36.4183 0 40 3.58172 40 8V40H0V8Z"/>
</mask>
<path d="M0 8C0 3.58172 3.58172 0 8 0H32C36.4183 0 40 3.58172 40 8V40H0V8Z" fill="white"/>
<path d="M40 40V41H41V40H40ZM0 40H-1V41H0V40ZM8 0V1H32V0V-1H8V0ZM40 8H39V40H40H41V8H40ZM40 40V39H0V40V41H40V40ZM0 40H1V8H0H-1V40H0ZM32 0V1C35.866 1 39 4.13401 39 8H40H41C41 3.02944 36.9706 -1 32 -1V0ZM8 0V-1C3.02944 -1 -1 3.02944 -1 8H0H1C1 4.13401 4.13401 1 8 1V0Z" fill="#1F8DD5" mask="url(#path-1-inside-1_362_99666)"/>
<path d="M15 20H25" stroke="#54B6E8" stroke-width="1.4"/>
<path d="M20 15L20 25" stroke="#54B6E8" stroke-width="1.4"/>
</svg>
