<svg width="28" height="60" viewBox="0 0 28 60" fill="none" xmlns="http://www.w3.org/2000/svg">
<mask id="path-1-inside-1_288_7024" fill="white">
<path d="M0 0H22C25.3137 0 28 2.68629 28 6V54C28 57.3137 25.3137 60 22 60H0V0Z"/>
</mask>
<path d="M0 0H22C25.3137 0 28 2.68629 28 6V54C28 57.3137 25.3137 60 22 60H0V0Z" fill="#121826"/>
<path d="M0 -1H22C25.866 -1 29 2.13401 29 6H27C27 3.23858 24.7614 1 22 1H0V-1ZM29 54C29 57.866 25.866 61 22 61H0V59H22C24.7614 59 27 56.7614 27 54H29ZM0 60V0V60ZM22 -1C25.866 -1 29 2.13401 29 6V54C29 57.866 25.866 61 22 61V59C24.7614 59 27 56.7614 27 54V6C27 3.23858 24.7614 1 22 1V-1Z" fill="#2A3244" mask="url(#path-1-inside-1_288_7024)"/>
<g opacity="0.65" clip-path="url(#clip0_288_7024)">
<path d="M8.8 30.6C8.4 30.3 8.4 29.7 8.8 29.4L14.8 24.9C15.2944 24.5292 16 24.882 16 25.5L16 34.5C16 35.118 15.2944 35.4708 14.8 35.1L8.8 30.6Z" fill="url(#paint0_linear_288_7024)"/>
</g>
<defs>
<linearGradient id="paint0_linear_288_7024" x1="8" y1="30" x2="16" y2="30" gradientUnits="userSpaceOnUse">
<stop stop-color="#F7F7F7"/>
<stop offset="1" stop-color="#F7F7F7" stop-opacity="0.75"/>
</linearGradient>
<clipPath id="clip0_288_7024">
<rect width="12" height="12" fill="white" transform="translate(8 24)"/>
</clipPath>
</defs>
</svg>
