<svg width="36" height="36" viewBox="0 0 36 36" fill="none" xmlns="http://www.w3.org/2000/svg">
<g filter="url(#filter0_d_295_9105)">
<rect x="4" y="2" width="28" height="28" rx="14" fill="#6B7280" shape-rendering="crispEdges"/>
<path d="M19.3343 18.6667H22.6677V22M16.6677 13.3333H13.3343V10M22.9463 14.002C22.5725 13.0768 21.9467 12.275 21.1399 11.6878C20.3331 11.1005 19.3778 10.7514 18.3825 10.6801C17.3872 10.6088 16.3918 10.8181 15.5096 11.2843C14.6273 11.7505 13.8935 12.4549 13.3917 13.3173M13.0557 17.998C13.4295 18.923 14.0554 19.7247 14.8621 20.3118C15.6688 20.8989 16.624 21.2479 17.6192 21.3192C18.6144 21.3905 19.6096 21.1813 20.4918 20.7152C21.374 20.2491 22.1077 19.5449 22.6097 18.6827" stroke="white" stroke-width="1.06667" stroke-linecap="round" stroke-linejoin="round"/>
</g>
<defs>
<filter id="filter0_d_295_9105" x="0" y="0" width="36" height="36" filterUnits="userSpaceOnUse" color-interpolation-filters="sRGB">
<feFlood flood-opacity="0" result="BackgroundImageFix"/>
<feColorMatrix in="SourceAlpha" type="matrix" values="0 0 0 0 0 0 0 0 0 0 0 0 0 0 0 0 0 0 127 0" result="hardAlpha"/>
<feOffset dy="2"/>
<feGaussianBlur stdDeviation="2"/>
<feComposite in2="hardAlpha" operator="out"/>
<feColorMatrix type="matrix" values="0 0 0 0 0 0 0 0 0 0 0 0 0 0 0 0 0 0 0.06 0"/>
<feBlend mode="normal" in2="BackgroundImageFix" result="effect1_dropShadow_295_9105"/>
<feBlend mode="normal" in="SourceGraphic" in2="effect1_dropShadow_295_9105" result="shape"/>
</filter>
</defs>
</svg>
