<svg width="40" height="40" viewBox="0 0 40 40" fill="none" xmlns="http://www.w3.org/2000/svg">
<mask id="path-1-inside-1_362_99694" fill="white">
<path d="M40 32C40 36.4183 36.4183 40 32 40L8 40C3.58172 40 3.13124e-07 36.4183 6.99382e-07 32L3.49691e-06 -3.49691e-06L40 0L40 32Z"/>
</mask>
<path d="M40 32C40 36.4183 36.4183 40 32 40L8 40C3.58172 40 3.13124e-07 36.4183 6.99382e-07 32L3.49691e-06 -3.49691e-06L40 0L40 32Z" fill="white"/>
<path d="M3.49691e-06 -3.49691e-06L3.58433e-06 -1L-0.999996 -1L-0.999997 -3.58433e-06L3.49691e-06 -3.49691e-06ZM40 0L41 8.74228e-08L41 -1L40 -1L40 0ZM32 40L32 39L8 39L8 40L8 41L32 41L32 40ZM6.99382e-07 32L1 32L1 -3.40949e-06L3.49691e-06 -3.49691e-06L-0.999997 -3.58433e-06L-0.999999 32L6.99382e-07 32ZM3.49691e-06 -3.49691e-06L3.40949e-06 0.999997L40 1L40 0L40 -1L3.58433e-06 -1L3.49691e-06 -3.49691e-06ZM40 0L39 -8.74228e-08L39 32L40 32L41 32L41 8.74228e-08L40 0ZM8 40L8 39C4.13401 39 1 35.866 1 32L6.99382e-07 32L-0.999999 32C-1 36.9706 3.02944 41 8 41L8 40ZM32 40L32 41C36.9706 41 41 36.9706 41 32L40 32L39 32C39 35.866 35.866 39 32 39L32 40Z" fill="#1F8DD5" mask="url(#path-1-inside-1_362_99694)"/>
<path d="M25 20L15 20" stroke="#54B6E8" stroke-width="1.4"/>
</svg>
