<svg width="28" height="60" viewBox="0 0 28 60" fill="none" xmlns="http://www.w3.org/2000/svg">
<mask id="path-1-inside-1_288_7023" fill="white">
<path d="M28 0H6C2.68629 0 0 2.68629 0 6V54C0 57.3137 2.68629 60 6 60H28V0Z"/>
</mask>
<path d="M28 0H6C2.68629 0 0 2.68629 0 6V54C0 57.3137 2.68629 60 6 60H28V0Z" fill="#2A3244"/>
<path d="M28 -1H6C2.13401 -1 -1 2.13401 -1 6H1C1 3.23858 3.23858 1 6 1H28V-1ZM-1 54C-1 57.866 2.13401 61 6 61H28V59H6C3.23858 59 1 56.7614 1 54H-1ZM28 60V0V60ZM6 -1C2.13401 -1 -1 2.13401 -1 6V54C-1 57.866 2.13401 61 6 61V59C3.23858 59 1 56.7614 1 54V6C1 3.23858 3.23858 1 6 1V-1Z" fill="#4E566E" mask="url(#path-1-inside-1_288_7023)"/>
<g clip-path="url(#clip0_288_7023)">
<path d="M8.8 30.6C8.4 30.3 8.4 29.7 8.8 29.4L14.8 24.9C15.2944 24.5292 16 24.882 16 25.5L16 34.5C16 35.118 15.2944 35.4708 14.8 35.1L8.8 30.6Z" fill="url(#paint0_linear_288_7023)"/>
</g>
<defs>
<linearGradient id="paint0_linear_288_7023" x1="8" y1="30" x2="16" y2="30" gradientUnits="userSpaceOnUse">
<stop stop-color="#DDDDDD"/>
<stop offset="1" stop-color="#D3CFC9" stop-opacity="0.75"/>
</linearGradient>
<clipPath id="clip0_288_7023">
<rect width="12" height="12" fill="white" transform="translate(8 24)"/>
</clipPath>
</defs>
</svg>
