<svg width="40" height="40" viewBox="0 0 40 40" fill="none" xmlns="http://www.w3.org/2000/svg">
<mask id="path-1-inside-1_362_99659" fill="white">
<path d="M0 8C0 3.58172 3.58172 0 8 0H32C36.4183 0 40 3.58172 40 8V40H0V8Z"/>
</mask>
<path d="M0 8C0 3.58172 3.58172 0 8 0H32C36.4183 0 40 3.58172 40 8V40H0V8Z" fill="white"/>
<path d="M-1 8C-1 3.02944 3.02944 -1 8 -1H32C36.9706 -1 41 3.02944 41 8H39C39 4.13401 35.866 1 32 1H8C4.13401 1 1 4.13401 1 8H-1ZM40 40H0H40ZM-1 40V8C-1 3.02944 3.02944 -1 8 -1V1C4.13401 1 1 4.13401 1 8V40H-1ZM32 -1C36.9706 -1 41 3.02944 41 8V40H39V8C39 4.13401 35.866 1 32 1V-1Z" fill="#D1D5DB" mask="url(#path-1-inside-1_362_99659)"/>
<g opacity="0.25">
<path d="M15 20H25" stroke="#121826" stroke-width="1.4"/>
<path d="M20 15L20 25" stroke="#121826" stroke-width="1.4"/>
</g>
</svg>
