<svg width="40" height="40" viewBox="0 0 40 40" fill="none" xmlns="http://www.w3.org/2000/svg">
<mask id="path-1-inside-1_362_99680" fill="white">
<path d="M0 0H40V32C40 36.4183 36.4183 40 32 40H8C3.58172 40 0 36.4183 0 32V0Z"/>
</mask>
<path d="M0 0H40V32C40 36.4183 36.4183 40 32 40H8C3.58172 40 0 36.4183 0 32V0Z" fill="white"/>
<path d="M0 0V-1H-1V0H0ZM40 0H41V-1H40V0ZM0 0V1H40V0V-1H0V0ZM40 0H39V32H40H41V0H40ZM32 40V39H8V40V41H32V40ZM0 32H1V0H0H-1V32H0ZM8 40V39C4.13401 39 1 35.866 1 32H0H-1C-1 36.9706 3.02944 41 8 41V40ZM40 32H39C39 35.866 35.866 39 32 39V40V41C36.9706 41 41 36.9706 41 32H40Z" fill="#D1D5DB" mask="url(#path-1-inside-1_362_99680)"/>
<path d="M15 20H25" stroke="#121826" stroke-width="1.4"/>
</svg>
