<svg width="42" height="50" viewBox="0 0 42 50" fill="none" xmlns="http://www.w3.org/2000/svg">
<ellipse cx="21" cy="46" rx="14" ry="4" fill="#222837" fill-opacity="0.1"/>
<ellipse cx="21" cy="46" rx="9" ry="2" fill="#222837" fill-opacity="0.15"/>
<ellipse cx="21" cy="46" rx="4" ry="1" fill="#222837" fill-opacity="0.2"/>
<g filter="url(#filter0_d_1423_157051)">
<mask id="path-4-inside-1_1423_157051" fill="white">
<path d="M21 3C24.5603 3 28.0408 4.06227 31.001 6.05176C33.9611 8.04124 36.2687 10.8685 37.6309 14.1768C38.9931 17.4851 39.3493 21.1258 38.6543 24.6377C37.9593 28.1493 36.2442 31.3747 33.7266 33.9062C31.5546 36.0968 24.75 42.2281 21 46C17.25 42.2281 10.7824 36.4347 8.27441 33.9062C5.75665 31.3747 4.04168 28.1494 3.34668 24.6377C2.65171 21.1258 3.0079 17.4851 4.37012 14.1768C5.73229 10.8687 8.03907 8.04118 10.999 6.05176C13.9592 4.06229 17.4398 3.00003 21 3ZM21 16C18.2386 16.0001 16 18.2386 16 21C16 23.7614 18.2386 25.9999 21 26C23.7614 26 26 23.7614 26 21C26 18.2386 23.7614 16 21 16Z"/>
</mask>
<path d="M21 3C24.5603 3 28.0408 4.06227 31.001 6.05176C33.9611 8.04124 36.2687 10.8685 37.6309 14.1768C38.9931 17.4851 39.3493 21.1258 38.6543 24.6377C37.9593 28.1493 36.2442 31.3747 33.7266 33.9062C31.5546 36.0968 24.75 42.2281 21 46C17.25 42.2281 10.7824 36.4347 8.27441 33.9062C5.75665 31.3747 4.04168 28.1494 3.34668 24.6377C2.65171 21.1258 3.0079 17.4851 4.37012 14.1768C5.73229 10.8687 8.03907 8.04118 10.999 6.05176C13.9592 4.06229 17.4398 3.00003 21 3ZM21 16C18.2386 16.0001 16 18.2386 16 21C16 23.7614 18.2386 25.9999 21 26C23.7614 26 26 23.7614 26 21C26 18.2386 23.7614 16 21 16Z" fill="url(#paint0_linear_1423_157051)"/>
<path d="M21 3L21 1.25L21 1.25L21 3ZM31.001 6.05176L31.9772 4.59932L31.9771 4.59931L31.001 6.05176ZM37.6309 14.1768L39.2491 13.5105L39.2491 13.5105L37.6309 14.1768ZM38.6543 24.6377L40.371 24.9774L40.371 24.9774L38.6543 24.6377ZM33.7266 33.9062L32.4857 32.6722L32.4839 32.6741L33.7266 33.9062ZM21 46L19.759 47.2338C20.0874 47.5642 20.5341 47.75 21 47.75C21.4659 47.75 21.9126 47.5642 22.241 47.2338L21 46ZM8.27441 33.9062L9.51687 32.6739L9.51522 32.6722L8.27441 33.9062ZM3.34668 24.6377L1.62997 24.9774L1.62998 24.9774L3.34668 24.6377ZM4.37012 14.1768L2.75194 13.5104L2.75192 13.5105L4.37012 14.1768ZM10.999 6.05176L10.0229 4.59931L10.0228 4.59933L10.999 6.05176ZM21 16L21 14.25L21 14.25L21 16ZM16 21L14.25 21V21H16ZM21 26L21 27.75H21V26ZM26 21L27.75 21L27.75 21L26 21ZM21 3L21 4.75C24.2118 4.75 27.3526 5.70825 30.0248 7.50421L31.001 6.05176L31.9771 4.59931C28.729 2.41628 24.9088 1.25 21 1.25L21 3ZM31.001 6.05176L30.0248 7.5042C32.6972 9.3003 34.7818 11.8537 36.0127 14.8431L37.6309 14.1768L39.2491 13.5105C37.7556 9.88335 35.225 6.78219 31.9772 4.59932L31.001 6.05176ZM37.6309 14.1768L36.0127 14.8431C37.2437 17.8328 37.5658 21.1236 36.9376 24.298L38.6543 24.6377L40.371 24.9774C41.1328 21.128 40.7424 17.1373 39.2491 13.5105L37.6309 14.1768ZM38.6543 24.6377L36.9376 24.298C36.3095 27.4719 34.7594 30.386 32.4857 32.6722L33.7266 33.9062L34.9674 35.1403C37.7289 32.3635 39.6092 28.8268 40.371 24.9774L38.6543 24.6377ZM33.7266 33.9062L32.4839 32.6741C31.4292 33.7377 29.2238 35.7826 26.7611 38.0806C24.3246 40.3542 21.6612 42.8528 19.759 44.7662L21 46L22.241 47.2338C24.0888 45.3753 26.7027 42.9222 29.1489 40.6396C31.569 38.3813 33.8519 36.2653 34.9692 35.1384L33.7266 33.9062ZM21 46L22.241 44.7662C20.3382 42.8522 17.7584 40.4375 15.3646 38.2066C12.9474 35.9539 10.7396 33.9065 9.51687 32.6739L8.27441 33.9062L7.03196 35.1386C8.31724 36.4344 10.5972 38.5479 12.9783 40.7671C15.3828 43.0079 17.9118 45.3758 19.759 47.2338L21 46ZM8.27441 33.9062L9.51522 32.6722C7.24141 30.3859 5.69156 27.472 5.06338 24.2979L3.34668 24.6377L1.62998 24.9774C2.3918 28.8268 4.27189 32.3635 7.03361 35.1403L8.27441 33.9062ZM3.34668 24.6377L5.06339 24.298C4.4352 21.1236 4.75726 17.8328 5.98831 14.8431L4.37012 14.1768L2.75192 13.5105C1.25854 17.1373 0.868206 21.128 1.62997 24.9774L3.34668 24.6377ZM4.37012 14.1768L5.9883 14.8431C7.21928 11.8536 9.3032 9.30009 11.9752 7.50418L10.999 6.05176L10.0228 4.59933C6.77494 6.78228 4.2453 9.88376 2.75194 13.5104L4.37012 14.1768ZM10.999 6.05176L11.9752 7.50421C14.6474 5.70828 17.7882 4.75002 21 4.75L21 3L21 1.25C17.0913 1.25003 13.271 2.4163 10.0229 4.59931L10.999 6.05176ZM21 16L21 14.25C17.2722 14.2501 14.25 17.2721 14.25 21L16 21L17.75 21C17.75 19.2052 19.2051 17.75 21 17.75L21 16ZM16 21H14.25C14.25 24.7279 17.2722 27.7499 21 27.75L21 26L21 24.25C19.2051 24.25 17.75 22.7948 17.75 21H16ZM21 26V27.75C24.7279 27.75 27.75 24.7279 27.75 21H26H24.25C24.25 22.7949 22.7949 24.25 21 24.25V26ZM26 21L27.75 21C27.75 17.2721 24.7279 14.25 21 14.25V16V17.75C22.7949 17.75 24.25 19.2051 24.25 21L26 21Z" fill="white" mask="url(#path-4-inside-1_1423_157051)"/>
</g>
<defs>
<filter id="filter0_d_1423_157051" x="0.000488281" y="0" width="42" height="49" filterUnits="userSpaceOnUse" color-interpolation-filters="sRGB">
<feFlood flood-opacity="0" result="BackgroundImageFix"/>
<feColorMatrix in="SourceAlpha" type="matrix" values="0 0 0 0 0 0 0 0 0 0 0 0 0 0 0 0 0 0 127 0" result="hardAlpha"/>
<feOffset/>
<feGaussianBlur stdDeviation="1.5"/>
<feComposite in2="hardAlpha" operator="out"/>
<feColorMatrix type="matrix" values="0 0 0 0 0.0584028 0 0 0 0 0.253871 0 0 0 0 0.483333 0 0 0 0.4 0"/>
<feBlend mode="normal" in2="BackgroundImageFix" result="effect1_dropShadow_1423_157051"/>
<feBlend mode="normal" in="SourceGraphic" in2="effect1_dropShadow_1423_157051" result="shape"/>
</filter>
<linearGradient id="paint0_linear_1423_157051" x1="3" y1="3" x2="31.728" y2="45.0901" gradientUnits="userSpaceOnUse">
<stop stop-color="#9DF3FF"/>
<stop offset="0.5" stop-color="#377DFF"/>
<stop offset="1" stop-color="#261AB0"/>
</linearGradient>
</defs>
</svg>
