<svg width="32" height="33" viewBox="0 0 32 33" fill="none" xmlns="http://www.w3.org/2000/svg">
<circle cx="13.075" cy="13.575" r="10.365" fill="url(#paint0_linear_3200_10865)"/>
<circle cx="13.075" cy="13.575" r="10.1397" stroke="white" stroke-opacity="0.1" stroke-width="0.450652"/>
<g opacity="0.93">
<mask id="mask0_3200_10865" style="mask-type:alpha" maskUnits="userSpaceOnUse" x="4" y="11" width="26" height="19">
<path fill-rule="evenodd" clip-rule="evenodd" d="M20.2812 29.79C25.2578 29.79 29.2922 25.7557 29.2922 20.7791C29.2922 15.8024 25.2578 11.7681 20.2812 11.7681C16.3328 11.7681 12.9776 14.3075 11.7596 17.8422C11.2451 17.7008 10.7034 17.6253 10.144 17.6253C6.78473 17.6253 4.06152 20.3485 4.06152 23.7077C4.06152 27.0669 6.78473 29.7901 10.144 29.7901H20.2813C20.2813 29.7901 20.2812 29.7901 20.2812 29.79Z" fill="#D9D9D9"/>
</mask>
<g mask="url(#mask0_3200_10865)">
<circle cx="20.281" cy="20.7791" r="9.01099" fill="url(#paint1_linear_3200_10865)"/>
<g filter="url(#filter0_d_3200_10865)">
<path fill-rule="evenodd" clip-rule="evenodd" d="M16.2217 23.9496C16.2248 23.8696 16.2264 23.7892 16.2264 23.7084C16.2264 20.3492 13.5032 17.626 10.1439 17.626C6.78471 17.626 4.06152 20.3492 4.06152 23.7084C4.06152 27.0676 6.7846 29.7907 10.1437 29.7908C10.1438 29.7908 10.1439 29.7908 10.1439 29.7908H20.281C17.8079 28.6666 16.2279 26.6449 16.2217 23.9496Z" fill="url(#paint2_linear_3200_10865)"/>
</g>
<g opacity="0.3">
<mask id="path-6-inside-1_3200_10865" fill="white">
<path fill-rule="evenodd" clip-rule="evenodd" d="M20.2812 29.7896C25.2578 29.7896 29.2922 25.7552 29.2922 20.7786C29.2922 15.8019 25.2578 11.7676 20.2812 11.7676C16.3328 11.7676 12.9776 14.307 11.7596 17.8417C11.2451 17.7003 10.7034 17.6248 10.144 17.6248C6.78473 17.6248 4.06152 20.348 4.06152 23.7072C4.06152 27.0664 6.78473 29.7896 10.144 29.7896H20.2813C20.2813 29.7896 20.2812 29.7896 20.2812 29.7896Z"/>
</mask>
<path d="M20.2812 29.7896V29.339L20.0924 30.1986L20.2812 29.7896ZM11.7596 17.8417L11.6402 18.2761L12.0479 18.3882L12.1856 17.9885L11.7596 17.8417ZM20.2813 29.7896V30.2402L20.4701 29.3805L20.2813 29.7896ZM28.8416 20.7786C28.8416 25.5064 25.009 29.339 20.2812 29.339V30.2401C25.5066 30.2401 29.7427 26.004 29.7427 20.7786H28.8416ZM20.2812 12.2181C25.009 12.2181 28.8416 16.0508 28.8416 20.7786H29.7427C29.7427 15.5531 25.5066 11.317 20.2812 11.317V12.2181ZM12.1856 17.9885C13.3428 14.63 16.5309 12.2181 20.2812 12.2181V11.317C16.1347 11.317 12.6123 13.9841 11.3336 17.6949L12.1856 17.9885ZM11.879 17.4073C11.326 17.2553 10.7441 17.1742 10.144 17.1742V18.0753C10.6626 18.0753 11.1643 18.1453 11.6402 18.2761L11.879 17.4073ZM10.144 17.1742C6.5359 17.1742 3.61097 20.0991 3.61097 23.7072H4.51207C4.51207 20.5968 7.03356 18.0753 10.144 18.0753V17.1742ZM3.61097 23.7072C3.61097 27.3153 6.5359 30.2402 10.144 30.2402V29.3391C7.03356 29.3391 4.51207 26.8176 4.51207 23.7072H3.61097ZM10.144 30.2402H20.2813V29.3391H10.144V30.2402ZM20.4701 29.3805C20.4751 29.3828 20.4792 29.3848 20.4819 29.3862C20.4844 29.3874 20.4865 29.3885 20.4861 29.3883H20.4861C20.4861 29.3883 20.4861 29.3883 20.4861 29.3883C20.4861 29.3883 20.4861 29.3883 20.4861 29.3883C20.4861 29.3883 20.4861 29.3883 20.4861 29.3883C20.486 29.3883 20.4859 29.3882 20.4859 29.3882C20.4857 29.3881 20.4854 29.388 20.485 29.3878C20.4843 29.3874 20.4832 29.3869 20.4819 29.3862C20.4791 29.3848 20.475 29.3828 20.47 29.3805L20.0924 30.1986C20.0874 30.1963 20.0833 30.1943 20.0805 30.193C20.0781 30.1918 20.076 30.1907 20.0763 30.1909H20.0763C20.0763 30.1909 20.0763 30.1909 20.0763 30.1909C20.0763 30.1909 20.0763 30.1909 20.0764 30.1909C20.0764 30.1909 20.0764 30.1909 20.0764 30.1909C20.0765 30.1909 20.0765 30.1909 20.0766 30.191C20.0768 30.1911 20.0771 30.1912 20.0774 30.1914C20.0781 30.1918 20.0792 30.1923 20.0806 30.193C20.0834 30.1944 20.0875 30.1964 20.0925 30.1987L20.4701 29.3805Z" fill="#ACDFFF" mask="url(#path-6-inside-1_3200_10865)"/>
</g>
</g>
</g>
<defs>
<filter id="filter0_d_3200_10865" x="0.457128" y="13.571" width="23.4285" height="19.3738" filterUnits="userSpaceOnUse" color-interpolation-filters="sRGB">
<feFlood flood-opacity="0" result="BackgroundImageFix"/>
<feColorMatrix in="SourceAlpha" type="matrix" values="0 0 0 0 0 0 0 0 0 0 0 0 0 0 0 0 0 0 127 0" result="hardAlpha"/>
<feOffset dy="-0.450549"/>
<feGaussianBlur stdDeviation="1.8022"/>
<feComposite in2="hardAlpha" operator="out"/>
<feColorMatrix type="matrix" values="0 0 0 0 0.414632 0 0 0 0 0.765853 0 0 0 0 1 0 0 0 0.55 0"/>
<feBlend mode="normal" in2="BackgroundImageFix" result="effect1_dropShadow_3200_10865"/>
<feBlend mode="normal" in="SourceGraphic" in2="effect1_dropShadow_3200_10865" result="shape"/>
</filter>
<linearGradient id="paint0_linear_3200_10865" x1="9.34356" y1="3.62456" x2="18.0502" y2="22.2816" gradientUnits="userSpaceOnUse">
<stop stop-color="#FBE158"/>
<stop offset="1" stop-color="#EE9C27"/>
</linearGradient>
<linearGradient id="paint1_linear_3200_10865" x1="17.803" y1="11.0922" x2="23.4349" y2="25.2846" gradientUnits="userSpaceOnUse">
<stop stop-color="#F0F9FF"/>
<stop offset="0.545228" stop-color="#E5F5FF"/>
<stop offset="1" stop-color="#BAE4FF"/>
</linearGradient>
<linearGradient id="paint2_linear_3200_10865" x1="10.3691" y1="17.8513" x2="13.523" y2="28.4391" gradientUnits="userSpaceOnUse">
<stop stop-color="#E5F5FF"/>
<stop offset="1" stop-color="#BAE4FF"/>
</linearGradient>
</defs>
</svg>
