<svg width="32" height="33" viewBox="0 0 32 33" fill="none" xmlns="http://www.w3.org/2000/svg">
<mask id="mask0_3200_10869" style="mask-type:alpha" maskUnits="userSpaceOnUse" x="2" y="2" width="28" height="21">
<path fill-rule="evenodd" clip-rule="evenodd" d="M19.9384 22.6536C25.3763 22.6536 29.7846 18.2453 29.7846 12.8075C29.7846 7.36966 25.3763 2.96143 19.9384 2.96143C15.6243 2.96143 11.9582 5.73599 10.6272 9.59804C10.0649 9.44349 9.47287 9.36095 8.86151 9.36095C5.19093 9.36095 2.21533 12.3365 2.21533 16.007C2.21533 19.6776 5.19093 22.6531 8.86151 22.6531H19.8453C19.8763 22.6534 19.9073 22.6536 19.9384 22.6536Z" fill="#D9D9D9"/>
</mask>
<g mask="url(#mask0_3200_10869)">
<ellipse cx="19.9379" cy="12.8065" rx="9.84615" ry="9.84608" fill="url(#paint0_linear_3200_10869)"/>
<g filter="url(#filter0_d_3200_10869)">
<path fill-rule="evenodd" clip-rule="evenodd" d="M15.5013 16.2634C15.5045 16.1778 15.5062 16.0918 15.5062 16.0055C15.5062 12.3349 12.5306 9.35938 8.86002 9.35938C5.18945 9.35938 2.21387 12.3349 2.21387 16.0055C2.21387 19.676 5.18945 22.6516 8.86002 22.6516C8.86003 22.6516 8.86004 22.6516 8.86005 22.6516L8.86002 22.6516H19.9369C17.2328 21.4225 15.5058 19.2113 15.5013 16.2634Z" fill="url(#paint1_linear_3200_10869)"/>
</g>
<g opacity="0.3">
<mask id="path-4-inside-1_3200_10869" fill="white">
<path fill-rule="evenodd" clip-rule="evenodd" d="M19.938 22.6521C25.3759 22.6521 29.7842 18.2439 29.7842 12.806C29.7842 7.3682 25.3759 2.95996 19.938 2.95996C15.6239 2.95996 11.9578 5.73454 10.6268 9.5966C10.0645 9.44204 9.47241 9.35948 8.86102 9.35948C5.19044 9.35948 2.21484 12.335 2.21484 16.0056C2.21484 19.6761 5.19044 22.6517 8.86102 22.6517H19.8449C19.8759 22.652 19.907 22.6521 19.938 22.6521Z"/>
</mask>
<path d="M10.6268 9.5966L10.4963 10.0713L10.9417 10.1937L11.0923 9.75701L10.6268 9.5966ZM19.8449 22.6517L19.8495 22.1594H19.8449V22.6517ZM29.2919 12.806C29.2919 17.972 25.104 22.1598 19.938 22.1598V23.1444C25.6478 23.1444 30.2765 18.5158 30.2765 12.806H29.2919ZM19.938 3.45227C25.104 3.45227 29.2919 7.6401 29.2919 12.806H30.2765C30.2765 7.0963 25.6478 2.46766 19.938 2.46766V3.45227ZM11.0923 9.75701C12.3569 6.08743 15.8403 3.45227 19.938 3.45227V2.46766C15.4074 2.46766 11.5587 5.38165 10.1614 9.4362L11.0923 9.75701ZM10.7573 9.12191C10.1529 8.95576 9.51691 8.86717 8.86102 8.86717V9.85179C9.42791 9.85179 9.97614 9.92831 10.4963 10.0713L10.7573 9.12191ZM8.86102 8.86717C4.91855 8.86717 1.72254 12.0631 1.72254 16.0056H2.70715C2.70715 12.6069 5.46233 9.85179 8.86102 9.85179V8.86717ZM1.72254 16.0056C1.72254 19.948 4.91855 23.144 8.86102 23.144V22.1594C5.46233 22.1594 2.70715 19.4042 2.70715 16.0056H1.72254ZM8.86102 23.144H19.8449V22.1594H8.86102V23.144ZM19.938 22.1598C19.9085 22.1598 19.879 22.1597 19.8495 22.1594L19.8404 23.144C19.8729 23.1443 19.9055 23.1444 19.938 23.1444V22.1598Z" fill="#ACDFFF" mask="url(#path-4-inside-1_3200_10869)"/>
</g>
</g>
<mask id="path-6-inside-2_3200_10869" fill="white">
<path fill-rule="evenodd" clip-rule="evenodd" d="M8.44708 26.3296C8.79193 26.3296 9.07149 26.6091 9.07149 26.954V27.737L9.63396 27.4122C9.93261 27.2398 10.3145 27.3421 10.4869 27.6408C10.6593 27.9394 10.557 28.3213 10.2584 28.4937L9.69593 28.8184L10.2886 29.1606C10.5873 29.3331 10.6896 29.7149 10.5172 30.0136C10.3448 30.3122 9.96288 30.4146 9.66423 30.2421L9.07149 29.8999V30.4507C9.07149 30.7955 8.79193 31.0751 8.44708 31.0751C8.10223 31.0751 7.82268 30.7955 7.82268 30.4507V29.9L7.23017 30.242C6.93152 30.4145 6.54964 30.3121 6.37722 30.0135C6.20479 29.7149 6.30712 29.333 6.60576 29.1605L7.19831 28.8184L6.63603 28.4938C6.33738 28.3214 6.23506 27.9395 6.40748 27.6409C6.57991 27.3422 6.96179 27.2399 7.26043 27.4123L7.82268 27.7369V26.954C7.82268 26.6091 8.10223 26.3296 8.44708 26.3296Z"/>
</mask>
<path fill-rule="evenodd" clip-rule="evenodd" d="M8.44708 26.3296C8.79193 26.3296 9.07149 26.6091 9.07149 26.954V27.737L9.63396 27.4122C9.93261 27.2398 10.3145 27.3421 10.4869 27.6408C10.6593 27.9394 10.557 28.3213 10.2584 28.4937L9.69593 28.8184L10.2886 29.1606C10.5873 29.3331 10.6896 29.7149 10.5172 30.0136C10.3448 30.3122 9.96288 30.4146 9.66423 30.2421L9.07149 29.8999V30.4507C9.07149 30.7955 8.79193 31.0751 8.44708 31.0751C8.10223 31.0751 7.82268 30.7955 7.82268 30.4507V29.9L7.23017 30.242C6.93152 30.4145 6.54964 30.3121 6.37722 30.0135C6.20479 29.7149 6.30712 29.333 6.60576 29.1605L7.19831 28.8184L6.63603 28.4938C6.33738 28.3214 6.23506 27.9395 6.40748 27.6409C6.57991 27.3422 6.96179 27.2399 7.26043 27.4123L7.82268 27.7369V26.954C7.82268 26.6091 8.10223 26.3296 8.44708 26.3296Z" fill="url(#paint2_linear_3200_10869)"/>
<path d="M9.07149 27.737H8.88795V28.0549L9.16325 27.8959L9.07149 27.737ZM9.63396 27.4122L9.5422 27.2533L9.63396 27.4122ZM10.4869 27.6408L10.328 27.7325V27.7325L10.4869 27.6408ZM10.2584 28.4937L10.3501 28.6527L10.2584 28.4937ZM9.69593 28.8184L9.60416 28.6595L9.32886 28.8184L9.60416 28.9774L9.69593 28.8184ZM10.2886 29.1606L10.1969 29.3196L10.2886 29.1606ZM10.5172 30.0136L10.6761 30.1054V30.1054L10.5172 30.0136ZM9.66423 30.2421L9.756 30.0832L9.66423 30.2421ZM9.07149 29.8999L9.16325 29.741L8.88795 29.582V29.8999H9.07149ZM7.82268 29.9H8.00621V29.5821L7.73091 29.741L7.82268 29.9ZM7.23017 30.242L7.1384 30.0831H7.1384L7.23017 30.242ZM6.37722 30.0135L6.21827 30.1053H6.21827L6.37722 30.0135ZM6.60576 29.1605L6.69753 29.3195L6.60576 29.1605ZM7.19831 28.8184L7.29008 28.9774L7.56538 28.8184L7.29008 28.6595L7.19831 28.8184ZM6.63603 28.4938L6.54426 28.6528H6.54426L6.63603 28.4938ZM6.40748 27.6409L6.56643 27.7326L6.40748 27.6409ZM7.26043 27.4123L7.16867 27.5712L7.26043 27.4123ZM7.82268 27.7369L7.73091 27.8959L8.00621 28.0548V27.7369H7.82268ZM9.25502 26.954C9.25502 26.5078 8.89329 26.1461 8.44708 26.1461V26.5131C8.69057 26.5131 8.88795 26.7105 8.88795 26.954H9.25502ZM9.25502 27.737V26.954H8.88795V27.737H9.25502ZM9.5422 27.2533L8.97972 27.578L9.16325 27.8959L9.72573 27.5712L9.5422 27.2533ZM10.6459 27.549C10.4228 27.1626 9.92863 27.0302 9.5422 27.2533L9.72573 27.5712C9.9366 27.4494 10.2062 27.5217 10.328 27.7325L10.6459 27.549ZM10.3501 28.6527C10.7366 28.4296 10.869 27.9354 10.6459 27.549L10.328 27.7325C10.4497 27.9434 10.3775 28.213 10.1666 28.3348L10.3501 28.6527ZM9.7877 28.9774L10.3501 28.6527L10.1666 28.3348L9.60416 28.6595L9.7877 28.9774ZM10.3804 29.0017L9.7877 28.6595L9.60416 28.9774L10.1969 29.3196L10.3804 29.0017ZM10.6761 30.1054C10.8992 29.7189 10.7668 29.2248 10.3804 29.0017L10.1969 29.3196C10.4077 29.4413 10.48 29.711 10.3582 29.9218L10.6761 30.1054ZM9.57246 30.4011C9.9589 30.6242 10.453 30.4918 10.6761 30.1054L10.3582 29.9218C10.2365 30.1327 9.96686 30.2049 9.756 30.0832L9.57246 30.4011ZM8.97972 30.0589L9.57246 30.4011L9.756 30.0832L9.16325 29.741L8.97972 30.0589ZM9.25502 30.4507V29.8999H8.88795V30.4507H9.25502ZM8.44708 31.2586C8.89329 31.2586 9.25502 30.8969 9.25502 30.4507H8.88795C8.88795 30.6941 8.69057 30.8915 8.44708 30.8915V31.2586ZM7.63914 30.4507C7.63914 30.8969 8.00087 31.2586 8.44708 31.2586V30.8915C8.2036 30.8915 8.00621 30.6941 8.00621 30.4507H7.63914ZM7.63914 29.9V30.4507H8.00621V29.9H7.63914ZM7.32193 30.401L7.91444 30.0589L7.73091 29.741L7.1384 30.0831L7.32193 30.401ZM6.21827 30.1053C6.44138 30.4917 6.9355 30.6241 7.32193 30.401L7.1384 30.0831C6.92754 30.2048 6.6579 30.1326 6.53616 29.9217L6.21827 30.1053ZM6.514 29.0016C6.12757 29.2247 5.99517 29.7188 6.21827 30.1053L6.53616 29.9217C6.41442 29.7109 6.48666 29.4412 6.69753 29.3195L6.514 29.0016ZM7.10655 28.6595L6.514 29.0016L6.69753 29.3195L7.29008 28.9774L7.10655 28.6595ZM6.54426 28.6528L7.10655 28.9774L7.29008 28.6595L6.7278 28.3349L6.54426 28.6528ZM6.24854 27.5491C6.02543 27.9355 6.15783 28.4296 6.54426 28.6528L6.7278 28.3349C6.51693 28.2131 6.44468 27.9435 6.56643 27.7326L6.24854 27.5491ZM7.3522 27.2534C6.96577 27.0303 6.47164 27.1627 6.24854 27.5491L6.56643 27.7326C6.68817 27.5218 6.9578 27.4495 7.16867 27.5712L7.3522 27.2534ZM7.91444 27.578L7.3522 27.2534L7.16867 27.5712L7.73091 27.8959L7.91444 27.578ZM7.63914 26.954V27.7369H8.00621V26.954H7.63914ZM8.44708 26.1461C8.00087 26.1461 7.63914 26.5078 7.63914 26.954H8.00621C8.00621 26.7105 8.2036 26.5131 8.44708 26.5131V26.1461Z" fill="#85CFFF" fill-opacity="0.2" mask="url(#path-6-inside-2_3200_10869)"/>
<path d="M17.1104 27.2144L14.8896 30.19" stroke="url(#paint3_linear_3200_10869)" stroke-width="1.53162" stroke-linecap="round"/>
<mask id="path-9-inside-3_3200_10869" fill="white">
<path fill-rule="evenodd" clip-rule="evenodd" d="M23.5525 26.3296C23.8974 26.3296 24.177 26.6091 24.177 26.954V27.737L24.7394 27.4122C25.0381 27.2398 25.42 27.3421 25.5924 27.6408C25.7648 27.9394 25.6625 28.3213 25.3638 28.4937L24.8014 28.8184L25.3941 29.1606C25.6928 29.3331 25.7951 29.7149 25.6227 30.0136C25.4502 30.3122 25.0683 30.4146 24.7697 30.2421L24.177 29.8999V30.4507C24.177 30.7955 23.8974 31.0751 23.5525 31.0751C23.2077 31.0751 22.9281 30.7955 22.9281 30.4507V29.9L22.3356 30.242C22.037 30.4145 21.6551 30.3121 21.4827 30.0135C21.3103 29.7149 21.4126 29.333 21.7112 29.1605L22.3038 28.8184L21.7415 28.4938C21.4429 28.3214 21.3405 27.9395 21.513 27.6409C21.6854 27.3422 22.0673 27.2399 22.3659 27.4123L22.9281 27.7369V26.954C22.9281 26.6091 23.2077 26.3296 23.5525 26.3296Z"/>
</mask>
<path fill-rule="evenodd" clip-rule="evenodd" d="M23.5525 26.3296C23.8974 26.3296 24.177 26.6091 24.177 26.954V27.737L24.7394 27.4122C25.0381 27.2398 25.42 27.3421 25.5924 27.6408C25.7648 27.9394 25.6625 28.3213 25.3638 28.4937L24.8014 28.8184L25.3941 29.1606C25.6928 29.3331 25.7951 29.7149 25.6227 30.0136C25.4502 30.3122 25.0683 30.4146 24.7697 30.2421L24.177 29.8999V30.4507C24.177 30.7955 23.8974 31.0751 23.5525 31.0751C23.2077 31.0751 22.9281 30.7955 22.9281 30.4507V29.9L22.3356 30.242C22.037 30.4145 21.6551 30.3121 21.4827 30.0135C21.3103 29.7149 21.4126 29.333 21.7112 29.1605L22.3038 28.8184L21.7415 28.4938C21.4429 28.3214 21.3405 27.9395 21.513 27.6409C21.6854 27.3422 22.0673 27.2399 22.3659 27.4123L22.9281 27.7369V26.954C22.9281 26.6091 23.2077 26.3296 23.5525 26.3296Z" fill="url(#paint4_linear_3200_10869)"/>
<path d="M24.177 27.737H23.9934V28.0549L24.2687 27.8959L24.177 27.737ZM24.7394 27.4122L24.6477 27.2533L24.7394 27.4122ZM25.5924 27.6408L25.4334 27.7325V27.7325L25.5924 27.6408ZM25.3638 28.4937L25.2721 28.3348L25.3638 28.4937ZM24.8014 28.8184L24.7096 28.6595L24.4343 28.8184L24.7096 28.9774L24.8014 28.8184ZM25.3941 29.1606L25.3023 29.3196L25.3941 29.1606ZM25.6227 30.0136L25.7816 30.1054V30.1054L25.6227 30.0136ZM24.7697 30.2421L24.6779 30.4011L24.7697 30.2421ZM24.177 29.8999L24.2687 29.741L23.9934 29.582V29.8999H24.177ZM22.9281 29.9H23.1117V29.5821L22.8364 29.741L22.9281 29.9ZM22.3356 30.242L22.4274 30.401L22.3356 30.242ZM21.4827 30.0135L21.3237 30.1053H21.3237L21.4827 30.0135ZM21.7112 29.1605L21.6195 29.0016H21.6195L21.7112 29.1605ZM22.3038 28.8184L22.3955 28.9774L22.6708 28.8184L22.3955 28.6595L22.3038 28.8184ZM21.7415 28.4938L21.8333 28.3349L21.7415 28.4938ZM21.513 27.6409L21.6719 27.7326L21.513 27.6409ZM22.3659 27.4123L22.2741 27.5712L22.3659 27.4123ZM22.9281 27.7369L22.8364 27.8959L23.1117 28.0548V27.7369H22.9281ZM24.3605 26.954C24.3605 26.5078 23.9988 26.1461 23.5525 26.1461V26.5131C23.796 26.5131 23.9934 26.7105 23.9934 26.954H24.3605ZM24.3605 27.737V26.954H23.9934V27.737H24.3605ZM24.6477 27.2533L24.0852 27.578L24.2687 27.8959L24.8312 27.5712L24.6477 27.2533ZM25.7513 27.549C25.5282 27.1626 25.0341 27.0302 24.6477 27.2533L24.8312 27.5712C25.0421 27.4494 25.3117 27.5217 25.4334 27.7325L25.7513 27.549ZM25.4556 28.6527C25.842 28.4296 25.9744 27.9354 25.7513 27.549L25.4334 27.7325C25.5552 27.9434 25.4829 28.213 25.2721 28.3348L25.4556 28.6527ZM24.8932 28.9774L25.4556 28.6527L25.2721 28.3348L24.7096 28.6595L24.8932 28.9774ZM25.4859 29.0017L24.8932 28.6595L24.7096 28.9774L25.3023 29.3196L25.4859 29.0017ZM25.7816 30.1054C26.0047 29.7189 25.8723 29.2248 25.4859 29.0017L25.3023 29.3196C25.5132 29.4413 25.5855 29.711 25.4637 29.9218L25.7816 30.1054ZM24.6779 30.4011C25.0644 30.6242 25.5585 30.4918 25.7816 30.1054L25.4637 29.9218C25.342 30.1327 25.0723 30.2049 24.8615 30.0832L24.6779 30.4011ZM24.0852 30.0589L24.6779 30.4011L24.8615 30.0832L24.2687 29.741L24.0852 30.0589ZM24.3605 30.4507V29.8999H23.9934V30.4507H24.3605ZM23.5525 31.2586C23.9988 31.2586 24.3605 30.8969 24.3605 30.4507H23.9934C23.9934 30.6941 23.796 30.8915 23.5525 30.8915V31.2586ZM22.7446 30.4507C22.7446 30.8969 23.1063 31.2586 23.5525 31.2586V30.8915C23.3091 30.8915 23.1117 30.6941 23.1117 30.4507H22.7446ZM22.7446 29.9V30.4507H23.1117V29.9H22.7446ZM22.4274 30.401L23.0199 30.0589L22.8364 29.741L22.2439 30.0831L22.4274 30.401ZM21.3237 30.1053C21.5468 30.4917 22.041 30.6241 22.4274 30.401L22.2439 30.0831C22.033 30.2048 21.7634 30.1326 21.6416 29.9217L21.3237 30.1053ZM21.6195 29.0016C21.233 29.2247 21.1006 29.7188 21.3237 30.1053L21.6416 29.9217C21.5199 29.7109 21.5921 29.4412 21.803 29.3195L21.6195 29.0016ZM22.212 28.6595L21.6195 29.0016L21.803 29.3195L22.3955 28.9774L22.212 28.6595ZM21.6497 28.6528L22.212 28.9774L22.3955 28.6595L21.8333 28.3349L21.6497 28.6528ZM21.354 27.5491C21.1309 27.9355 21.2633 28.4296 21.6497 28.6528L21.8333 28.3349C21.6224 28.2131 21.5502 27.9435 21.6719 27.7326L21.354 27.5491ZM22.4577 27.2534C22.0712 27.0303 21.5771 27.1627 21.354 27.5491L21.6719 27.7326C21.7936 27.5218 22.0633 27.4495 22.2741 27.5712L22.4577 27.2534ZM23.0199 27.578L22.4577 27.2534L22.2741 27.5712L22.8364 27.8959L23.0199 27.578ZM22.7446 26.954V27.7369H23.1117V26.954H22.7446ZM23.5525 26.1461C23.1063 26.1461 22.7446 26.5078 22.7446 26.954H23.1117C23.1117 26.7105 23.3091 26.5131 23.5525 26.5131V26.1461Z" fill="#85CFFF" fill-opacity="0.2" mask="url(#path-9-inside-3_3200_10869)"/>
<defs>
<filter id="filter0_d_3200_10869" x="-1.72458" y="4.92862" width="25.6" height="21.1689" filterUnits="userSpaceOnUse" color-interpolation-filters="sRGB">
<feFlood flood-opacity="0" result="BackgroundImageFix"/>
<feColorMatrix in="SourceAlpha" type="matrix" values="0 0 0 0 0 0 0 0 0 0 0 0 0 0 0 0 0 0 127 0" result="hardAlpha"/>
<feOffset dy="-0.492306"/>
<feGaussianBlur stdDeviation="1.96922"/>
<feComposite in2="hardAlpha" operator="out"/>
<feColorMatrix type="matrix" values="0 0 0 0 0.414632 0 0 0 0 0.765853 0 0 0 0 1 0 0 0 0.55 0"/>
<feBlend mode="normal" in2="BackgroundImageFix" result="effect1_dropShadow_3200_10869"/>
<feBlend mode="normal" in="SourceGraphic" in2="effect1_dropShadow_3200_10869" result="shape"/>
</filter>
<linearGradient id="paint0_linear_3200_10869" x1="17.2303" y1="2.22199" x2="23.384" y2="17.7296" gradientUnits="userSpaceOnUse">
<stop stop-color="#F0F9FF"/>
<stop offset="0.545228" stop-color="#E5F5FF"/>
<stop offset="1" stop-color="#BAE4FF"/>
</linearGradient>
<linearGradient id="paint1_linear_3200_10869" x1="9.10615" y1="9.60553" x2="12.5523" y2="21.1747" gradientUnits="userSpaceOnUse">
<stop stop-color="#E5F5FF"/>
<stop offset="1" stop-color="#BAE4FF"/>
</linearGradient>
<linearGradient id="paint2_linear_3200_10869" x1="8.4472" y1="26.3296" x2="8.4472" y2="31.0751" gradientUnits="userSpaceOnUse">
<stop stop-color="#CFEBFD"/>
<stop offset="1" stop-color="#81C2FF"/>
</linearGradient>
<linearGradient id="paint3_linear_3200_10869" x1="16.6128" y1="25.9896" x2="15.3875" y2="31.1971" gradientUnits="userSpaceOnUse">
<stop stop-color="#7CBEFB"/>
<stop offset="1" stop-color="#54A5F0"/>
</linearGradient>
<linearGradient id="paint4_linear_3200_10869" x1="23.5527" y1="26.3296" x2="23.5527" y2="31.0751" gradientUnits="userSpaceOnUse">
<stop stop-color="#CFEBFD"/>
<stop offset="1" stop-color="#81C2FF"/>
</linearGradient>
</defs>
</svg>
