<svg width="32" height="33" viewBox="0 0 32 33" fill="none" xmlns="http://www.w3.org/2000/svg">
<mask id="mask0_3200_10879" style="mask-type:alpha" maskUnits="userSpaceOnUse" x="2" y="2" width="28" height="21">
<path fill-rule="evenodd" clip-rule="evenodd" d="M19.9384 22.6536C25.3763 22.6536 29.7846 18.2453 29.7846 12.8075C29.7846 7.36966 25.3763 2.96143 19.9384 2.96143C15.6243 2.96143 11.9582 5.73599 10.6272 9.59804C10.0649 9.44349 9.47287 9.36095 8.86151 9.36095C5.19093 9.36095 2.21533 12.3365 2.21533 16.007C2.21533 19.6776 5.19093 22.6531 8.86151 22.6531H19.8453C19.8763 22.6534 19.9073 22.6536 19.9384 22.6536Z" fill="#D9D9D9"/>
</mask>
<g mask="url(#mask0_3200_10879)">
<ellipse cx="19.9379" cy="12.8065" rx="9.84615" ry="9.84608" fill="url(#paint0_linear_3200_10879)"/>
<g filter="url(#filter0_d_3200_10879)">
<path fill-rule="evenodd" clip-rule="evenodd" d="M15.5013 16.2634C15.5045 16.1778 15.5062 16.0918 15.5062 16.0055C15.5062 12.3349 12.5306 9.35938 8.86002 9.35938C5.18945 9.35938 2.21387 12.3349 2.21387 16.0055C2.21387 19.676 5.18945 22.6516 8.86002 22.6516C8.86003 22.6516 8.86004 22.6516 8.86005 22.6516L8.86002 22.6516H19.9369C17.2328 21.4225 15.5058 19.2113 15.5013 16.2634Z" fill="url(#paint1_linear_3200_10879)"/>
</g>
<g opacity="0.3">
<mask id="path-4-inside-1_3200_10879" fill="white">
<path fill-rule="evenodd" clip-rule="evenodd" d="M19.938 22.6521C25.3759 22.6521 29.7842 18.2439 29.7842 12.806C29.7842 7.3682 25.3759 2.95996 19.938 2.95996C15.6239 2.95996 11.9578 5.73454 10.6268 9.5966C10.0645 9.44204 9.47241 9.35948 8.86102 9.35948C5.19044 9.35948 2.21484 12.335 2.21484 16.0056C2.21484 19.6761 5.19044 22.6517 8.86102 22.6517H19.8449C19.8759 22.652 19.907 22.6521 19.938 22.6521Z"/>
</mask>
<path d="M10.6268 9.5966L10.4963 10.0713L10.9417 10.1937L11.0923 9.75701L10.6268 9.5966ZM19.8449 22.6517L19.8495 22.1594H19.8449V22.6517ZM29.2919 12.806C29.2919 17.972 25.104 22.1598 19.938 22.1598V23.1444C25.6478 23.1444 30.2765 18.5158 30.2765 12.806H29.2919ZM19.938 3.45227C25.104 3.45227 29.2919 7.6401 29.2919 12.806H30.2765C30.2765 7.0963 25.6478 2.46766 19.938 2.46766V3.45227ZM11.0923 9.75701C12.3569 6.08743 15.8403 3.45227 19.938 3.45227V2.46766C15.4074 2.46766 11.5587 5.38165 10.1614 9.4362L11.0923 9.75701ZM10.7573 9.12191C10.1529 8.95576 9.51691 8.86717 8.86102 8.86717V9.85179C9.42791 9.85179 9.97614 9.92831 10.4963 10.0713L10.7573 9.12191ZM8.86102 8.86717C4.91855 8.86717 1.72254 12.0631 1.72254 16.0056H2.70715C2.70715 12.6069 5.46233 9.85179 8.86102 9.85179V8.86717ZM1.72254 16.0056C1.72254 19.948 4.91855 23.144 8.86102 23.144V22.1594C5.46233 22.1594 2.70715 19.4042 2.70715 16.0056H1.72254ZM8.86102 23.144H19.8449V22.1594H8.86102V23.144ZM19.938 22.1598C19.9085 22.1598 19.879 22.1597 19.8495 22.1594L19.8404 23.144C19.8729 23.1443 19.9055 23.1444 19.938 23.1444V22.1598Z" fill="#ACDFFF" mask="url(#path-4-inside-1_3200_10879)"/>
</g>
</g>
<mask id="path-6-inside-2_3200_10879" fill="white">
<path fill-rule="evenodd" clip-rule="evenodd" d="M7.40362 25.6074C7.74847 25.6074 8.02803 25.887 8.02803 26.2318V27.0148L8.59051 26.69C8.88916 26.5176 9.27104 26.6199 9.44346 26.9186C9.61588 27.2172 9.51356 27.5991 9.21491 27.7715L8.65247 28.0963L9.24518 28.4385C9.54383 28.6109 9.64615 28.9928 9.47373 29.2914C9.3013 29.5901 8.91942 29.6924 8.62077 29.52L8.02803 29.1777V29.7285C8.02803 30.0733 7.74847 30.3529 7.40362 30.3529C7.05877 30.3529 6.77922 30.0733 6.77922 29.7285V29.1778L6.18671 29.5199C5.88806 29.6923 5.50618 29.59 5.33376 29.2913C5.16133 28.9927 5.26366 28.6108 5.56231 28.4384L6.15486 28.0963L5.59257 27.7716C5.29393 27.5992 5.1916 27.2173 5.36403 26.9187C5.53645 26.62 5.91833 26.5177 6.21698 26.6901L6.77922 27.0147V26.2318C6.77922 25.887 7.05877 25.6074 7.40362 25.6074Z"/>
</mask>
<path fill-rule="evenodd" clip-rule="evenodd" d="M7.40362 25.6074C7.74847 25.6074 8.02803 25.887 8.02803 26.2318V27.0148L8.59051 26.69C8.88916 26.5176 9.27104 26.6199 9.44346 26.9186C9.61588 27.2172 9.51356 27.5991 9.21491 27.7715L8.65247 28.0963L9.24518 28.4385C9.54383 28.6109 9.64615 28.9928 9.47373 29.2914C9.3013 29.5901 8.91942 29.6924 8.62077 29.52L8.02803 29.1777V29.7285C8.02803 30.0733 7.74847 30.3529 7.40362 30.3529C7.05877 30.3529 6.77922 30.0733 6.77922 29.7285V29.1778L6.18671 29.5199C5.88806 29.6923 5.50618 29.59 5.33376 29.2913C5.16133 28.9927 5.26366 28.6108 5.56231 28.4384L6.15486 28.0963L5.59257 27.7716C5.29393 27.5992 5.1916 27.2173 5.36403 26.9187C5.53645 26.62 5.91833 26.5177 6.21698 26.6901L6.77922 27.0147V26.2318C6.77922 25.887 7.05877 25.6074 7.40362 25.6074Z" fill="url(#paint2_linear_3200_10879)"/>
<path d="M8.02803 27.0148H7.8445V27.3327L8.11979 27.1737L8.02803 27.0148ZM8.59051 26.69L8.49874 26.5311L8.59051 26.69ZM9.44346 26.9186L9.28452 27.0104V27.0104L9.44346 26.9186ZM9.21491 27.7715L9.12315 27.6126H9.12315L9.21491 27.7715ZM8.65247 28.0963L8.56071 27.9373L8.28541 28.0963L8.56071 28.2552L8.65247 28.0963ZM9.24518 28.4385L9.33695 28.2795L9.24518 28.4385ZM9.47373 29.2914L9.63267 29.3832V29.3832L9.47373 29.2914ZM8.62077 29.52L8.71254 29.361L8.62077 29.52ZM8.02803 29.1777L8.11979 29.0188L7.8445 28.8599V29.1777H8.02803ZM6.77922 29.1778H6.96275V28.8599L6.68745 29.0189L6.77922 29.1778ZM6.18671 29.5199L6.09494 29.3609H6.09494L6.18671 29.5199ZM5.33376 29.2913L5.17481 29.3831H5.17481L5.33376 29.2913ZM5.56231 28.4384L5.47054 28.2794H5.47054L5.56231 28.4384ZM6.15486 28.0963L6.24662 28.2552L6.52192 28.0963L6.24662 27.9373L6.15486 28.0963ZM5.59257 27.7716L5.50081 27.9306L5.59257 27.7716ZM5.36403 26.9187L5.52297 27.0105L5.36403 26.9187ZM6.21698 26.6901L6.30874 26.5312L6.21698 26.6901ZM6.77922 27.0147L6.68745 27.1737L6.96275 27.3326V27.0147H6.77922ZM8.21156 26.2318C8.21156 25.7856 7.84984 25.4239 7.40362 25.4239V25.791C7.64711 25.791 7.8445 25.9883 7.8445 26.2318H8.21156ZM8.21156 27.0148V26.2318H7.8445V27.0148H8.21156ZM8.49874 26.5311L7.93626 26.8559L8.11979 27.1737L8.68227 26.849L8.49874 26.5311ZM9.6024 26.8268C9.3793 26.4404 8.88517 26.308 8.49874 26.5311L8.68227 26.849C8.89314 26.7272 9.16277 26.7995 9.28452 27.0104L9.6024 26.8268ZM9.30668 27.9305C9.69311 27.7074 9.82551 27.2133 9.6024 26.8268L9.28452 27.0104C9.40626 27.2212 9.33401 27.4909 9.12315 27.6126L9.30668 27.9305ZM8.74424 28.2552L9.30668 27.9305L9.12315 27.6126L8.56071 27.9373L8.74424 28.2552ZM9.33695 28.2795L8.74424 27.9373L8.56071 28.2552L9.15341 28.5974L9.33695 28.2795ZM9.63267 29.3832C9.85578 28.9968 9.72338 28.5026 9.33695 28.2795L9.15341 28.5974C9.36428 28.7192 9.43653 28.9888 9.31478 29.1997L9.63267 29.3832ZM8.52901 29.6789C8.91544 29.902 9.40957 29.7696 9.63267 29.3832L9.31478 29.1997C9.19304 29.4105 8.92341 29.4828 8.71254 29.361L8.52901 29.6789ZM7.93626 29.3367L8.52901 29.6789L8.71254 29.361L8.11979 29.0188L7.93626 29.3367ZM8.21156 29.7285V29.1777H7.8445V29.7285H8.21156ZM7.40362 30.5364C7.84984 30.5364 8.21156 30.1747 8.21156 29.7285H7.8445C7.8445 29.972 7.64711 30.1694 7.40362 30.1694V30.5364ZM6.59569 29.7285C6.59569 30.1747 6.95741 30.5364 7.40362 30.5364V30.1694C7.16014 30.1694 6.96275 29.972 6.96275 29.7285H6.59569ZM6.59569 29.1778V29.7285H6.96275V29.1778H6.59569ZM6.27848 29.6788L6.87099 29.3367L6.68745 29.0189L6.09494 29.3609L6.27848 29.6788ZM5.17481 29.3831C5.39792 29.7695 5.89205 29.9019 6.27848 29.6788L6.09494 29.3609C5.88408 29.4827 5.61445 29.4104 5.4927 29.1996L5.17481 29.3831ZM5.47054 28.2794C5.08411 28.5025 4.95171 28.9967 5.17481 29.3831L5.4927 29.1996C5.37096 28.9887 5.44321 28.7191 5.65407 28.5973L5.47054 28.2794ZM6.06309 27.9373L5.47054 28.2794L5.65407 28.5973L6.24662 28.2552L6.06309 27.9373ZM5.50081 27.9306L6.06309 28.2552L6.24662 27.9373L5.68434 27.6127L5.50081 27.9306ZM5.20508 26.8269C4.98198 27.2133 5.11438 27.7075 5.50081 27.9306L5.68434 27.6127C5.47347 27.4909 5.40123 27.2213 5.52297 27.0105L5.20508 26.8269ZM6.30874 26.5312C5.92231 26.3081 5.42819 26.4405 5.20508 26.8269L5.52297 27.0105C5.64471 26.7996 5.91435 26.7273 6.12521 26.8491L6.30874 26.5312ZM6.87099 26.8558L6.30874 26.5312L6.12521 26.8491L6.68745 27.1737L6.87099 26.8558ZM6.59569 26.2318V27.0147H6.96275V26.2318H6.59569ZM7.40362 25.4239C6.95741 25.4239 6.59569 25.7856 6.59569 26.2318H6.96275C6.96275 25.9883 7.16014 25.791 7.40362 25.791V25.4239Z" fill="#85CFFF" fill-opacity="0.2" mask="url(#path-6-inside-2_3200_10879)"/>
<mask id="path-8-inside-3_3200_10879" fill="white">
<path fill-rule="evenodd" clip-rule="evenodd" d="M15.9998 25.6074C16.3447 25.6074 16.6242 25.887 16.6242 26.2318V27.0148L17.1867 26.69C17.4853 26.5176 17.8672 26.6199 18.0397 26.9186C18.2121 27.2172 18.1098 27.5991 17.8111 27.7715L17.2487 28.0963L17.8414 28.4385C18.14 28.6109 18.2423 28.9928 18.0699 29.2914C17.8975 29.5901 17.5156 29.6924 17.217 29.52L16.6242 29.1777V29.7285C16.6242 30.0733 16.3447 30.3529 15.9998 30.3529C15.655 30.3529 15.3754 30.0733 15.3754 29.7285V29.1778L14.7829 29.5199C14.4843 29.6923 14.1024 29.59 13.93 29.2913C13.7575 28.9927 13.8598 28.6108 14.1585 28.4384L14.751 28.0963L14.1888 27.7716C13.8901 27.5992 13.7878 27.2173 13.9602 26.9187C14.1326 26.62 14.5145 26.5177 14.8132 26.6901L15.3754 27.0147V26.2318C15.3754 25.887 15.655 25.6074 15.9998 25.6074Z"/>
</mask>
<path fill-rule="evenodd" clip-rule="evenodd" d="M15.9998 25.6074C16.3447 25.6074 16.6242 25.887 16.6242 26.2318V27.0148L17.1867 26.69C17.4853 26.5176 17.8672 26.6199 18.0397 26.9186C18.2121 27.2172 18.1098 27.5991 17.8111 27.7715L17.2487 28.0963L17.8414 28.4385C18.14 28.6109 18.2423 28.9928 18.0699 29.2914C17.8975 29.5901 17.5156 29.6924 17.217 29.52L16.6242 29.1777V29.7285C16.6242 30.0733 16.3447 30.3529 15.9998 30.3529C15.655 30.3529 15.3754 30.0733 15.3754 29.7285V29.1778L14.7829 29.5199C14.4843 29.6923 14.1024 29.59 13.93 29.2913C13.7575 28.9927 13.8598 28.6108 14.1585 28.4384L14.751 28.0963L14.1888 27.7716C13.8901 27.5992 13.7878 27.2173 13.9602 26.9187C14.1326 26.62 14.5145 26.5177 14.8132 26.6901L15.3754 27.0147V26.2318C15.3754 25.887 15.655 25.6074 15.9998 25.6074Z" fill="url(#paint3_linear_3200_10879)"/>
<path d="M16.6242 27.0148H16.4407V27.3327L16.716 27.1737L16.6242 27.0148ZM17.1867 26.69L17.2785 26.849L17.1867 26.69ZM18.0397 26.9186L17.8807 27.0104V27.0104L18.0397 26.9186ZM17.8111 27.7715L17.9029 27.9305L17.8111 27.7715ZM17.2487 28.0963L17.1569 27.9373L16.8816 28.0963L17.1569 28.2552L17.2487 28.0963ZM17.8414 28.4385L17.7496 28.5974L17.8414 28.4385ZM18.0699 29.2914L18.2289 29.3832V29.3832L18.0699 29.2914ZM17.217 29.52L17.3087 29.361L17.217 29.52ZM16.6242 29.1777L16.716 29.0188L16.4407 28.8599V29.1777H16.6242ZM15.3754 29.1778H15.5589V28.8599L15.2836 29.0189L15.3754 29.1778ZM14.7829 29.5199L14.6911 29.3609H14.6911L14.7829 29.5199ZM13.93 29.2913L13.771 29.3831H13.771L13.93 29.2913ZM14.1585 28.4384L14.2503 28.5973L14.1585 28.4384ZM14.751 28.0963L14.8428 28.2552L15.1181 28.0963L14.8428 27.9373L14.751 28.0963ZM14.1888 27.7716L14.097 27.9306H14.097L14.1888 27.7716ZM13.9602 26.9187L14.1192 27.0105L13.9602 26.9187ZM14.8132 26.6901L14.7214 26.8491L14.8132 26.6901ZM15.3754 27.0147L15.2836 27.1737L15.5589 27.3326V27.0147H15.3754ZM16.8078 26.2318C16.8078 25.7856 16.446 25.4239 15.9998 25.4239V25.791C16.2433 25.791 16.4407 25.9883 16.4407 26.2318H16.8078ZM16.8078 27.0148V26.2318H16.4407V27.0148H16.8078ZM17.0949 26.5311L16.5325 26.8558L16.716 27.1737L17.2785 26.849L17.0949 26.5311ZM18.1986 26.8268C17.9755 26.4404 17.4814 26.308 17.0949 26.5311L17.2785 26.849C17.4893 26.7272 17.759 26.7995 17.8807 27.0104L18.1986 26.8268ZM17.9029 27.9305C18.2893 27.7074 18.4217 27.2133 18.1986 26.8268L17.8807 27.0104C18.0025 27.2212 17.9302 27.4909 17.7193 27.6126L17.9029 27.9305ZM17.3404 28.2552L17.9029 27.9305L17.7193 27.6126L17.1569 27.9373L17.3404 28.2552ZM17.9331 28.2795L17.3404 27.9373L17.1569 28.2552L17.7496 28.5974L17.9331 28.2795ZM18.2289 29.3832C18.452 28.9968 18.3196 28.5026 17.9331 28.2795L17.7496 28.5974C17.9605 28.7192 18.0327 28.9888 17.911 29.1997L18.2289 29.3832ZM17.1252 29.6789C17.5116 29.902 18.0058 29.7696 18.2289 29.3832L17.911 29.1997C17.7892 29.4105 17.5196 29.4828 17.3087 29.361L17.1252 29.6789ZM16.5325 29.3367L17.1252 29.6789L17.3087 29.361L16.716 29.0188L16.5325 29.3367ZM16.8078 29.7285V29.1777H16.4407V29.7285H16.8078ZM15.9998 30.5364C16.446 30.5364 16.8078 30.1747 16.8078 29.7285H16.4407C16.4407 29.972 16.2433 30.1694 15.9998 30.1694V30.5364ZM15.1919 29.7285C15.1919 30.1747 15.5536 30.5364 15.9998 30.5364V30.1694C15.7563 30.1694 15.5589 29.972 15.5589 29.7285H15.1919ZM15.1919 29.1778V29.7285H15.5589V29.1778H15.1919ZM14.8747 29.6788L15.4672 29.3367L15.2836 29.0189L14.6911 29.3609L14.8747 29.6788ZM13.771 29.3831C13.9941 29.7695 14.4882 29.9019 14.8747 29.6788L14.6911 29.3609C14.4803 29.4827 14.2106 29.4104 14.0889 29.1996L13.771 29.3831ZM14.0667 28.2794C13.6803 28.5025 13.5479 28.9967 13.771 29.3831L14.0889 29.1996C13.9672 28.9887 14.0394 28.7191 14.2503 28.5973L14.0667 28.2794ZM14.6593 27.9373L14.0667 28.2794L14.2503 28.5973L14.8428 28.2552L14.6593 27.9373ZM14.097 27.9306L14.6593 28.2552L14.8428 27.9373L14.2805 27.6127L14.097 27.9306ZM13.8013 26.8269C13.5782 27.2133 13.7106 27.7075 14.097 27.9306L14.2805 27.6127C14.0697 27.491 13.9974 27.2213 14.1192 27.0105L13.8013 26.8269ZM14.9049 26.5312C14.5185 26.3081 14.0244 26.4405 13.8013 26.8269L14.1192 27.0105C14.2409 26.7996 14.5105 26.7273 14.7214 26.8491L14.9049 26.5312ZM15.4672 26.8558L14.9049 26.5312L14.7214 26.8491L15.2836 27.1737L15.4672 26.8558ZM15.1919 26.2318V27.0147H15.5589V26.2318H15.1919ZM15.9998 25.4239C15.5536 25.4239 15.1919 25.7856 15.1919 26.2318H15.5589C15.5589 25.9883 15.7563 25.791 15.9998 25.791V25.4239Z" fill="#85CFFF" fill-opacity="0.2" mask="url(#path-8-inside-3_3200_10879)"/>
<mask id="path-10-inside-4_3200_10879" fill="white">
<path fill-rule="evenodd" clip-rule="evenodd" d="M24.5955 25.6074C24.9404 25.6074 25.2199 25.887 25.2199 26.2318V27.0148L25.7824 26.69C26.0811 26.5176 26.4629 26.6199 26.6354 26.9186C26.8078 27.2172 26.7055 27.5991 26.4068 27.7715L25.8444 28.0963L26.4371 28.4385C26.7357 28.6109 26.838 28.9928 26.6656 29.2914C26.4932 29.5901 26.1113 29.6924 25.8127 29.52L25.2199 29.1777V29.7285C25.2199 30.0733 24.9404 30.3529 24.5955 30.3529C24.2507 30.3529 23.9711 30.0733 23.9711 29.7285V29.1778L23.3786 29.5199C23.08 29.6923 22.6981 29.59 22.5257 29.2913C22.3532 28.9927 22.4556 28.6108 22.7542 28.4384L23.3468 28.0963L22.7845 27.7716C22.4858 27.5992 22.3835 27.2173 22.5559 26.9187C22.7283 26.62 23.1102 26.5177 23.4089 26.6901L23.9711 27.0147V26.2318C23.9711 25.887 24.2507 25.6074 24.5955 25.6074Z"/>
</mask>
<path fill-rule="evenodd" clip-rule="evenodd" d="M24.5955 25.6074C24.9404 25.6074 25.2199 25.887 25.2199 26.2318V27.0148L25.7824 26.69C26.0811 26.5176 26.4629 26.6199 26.6354 26.9186C26.8078 27.2172 26.7055 27.5991 26.4068 27.7715L25.8444 28.0963L26.4371 28.4385C26.7357 28.6109 26.838 28.9928 26.6656 29.2914C26.4932 29.5901 26.1113 29.6924 25.8127 29.52L25.2199 29.1777V29.7285C25.2199 30.0733 24.9404 30.3529 24.5955 30.3529C24.2507 30.3529 23.9711 30.0733 23.9711 29.7285V29.1778L23.3786 29.5199C23.08 29.6923 22.6981 29.59 22.5257 29.2913C22.3532 28.9927 22.4556 28.6108 22.7542 28.4384L23.3468 28.0963L22.7845 27.7716C22.4858 27.5992 22.3835 27.2173 22.5559 26.9187C22.7283 26.62 23.1102 26.5177 23.4089 26.6901L23.9711 27.0147V26.2318C23.9711 25.887 24.2507 25.6074 24.5955 25.6074Z" fill="url(#paint4_linear_3200_10879)"/>
<path d="M25.2199 27.0148H25.0364V27.3327L25.3117 27.1737L25.2199 27.0148ZM25.7824 26.69L25.8742 26.849L25.7824 26.69ZM26.6354 26.9186L26.4764 27.0104V27.0104L26.6354 26.9186ZM26.4068 27.7715L26.315 27.6126L26.4068 27.7715ZM25.8444 28.0963L25.7526 27.9373L25.4773 28.0963L25.7526 28.2552L25.8444 28.0963ZM26.4371 28.4385L26.3453 28.5974H26.3453L26.4371 28.4385ZM26.6656 29.2914L26.5067 29.1997L26.6656 29.2914ZM25.8127 29.52L25.9044 29.361L25.8127 29.52ZM25.2199 29.1777L25.3117 29.0188L25.0364 28.8599V29.1777H25.2199ZM23.9711 29.1778H24.1546V28.8599L23.8793 29.0189L23.9711 29.1778ZM23.3786 29.5199L23.2868 29.3609H23.2868L23.3786 29.5199ZM22.5257 29.2913L22.3667 29.3831H22.3667L22.5257 29.2913ZM22.7542 28.4384L22.846 28.5973L22.7542 28.4384ZM23.3468 28.0963L23.4385 28.2552L23.7138 28.0963L23.4385 27.9373L23.3468 28.0963ZM22.7845 27.7716L22.6927 27.9306H22.6927L22.7845 27.7716ZM22.5559 26.9187L22.397 26.8269H22.397L22.5559 26.9187ZM23.4089 26.6901L23.3171 26.8491L23.4089 26.6901ZM23.9711 27.0147L23.8793 27.1737L24.1546 27.3326V27.0147H23.9711ZM25.4035 26.2318C25.4035 25.7856 25.0417 25.4239 24.5955 25.4239V25.791C24.839 25.791 25.0364 25.9883 25.0364 26.2318H25.4035ZM25.4035 27.0148V26.2318H25.0364V27.0148H25.4035ZM25.6906 26.5311L25.1282 26.8558L25.3117 27.1737L25.8742 26.849L25.6906 26.5311ZM26.7943 26.8268C26.5712 26.4404 26.0771 26.308 25.6906 26.5311L25.8742 26.849C26.085 26.7272 26.3547 26.7995 26.4764 27.0104L26.7943 26.8268ZM26.4986 27.9305C26.885 27.7074 27.0174 27.2133 26.7943 26.8268L26.4764 27.0104C26.5982 27.2212 26.5259 27.4909 26.315 27.6126L26.4986 27.9305ZM25.9361 28.2552L26.4986 27.9305L26.315 27.6126L25.7526 27.9373L25.9361 28.2552ZM26.5288 28.2795L25.9361 27.9373L25.7526 28.2552L26.3453 28.5974L26.5288 28.2795ZM26.8246 29.3832C27.0477 28.9968 26.9153 28.5026 26.5288 28.2795L26.3453 28.5974C26.5562 28.7192 26.6284 28.9888 26.5067 29.1997L26.8246 29.3832ZM25.7209 29.6789C26.1073 29.902 26.6015 29.7696 26.8246 29.3832L26.5067 29.1997C26.3849 29.4105 26.1153 29.4828 25.9044 29.361L25.7209 29.6789ZM25.1282 29.3367L25.7209 29.6789L25.9044 29.361L25.3117 29.0188L25.1282 29.3367ZM25.4035 29.7285V29.1777H25.0364V29.7285H25.4035ZM24.5955 30.5364C25.0417 30.5364 25.4035 30.1747 25.4035 29.7285H25.0364C25.0364 29.972 24.839 30.1694 24.5955 30.1694V30.5364ZM23.7876 29.7285C23.7876 30.1747 24.1493 30.5364 24.5955 30.5364V30.1694C24.352 30.1694 24.1546 29.972 24.1546 29.7285H23.7876ZM23.7876 29.1778V29.7285H24.1546V29.1778H23.7876ZM23.4704 29.6788L24.0629 29.3367L23.8793 29.0189L23.2868 29.3609L23.4704 29.6788ZM22.3667 29.3831C22.5898 29.7695 23.0839 29.9019 23.4704 29.6788L23.2868 29.3609C23.076 29.4827 22.8063 29.4104 22.6846 29.1996L22.3667 29.3831ZM22.6624 28.2794C22.276 28.5025 22.1436 28.9967 22.3667 29.3831L22.6846 29.1996C22.5629 28.9887 22.6351 28.7191 22.846 28.5973L22.6624 28.2794ZM23.255 27.9373L22.6624 28.2794L22.846 28.5973L23.4385 28.2552L23.255 27.9373ZM22.6927 27.9306L23.255 28.2552L23.4385 27.9373L22.8762 27.6127L22.6927 27.9306ZM22.397 26.8269C22.1739 27.2133 22.3063 27.7075 22.6927 27.9306L22.8762 27.6127C22.6654 27.4909 22.5931 27.2213 22.7149 27.0105L22.397 26.8269ZM23.5006 26.5312C23.1142 26.3081 22.6201 26.4405 22.397 26.8269L22.7149 27.0105C22.8366 26.7996 23.1062 26.7273 23.3171 26.8491L23.5006 26.5312ZM24.0629 26.8558L23.5006 26.5312L23.3171 26.8491L23.8793 27.1737L24.0629 26.8558ZM23.7876 26.2318V27.0147H24.1546V26.2318H23.7876ZM24.5955 25.4239C24.1493 25.4239 23.7876 25.7856 23.7876 26.2318H24.1546C24.1546 25.9883 24.352 25.791 24.5955 25.791V25.4239Z" fill="#85CFFF" fill-opacity="0.2" mask="url(#path-10-inside-4_3200_10879)"/>
<defs>
<filter id="filter0_d_3200_10879" x="-1.72458" y="4.92862" width="25.6" height="21.1689" filterUnits="userSpaceOnUse" color-interpolation-filters="sRGB">
<feFlood flood-opacity="0" result="BackgroundImageFix"/>
<feColorMatrix in="SourceAlpha" type="matrix" values="0 0 0 0 0 0 0 0 0 0 0 0 0 0 0 0 0 0 127 0" result="hardAlpha"/>
<feOffset dy="-0.492306"/>
<feGaussianBlur stdDeviation="1.96922"/>
<feComposite in2="hardAlpha" operator="out"/>
<feColorMatrix type="matrix" values="0 0 0 0 0.414632 0 0 0 0 0.765853 0 0 0 0 1 0 0 0 0.55 0"/>
<feBlend mode="normal" in2="BackgroundImageFix" result="effect1_dropShadow_3200_10879"/>
<feBlend mode="normal" in="SourceGraphic" in2="effect1_dropShadow_3200_10879" result="shape"/>
</filter>
<linearGradient id="paint0_linear_3200_10879" x1="17.2303" y1="2.22199" x2="23.384" y2="17.7296" gradientUnits="userSpaceOnUse">
<stop stop-color="#F0F9FF"/>
<stop offset="0.545228" stop-color="#E5F5FF"/>
<stop offset="1" stop-color="#BAE4FF"/>
</linearGradient>
<linearGradient id="paint1_linear_3200_10879" x1="9.10615" y1="9.60553" x2="12.5523" y2="21.1747" gradientUnits="userSpaceOnUse">
<stop stop-color="#E5F5FF"/>
<stop offset="1" stop-color="#BAE4FF"/>
</linearGradient>
<linearGradient id="paint2_linear_3200_10879" x1="7.40374" y1="25.6074" x2="7.40374" y2="30.3529" gradientUnits="userSpaceOnUse">
<stop stop-color="#CFEBFD"/>
<stop offset="1" stop-color="#81C2FF"/>
</linearGradient>
<linearGradient id="paint3_linear_3200_10879" x1="15.9999" y1="25.6074" x2="15.9999" y2="30.3529" gradientUnits="userSpaceOnUse">
<stop stop-color="#CFEBFD"/>
<stop offset="1" stop-color="#81C2FF"/>
</linearGradient>
<linearGradient id="paint4_linear_3200_10879" x1="24.5956" y1="25.6074" x2="24.5956" y2="30.3529" gradientUnits="userSpaceOnUse">
<stop stop-color="#CFEBFD"/>
<stop offset="1" stop-color="#81C2FF"/>
</linearGradient>
</defs>
</svg>
