<svg width="32" height="33" viewBox="0 0 32 33" fill="none" xmlns="http://www.w3.org/2000/svg">
<g clip-path="url(#clip0_3200_10868)">
<path fill-rule="evenodd" clip-rule="evenodd" d="M8.81529 7.88477C7.72771 7.88477 6.84606 8.76642 6.84606 9.854C6.84606 10.9416 7.72771 11.8232 8.81529 11.8232H10.2922C11.1079 11.8232 11.7691 12.4845 11.7691 13.3002C11.7691 14.1158 11.1079 14.7771 10.2922 14.7771H5.36913C4.28156 14.7771 3.3999 15.6587 3.3999 16.7463C3.3999 17.8339 4.28156 18.7155 5.36913 18.7155H14.723C15.5387 18.7155 16.1999 19.3768 16.1999 20.1925C16.1999 21.0081 15.5387 21.6694 14.723 21.6694H9.7999C8.71233 21.6694 7.83067 22.551 7.83067 23.6386C7.83067 24.7262 8.71233 25.6078 9.7999 25.6078H23.5845C24.6721 25.6078 25.5537 24.7262 25.5537 23.6386C25.5537 22.551 24.6721 21.6694 23.5845 21.6694H22.1076C21.2919 21.6694 20.6307 21.0081 20.6307 20.1925C20.6307 19.3768 21.2919 18.7155 22.1076 18.7155H25.5537C26.6413 18.7155 27.523 17.8339 27.523 16.7463C27.523 15.6587 26.6413 14.7771 25.5537 14.7771H15.7076C14.8919 14.7771 14.2307 14.1158 14.2307 13.3002C14.2307 12.4845 14.8919 11.8232 15.7076 11.8232H19.1537C20.2413 11.8232 21.123 10.9416 21.123 9.854C21.123 8.76642 20.2413 7.88477 19.1537 7.88477H8.81529Z" fill="url(#paint0_linear_3200_10868)"/>
<path fill-rule="evenodd" clip-rule="evenodd" d="M8.81529 8.08169C7.83647 8.08169 7.04298 8.87518 7.04298 9.854C7.04298 10.8328 7.83647 11.6263 8.81529 11.6263H10.2922C11.2167 11.6263 11.9661 12.3757 11.9661 13.3002C11.9661 14.2246 11.2167 14.974 10.2922 14.974H5.36913C4.39031 14.974 3.59683 15.7675 3.59683 16.7463C3.59683 17.7251 4.39032 18.5186 5.36913 18.5186H14.723C15.6474 18.5186 16.3968 19.268 16.3968 20.1925C16.3968 21.1169 15.6474 21.8663 14.723 21.8663H9.7999C8.82108 21.8663 8.02759 22.6598 8.02759 23.6386C8.02759 24.6174 8.82108 25.4109 9.7999 25.4109H23.5845C24.5633 25.4109 25.3568 24.6174 25.3568 23.6386C25.3568 22.6598 24.5633 21.8663 23.5845 21.8663H22.1076C21.1832 21.8663 20.4337 21.1169 20.4337 20.1925C20.4337 19.268 21.1832 18.5186 22.1076 18.5186H25.5537C26.5326 18.5186 27.3261 17.7251 27.3261 16.7463C27.3261 15.7675 26.5326 14.974 25.5537 14.974H15.7076C14.7832 14.974 14.0337 14.2246 14.0337 13.3002C14.0337 12.3757 14.7832 11.6263 15.7076 11.6263H19.1537C20.1326 11.6263 20.9261 10.8328 20.9261 9.854C20.9261 8.87518 20.1326 8.08169 19.1537 8.08169H8.81529ZM6.84606 9.854C6.84606 8.76642 7.72771 7.88477 8.81529 7.88477H19.1537C20.2413 7.88477 21.123 8.76642 21.123 9.854C21.123 10.9416 20.2413 11.8232 19.1537 11.8232H15.7076C14.8919 11.8232 14.2307 12.4845 14.2307 13.3002C14.2307 14.1158 14.8919 14.7771 15.7076 14.7771H25.5537C26.6413 14.7771 27.523 15.6587 27.523 16.7463C27.523 17.8339 26.6413 18.7155 25.5537 18.7155H22.1076C21.2919 18.7155 20.6307 19.3768 20.6307 20.1925C20.6307 21.0081 21.2919 21.6694 22.1076 21.6694H23.5845C24.6721 21.6694 25.5537 22.551 25.5537 23.6386C25.5537 24.7262 24.6721 25.6078 23.5845 25.6078H9.7999C8.71233 25.6078 7.83067 24.7262 7.83067 23.6386C7.83067 22.551 8.71233 21.6694 9.7999 21.6694H14.723C15.5387 21.6694 16.1999 21.0081 16.1999 20.1925C16.1999 19.3768 15.5387 18.7155 14.723 18.7155H5.36913C4.28156 18.7155 3.3999 17.8339 3.3999 16.7463C3.3999 15.6587 4.28156 14.7771 5.36913 14.7771H10.2922C11.1079 14.7771 11.7691 14.1158 11.7691 13.3002C11.7691 12.4845 11.1079 11.8232 10.2922 11.8232H8.81529C7.72771 11.8232 6.84606 10.9416 6.84606 9.854Z" fill="white" fill-opacity="0.1"/>
<path opacity="0.9" d="M23.5845 9.854C23.5845 8.76642 24.4661 7.88477 25.5537 7.88477H26.5383C27.6259 7.88477 28.5075 8.76642 28.5075 9.854C28.5075 10.9416 27.6259 11.8232 26.5383 11.8232H25.5537C24.4661 11.8232 23.5845 10.9416 23.5845 9.854Z" fill="url(#paint1_linear_3200_10868)"/>
<path opacity="0.9" fill-rule="evenodd" clip-rule="evenodd" d="M26.5383 8.08169H25.5537C24.5749 8.08169 23.7814 8.87518 23.7814 9.854C23.7814 10.8328 24.5749 11.6263 25.5537 11.6263H26.5383C27.5171 11.6263 28.3106 10.8328 28.3106 9.854C28.3106 8.87518 27.5171 8.08169 26.5383 8.08169ZM25.5537 7.88477C24.4661 7.88477 23.5845 8.76642 23.5845 9.854C23.5845 10.9416 24.4661 11.8232 25.5537 11.8232H26.5383C27.6259 11.8232 28.5075 10.9416 28.5075 9.854C28.5075 8.76642 27.6259 7.88477 26.5383 7.88477H25.5537Z" fill="white" fill-opacity="0.1"/>
</g>
<defs>
<linearGradient id="paint0_linear_3200_10868" x1="13.4922" y1="8.86938" x2="23.3384" y2="25.6078" gradientUnits="userSpaceOnUse">
<stop stop-color="#C1DCEB"/>
<stop offset="1" stop-color="#6A8FA3"/>
</linearGradient>
<linearGradient id="paint1_linear_3200_10868" x1="26.046" y1="7.88477" x2="28.0152" y2="12.5617" gradientUnits="userSpaceOnUse">
<stop stop-color="#C1DCEB"/>
<stop offset="1" stop-color="#6A8FA3"/>
</linearGradient>
<clipPath id="clip0_3200_10868">
<rect width="32" height="32" fill="white" transform="translate(0 0.5)"/>
</clipPath>
</defs>
</svg>
