<svg width="32" height="33" viewBox="0 0 32 33" fill="none" xmlns="http://www.w3.org/2000/svg">
<path fill-rule="evenodd" clip-rule="evenodd" d="M27.6377 20.8732C26.0405 21.4758 24.2787 21.7127 22.4668 21.4936C16.4653 20.7676 12.1885 15.3138 12.9144 9.31233C13.1336 7.50049 13.7838 5.84577 14.7497 4.43848C9.49458 5.1947 5.18701 9.38961 4.519 14.9123C3.72047 21.5142 8.42485 27.5132 15.0267 28.3117C20.5496 28.9797 25.6504 25.7965 27.6377 20.8732Z" fill="url(#paint0_linear_3200_10878)"/>
<g style="mix-blend-mode:hard-light">
<path d="M14.2373 4.77539C13.4773 6.01339 12.9479 7.41845 12.7168 8.9375L12.6699 9.2832C11.9511 15.2277 16.0326 20.6466 21.8672 21.6543L22.4375 21.7383C24.0893 21.938 25.7006 21.7655 27.1885 21.2891C25.1723 25.6735 20.5838 28.5104 15.5625 28.1182L15.0566 28.0674C8.6907 27.2974 4.12521 21.5909 4.73047 15.2441L4.76367 14.9424C5.39462 9.72604 9.34046 5.71914 14.2373 4.77539Z" stroke="white" stroke-opacity="0.07" stroke-width="0.492308"/>
</g>
<path d="M20.9979 7.41309L21.2002 6.90039L21.4025 7.41309C21.6343 8.00105 22.0998 8.46648 22.6875 8.69813L23.2002 8.90039L22.6875 9.10265C22.0995 9.33454 21.6341 9.79997 21.4025 10.3877L21.2002 10.9004L20.9979 10.3877C20.766 9.79973 20.3006 9.3343 19.7129 9.10265L19.2002 8.90039L19.7129 8.69813C20.3009 8.46624 20.7663 8.00081 20.9979 7.41309Z" fill="url(#paint1_linear_3200_10878)"/>
<path d="M21.3799 7.42188C21.585 7.9419 21.9707 8.36703 22.4619 8.62207L22.6787 8.7207L23.1338 8.90039L22.6787 9.08008C22.1587 9.28518 21.7336 9.67086 21.4785 10.1621L21.3799 10.3789L21.2002 10.834L21.0205 10.3789C20.8154 9.85888 20.4297 9.43375 19.9385 9.17871L19.7217 9.08008L19.2656 8.90039L19.7217 8.7207C20.2417 8.5156 20.6668 8.12993 20.9219 7.63867L21.0205 7.42188L21.2002 6.96582L21.3799 7.42188Z" stroke="white" stroke-opacity="0.2" stroke-width="0.0492308"/>
<defs>
<linearGradient id="paint0_linear_3200_10878" x1="15.7537" y1="4.43848" x2="23.3845" y2="27.8231" gradientUnits="userSpaceOnUse">
<stop stop-color="#CBCBFF"/>
<stop offset="0.480926" stop-color="#8081F2"/>
<stop offset="1" stop-color="#6465CA"/>
</linearGradient>
<linearGradient id="paint1_linear_3200_10878" x1="21.2002" y1="6.90039" x2="21.8669" y2="10.9004" gradientUnits="userSpaceOnUse">
<stop stop-color="#FFF490"/>
<stop offset="1" stop-color="#FFD990"/>
</linearGradient>
</defs>
</svg>
