<svg width="32" height="33" viewBox="0 0 32 33" fill="none" xmlns="http://www.w3.org/2000/svg">
<mask id="mask0_3200_10872" style="mask-type:alpha" maskUnits="userSpaceOnUse" x="2" y="2" width="28" height="21">
<path fill-rule="evenodd" clip-rule="evenodd" d="M19.9384 22.6536C25.3763 22.6536 29.7846 18.2453 29.7846 12.8075C29.7846 7.36966 25.3763 2.96143 19.9384 2.96143C15.6243 2.96143 11.9582 5.73599 10.6272 9.59804C10.0649 9.44349 9.47287 9.36095 8.86151 9.36095C5.19093 9.36095 2.21533 12.3365 2.21533 16.007C2.21533 19.6776 5.19093 22.6531 8.86151 22.6531H19.8453C19.8763 22.6534 19.9073 22.6536 19.9384 22.6536Z" fill="#D9D9D9"/>
</mask>
<g mask="url(#mask0_3200_10872)">
<ellipse cx="19.9379" cy="12.8065" rx="9.84615" ry="9.84608" fill="url(#paint0_linear_3200_10872)"/>
<g filter="url(#filter0_d_3200_10872)">
<path fill-rule="evenodd" clip-rule="evenodd" d="M15.5013 16.2634C15.5045 16.1778 15.5062 16.0918 15.5062 16.0055C15.5062 12.3349 12.5306 9.35938 8.86002 9.35938C5.18945 9.35938 2.21387 12.3349 2.21387 16.0055C2.21387 19.676 5.18945 22.6516 8.86002 22.6516C8.86003 22.6516 8.86004 22.6516 8.86005 22.6516L8.86002 22.6516H19.9369C17.2328 21.4225 15.5058 19.2113 15.5013 16.2634Z" fill="url(#paint1_linear_3200_10872)"/>
</g>
<g opacity="0.3">
<mask id="path-4-inside-1_3200_10872" fill="white">
<path fill-rule="evenodd" clip-rule="evenodd" d="M19.938 22.6521C25.3759 22.6521 29.7842 18.2439 29.7842 12.806C29.7842 7.3682 25.3759 2.95996 19.938 2.95996C15.6239 2.95996 11.9578 5.73454 10.6268 9.5966C10.0645 9.44204 9.47241 9.35948 8.86102 9.35948C5.19044 9.35948 2.21484 12.335 2.21484 16.0056C2.21484 19.6761 5.19044 22.6517 8.86102 22.6517H19.8449C19.8759 22.652 19.907 22.6521 19.938 22.6521Z"/>
</mask>
<path d="M10.6268 9.5966L10.4963 10.0713L10.9417 10.1937L11.0923 9.75701L10.6268 9.5966ZM19.8449 22.6517L19.8495 22.1594H19.8449V22.6517ZM29.2919 12.806C29.2919 17.972 25.104 22.1598 19.938 22.1598V23.1444C25.6478 23.1444 30.2765 18.5158 30.2765 12.806H29.2919ZM19.938 3.45227C25.104 3.45227 29.2919 7.6401 29.2919 12.806H30.2765C30.2765 7.0963 25.6478 2.46766 19.938 2.46766V3.45227ZM11.0923 9.75701C12.3569 6.08743 15.8403 3.45227 19.938 3.45227V2.46766C15.4074 2.46766 11.5587 5.38165 10.1614 9.4362L11.0923 9.75701ZM10.7573 9.12191C10.1529 8.95576 9.51691 8.86717 8.86102 8.86717V9.85179C9.42791 9.85179 9.97614 9.92831 10.4963 10.0713L10.7573 9.12191ZM8.86102 8.86717C4.91855 8.86717 1.72254 12.0631 1.72254 16.0056H2.70715C2.70715 12.6069 5.46233 9.85179 8.86102 9.85179V8.86717ZM1.72254 16.0056C1.72254 19.948 4.91855 23.144 8.86102 23.144V22.1594C5.46233 22.1594 2.70715 19.4042 2.70715 16.0056H1.72254ZM8.86102 23.144H19.8449V22.1594H8.86102V23.144ZM19.938 22.1598C19.9085 22.1598 19.879 22.1597 19.8495 22.1594L19.8404 23.144C19.8729 23.1443 19.9055 23.1444 19.938 23.1444V22.1598Z" fill="#ACDFFF" mask="url(#path-4-inside-1_3200_10872)"/>
</g>
</g>
<path d="M9.55763 26.4922L7.33691 29.4678" stroke="url(#paint2_linear_3200_10872)" stroke-width="1.53162" stroke-linecap="round"/>
<mask id="path-7-inside-2_3200_10872" fill="white">
<path fill-rule="evenodd" clip-rule="evenodd" d="M15.9998 25.6074C16.3447 25.6074 16.6242 25.887 16.6242 26.2318V27.0148L17.1867 26.69C17.4853 26.5176 17.8672 26.6199 18.0397 26.9186C18.2121 27.2172 18.1098 27.5991 17.8111 27.7715L17.2487 28.0963L17.8414 28.4385C18.14 28.6109 18.2423 28.9928 18.0699 29.2914C17.8975 29.5901 17.5156 29.6924 17.217 29.52L16.6242 29.1777V29.7285C16.6242 30.0733 16.3447 30.3529 15.9998 30.3529C15.655 30.3529 15.3754 30.0733 15.3754 29.7285V29.1778L14.7829 29.5199C14.4843 29.6923 14.1024 29.59 13.93 29.2913C13.7575 28.9927 13.8598 28.6108 14.1585 28.4384L14.751 28.0963L14.1888 27.7716C13.8901 27.5992 13.7878 27.2173 13.9602 26.9187C14.1326 26.62 14.5145 26.5177 14.8132 26.6901L15.3754 27.0147V26.2318C15.3754 25.887 15.655 25.6074 15.9998 25.6074Z"/>
</mask>
<path fill-rule="evenodd" clip-rule="evenodd" d="M15.9998 25.6074C16.3447 25.6074 16.6242 25.887 16.6242 26.2318V27.0148L17.1867 26.69C17.4853 26.5176 17.8672 26.6199 18.0397 26.9186C18.2121 27.2172 18.1098 27.5991 17.8111 27.7715L17.2487 28.0963L17.8414 28.4385C18.14 28.6109 18.2423 28.9928 18.0699 29.2914C17.8975 29.5901 17.5156 29.6924 17.217 29.52L16.6242 29.1777V29.7285C16.6242 30.0733 16.3447 30.3529 15.9998 30.3529C15.655 30.3529 15.3754 30.0733 15.3754 29.7285V29.1778L14.7829 29.5199C14.4843 29.6923 14.1024 29.59 13.93 29.2913C13.7575 28.9927 13.8598 28.6108 14.1585 28.4384L14.751 28.0963L14.1888 27.7716C13.8901 27.5992 13.7878 27.2173 13.9602 26.9187C14.1326 26.62 14.5145 26.5177 14.8132 26.6901L15.3754 27.0147V26.2318C15.3754 25.887 15.655 25.6074 15.9998 25.6074Z" fill="url(#paint3_linear_3200_10872)"/>
<path d="M16.6242 27.0148H16.4407V27.3327L16.716 27.1737L16.6242 27.0148ZM17.1867 26.69L17.2785 26.849L17.1867 26.69ZM18.0397 26.9186L17.8807 27.0104V27.0104L18.0397 26.9186ZM17.8111 27.7715L17.9029 27.9305L17.8111 27.7715ZM17.2487 28.0963L17.1569 27.9373L16.8816 28.0963L17.1569 28.2552L17.2487 28.0963ZM17.8414 28.4385L17.7496 28.5974L17.8414 28.4385ZM18.0699 29.2914L18.2289 29.3832V29.3832L18.0699 29.2914ZM17.217 29.52L17.3087 29.361L17.217 29.52ZM16.6242 29.1777L16.716 29.0188L16.4407 28.8599V29.1777H16.6242ZM15.3754 29.1778H15.5589V28.8599L15.2836 29.0189L15.3754 29.1778ZM14.7829 29.5199L14.6911 29.3609H14.6911L14.7829 29.5199ZM13.93 29.2913L13.771 29.3831H13.771L13.93 29.2913ZM14.1585 28.4384L14.2503 28.5973L14.1585 28.4384ZM14.751 28.0963L14.8428 28.2552L15.1181 28.0963L14.8428 27.9373L14.751 28.0963ZM14.1888 27.7716L14.097 27.9306H14.097L14.1888 27.7716ZM13.9602 26.9187L14.1192 27.0105L13.9602 26.9187ZM14.8132 26.6901L14.7214 26.8491L14.8132 26.6901ZM15.3754 27.0147L15.2836 27.1737L15.5589 27.3326V27.0147H15.3754ZM16.8078 26.2318C16.8078 25.7856 16.446 25.4239 15.9998 25.4239V25.791C16.2433 25.791 16.4407 25.9883 16.4407 26.2318H16.8078ZM16.8078 27.0148V26.2318H16.4407V27.0148H16.8078ZM17.0949 26.5311L16.5325 26.8558L16.716 27.1737L17.2785 26.849L17.0949 26.5311ZM18.1986 26.8268C17.9755 26.4404 17.4814 26.308 17.0949 26.5311L17.2785 26.849C17.4893 26.7272 17.759 26.7995 17.8807 27.0104L18.1986 26.8268ZM17.9029 27.9305C18.2893 27.7074 18.4217 27.2133 18.1986 26.8268L17.8807 27.0104C18.0025 27.2212 17.9302 27.4909 17.7193 27.6126L17.9029 27.9305ZM17.3404 28.2552L17.9029 27.9305L17.7193 27.6126L17.1569 27.9373L17.3404 28.2552ZM17.9331 28.2795L17.3404 27.9373L17.1569 28.2552L17.7496 28.5974L17.9331 28.2795ZM18.2289 29.3832C18.452 28.9968 18.3196 28.5026 17.9331 28.2795L17.7496 28.5974C17.9605 28.7192 18.0327 28.9888 17.911 29.1997L18.2289 29.3832ZM17.1252 29.6789C17.5116 29.902 18.0058 29.7696 18.2289 29.3832L17.911 29.1997C17.7892 29.4105 17.5196 29.4828 17.3087 29.361L17.1252 29.6789ZM16.5325 29.3367L17.1252 29.6789L17.3087 29.361L16.716 29.0188L16.5325 29.3367ZM16.8078 29.7285V29.1777H16.4407V29.7285H16.8078ZM15.9998 30.5364C16.446 30.5364 16.8078 30.1747 16.8078 29.7285H16.4407C16.4407 29.972 16.2433 30.1694 15.9998 30.1694V30.5364ZM15.1919 29.7285C15.1919 30.1747 15.5536 30.5364 15.9998 30.5364V30.1694C15.7563 30.1694 15.5589 29.972 15.5589 29.7285H15.1919ZM15.1919 29.1778V29.7285H15.5589V29.1778H15.1919ZM14.8747 29.6788L15.4672 29.3367L15.2836 29.0189L14.6911 29.3609L14.8747 29.6788ZM13.771 29.3831C13.9941 29.7695 14.4882 29.9019 14.8747 29.6788L14.6911 29.3609C14.4803 29.4827 14.2106 29.4104 14.0889 29.1996L13.771 29.3831ZM14.0667 28.2794C13.6803 28.5025 13.5479 28.9967 13.771 29.3831L14.0889 29.1996C13.9672 28.9887 14.0394 28.7191 14.2503 28.5973L14.0667 28.2794ZM14.6593 27.9373L14.0667 28.2794L14.2503 28.5973L14.8428 28.2552L14.6593 27.9373ZM14.097 27.9306L14.6593 28.2552L14.8428 27.9373L14.2805 27.6127L14.097 27.9306ZM13.8013 26.8269C13.5782 27.2133 13.7106 27.7075 14.097 27.9306L14.2805 27.6127C14.0697 27.491 13.9974 27.2213 14.1192 27.0105L13.8013 26.8269ZM14.9049 26.5312C14.5185 26.3081 14.0244 26.4405 13.8013 26.8269L14.1192 27.0105C14.2409 26.7996 14.5105 26.7273 14.7214 26.8491L14.9049 26.5312ZM15.4672 26.8558L14.9049 26.5312L14.7214 26.8491L15.2836 27.1737L15.4672 26.8558ZM15.1919 26.2318V27.0147H15.5589V26.2318H15.1919ZM15.9998 25.4239C15.5536 25.4239 15.1919 25.7856 15.1919 26.2318H15.5589C15.5589 25.9883 15.7563 25.791 15.9998 25.791V25.4239Z" fill="#85CFFF" fill-opacity="0.2" mask="url(#path-7-inside-2_3200_10872)"/>
<path d="M24.6631 26.4922L22.4424 29.4678" stroke="url(#paint4_linear_3200_10872)" stroke-width="1.53162" stroke-linecap="round"/>
<defs>
<filter id="filter0_d_3200_10872" x="-1.72458" y="4.92862" width="25.6" height="21.1689" filterUnits="userSpaceOnUse" color-interpolation-filters="sRGB">
<feFlood flood-opacity="0" result="BackgroundImageFix"/>
<feColorMatrix in="SourceAlpha" type="matrix" values="0 0 0 0 0 0 0 0 0 0 0 0 0 0 0 0 0 0 127 0" result="hardAlpha"/>
<feOffset dy="-0.492306"/>
<feGaussianBlur stdDeviation="1.96922"/>
<feComposite in2="hardAlpha" operator="out"/>
<feColorMatrix type="matrix" values="0 0 0 0 0.414632 0 0 0 0 0.765853 0 0 0 0 1 0 0 0 0.55 0"/>
<feBlend mode="normal" in2="BackgroundImageFix" result="effect1_dropShadow_3200_10872"/>
<feBlend mode="normal" in="SourceGraphic" in2="effect1_dropShadow_3200_10872" result="shape"/>
</filter>
<linearGradient id="paint0_linear_3200_10872" x1="17.2303" y1="2.22199" x2="23.384" y2="17.7296" gradientUnits="userSpaceOnUse">
<stop stop-color="#F0F9FF"/>
<stop offset="0.545228" stop-color="#E5F5FF"/>
<stop offset="1" stop-color="#BAE4FF"/>
</linearGradient>
<linearGradient id="paint1_linear_3200_10872" x1="9.10615" y1="9.60553" x2="12.5523" y2="21.1747" gradientUnits="userSpaceOnUse">
<stop stop-color="#E5F5FF"/>
<stop offset="1" stop-color="#BAE4FF"/>
</linearGradient>
<linearGradient id="paint2_linear_3200_10872" x1="9.06008" y1="25.2674" x2="7.83478" y2="30.4749" gradientUnits="userSpaceOnUse">
<stop stop-color="#7CBEFB"/>
<stop offset="1" stop-color="#54A5F0"/>
</linearGradient>
<linearGradient id="paint3_linear_3200_10872" x1="15.9999" y1="25.6074" x2="15.9999" y2="30.3529" gradientUnits="userSpaceOnUse">
<stop stop-color="#CFEBFD"/>
<stop offset="1" stop-color="#81C2FF"/>
</linearGradient>
<linearGradient id="paint4_linear_3200_10872" x1="24.1655" y1="25.2674" x2="22.9402" y2="30.4749" gradientUnits="userSpaceOnUse">
<stop stop-color="#7CBEFB"/>
<stop offset="1" stop-color="#54A5F0"/>
</linearGradient>
</defs>
</svg>
