<svg width="32" height="33" viewBox="0 0 32 33" fill="none" xmlns="http://www.w3.org/2000/svg">
<mask id="mask0_3200_10877" style="mask-type:alpha" maskUnits="userSpaceOnUse" x="2" y="2" width="28" height="21">
<path fill-rule="evenodd" clip-rule="evenodd" d="M19.9384 22.6536C25.3763 22.6536 29.7846 18.2453 29.7846 12.8075C29.7846 7.36966 25.3763 2.96143 19.9384 2.96143C15.6243 2.96143 11.9582 5.73599 10.6272 9.59804C10.0649 9.44349 9.47287 9.36095 8.86151 9.36095C5.19093 9.36095 2.21533 12.3365 2.21533 16.007C2.21533 19.6776 5.19093 22.6531 8.86151 22.6531H19.8453C19.8763 22.6534 19.9073 22.6536 19.9384 22.6536Z" fill="#D9D9D9"/>
</mask>
<g mask="url(#mask0_3200_10877)">
<ellipse cx="19.9379" cy="12.8065" rx="9.84615" ry="9.84608" fill="url(#paint0_linear_3200_10877)"/>
<g filter="url(#filter0_d_3200_10877)">
<path fill-rule="evenodd" clip-rule="evenodd" d="M15.5013 16.2634C15.5045 16.1778 15.5062 16.0918 15.5062 16.0055C15.5062 12.3349 12.5306 9.35938 8.86002 9.35938C5.18945 9.35938 2.21387 12.3349 2.21387 16.0055C2.21387 19.676 5.18945 22.6516 8.86002 22.6516C8.86003 22.6516 8.86004 22.6516 8.86005 22.6516L8.86002 22.6516H19.9369C17.2328 21.4225 15.5058 19.2113 15.5013 16.2634Z" fill="url(#paint1_linear_3200_10877)"/>
</g>
<g opacity="0.3">
<mask id="path-4-inside-1_3200_10877" fill="white">
<path fill-rule="evenodd" clip-rule="evenodd" d="M19.938 22.6521C25.3759 22.6521 29.7842 18.2439 29.7842 12.806C29.7842 7.3682 25.3759 2.95996 19.938 2.95996C15.6239 2.95996 11.9578 5.73454 10.6268 9.5966C10.0645 9.44204 9.47241 9.35948 8.86102 9.35948C5.19044 9.35948 2.21484 12.335 2.21484 16.0056C2.21484 19.6761 5.19044 22.6517 8.86102 22.6517H19.8449C19.8759 22.652 19.907 22.6521 19.938 22.6521Z"/>
</mask>
<path d="M10.6268 9.5966L10.4963 10.0713L10.9417 10.1937L11.0923 9.75701L10.6268 9.5966ZM19.8449 22.6517L19.8495 22.1594H19.8449V22.6517ZM29.2919 12.806C29.2919 17.972 25.104 22.1598 19.938 22.1598V23.1444C25.6478 23.1444 30.2765 18.5158 30.2765 12.806H29.2919ZM19.938 3.45227C25.104 3.45227 29.2919 7.6401 29.2919 12.806H30.2765C30.2765 7.0963 25.6478 2.46766 19.938 2.46766V3.45227ZM11.0923 9.75701C12.3569 6.08743 15.8403 3.45227 19.938 3.45227V2.46766C15.4074 2.46766 11.5587 5.38165 10.1614 9.4362L11.0923 9.75701ZM10.7573 9.12191C10.1529 8.95576 9.51691 8.86717 8.86102 8.86717V9.85179C9.42791 9.85179 9.97614 9.92831 10.4963 10.0713L10.7573 9.12191ZM8.86102 8.86717C4.91855 8.86717 1.72254 12.0631 1.72254 16.0056H2.70715C2.70715 12.6069 5.46233 9.85179 8.86102 9.85179V8.86717ZM1.72254 16.0056C1.72254 19.948 4.91855 23.144 8.86102 23.144V22.1594C5.46233 22.1594 2.70715 19.4042 2.70715 16.0056H1.72254ZM8.86102 23.144H19.8449V22.1594H8.86102V23.144ZM19.938 22.1598C19.9085 22.1598 19.879 22.1597 19.8495 22.1594L19.8404 23.144C19.8729 23.1443 19.9055 23.1444 19.938 23.1444V22.1598Z" fill="#ACDFFF" mask="url(#path-4-inside-1_3200_10877)"/>
</g>
</g>
<mask id="path-6-inside-2_3200_10877" fill="white">
<path fill-rule="evenodd" clip-rule="evenodd" d="M11.702 26.3296C12.0468 26.3296 12.3264 26.6091 12.3264 26.954V27.737L12.8888 27.4122C13.1875 27.2398 13.5694 27.3421 13.7418 27.6408C13.9142 27.9394 13.8119 28.3213 13.5133 28.4937L12.9508 28.8184L13.5435 29.1606C13.8422 29.3331 13.9445 29.7149 13.7721 30.0136C13.5996 30.3122 13.2178 30.4146 12.9191 30.2421L12.3264 29.8999V30.4507C12.3264 30.7955 12.0468 31.0751 11.702 31.0751C11.3571 31.0751 11.0776 30.7955 11.0776 30.4507V29.9L10.4851 30.242C10.1864 30.4145 9.80452 30.3121 9.6321 30.0135C9.45967 29.7149 9.562 29.333 9.86065 29.1605L10.4532 28.8184L9.89091 28.4938C9.59226 28.3214 9.48994 27.9395 9.66236 27.6409C9.83479 27.3422 10.2167 27.2399 10.5153 27.4123L11.0776 27.7369V26.954C11.0776 26.6091 11.3571 26.3296 11.702 26.3296Z"/>
</mask>
<path fill-rule="evenodd" clip-rule="evenodd" d="M11.702 26.3296C12.0468 26.3296 12.3264 26.6091 12.3264 26.954V27.737L12.8888 27.4122C13.1875 27.2398 13.5694 27.3421 13.7418 27.6408C13.9142 27.9394 13.8119 28.3213 13.5133 28.4937L12.9508 28.8184L13.5435 29.1606C13.8422 29.3331 13.9445 29.7149 13.7721 30.0136C13.5996 30.3122 13.2178 30.4146 12.9191 30.2421L12.3264 29.8999V30.4507C12.3264 30.7955 12.0468 31.0751 11.702 31.0751C11.3571 31.0751 11.0776 30.7955 11.0776 30.4507V29.9L10.4851 30.242C10.1864 30.4145 9.80452 30.3121 9.6321 30.0135C9.45967 29.7149 9.562 29.333 9.86065 29.1605L10.4532 28.8184L9.89091 28.4938C9.59226 28.3214 9.48994 27.9395 9.66236 27.6409C9.83479 27.3422 10.2167 27.2399 10.5153 27.4123L11.0776 27.7369V26.954C11.0776 26.6091 11.3571 26.3296 11.702 26.3296Z" fill="url(#paint2_linear_3200_10877)"/>
<path d="M12.3264 27.737H12.1428V28.0549L12.4181 27.8959L12.3264 27.737ZM12.8888 27.4122L12.9806 27.5712L12.8888 27.4122ZM13.7418 27.6408L13.5829 27.7325V27.7325L13.7418 27.6408ZM13.5133 28.4937L13.605 28.6527L13.5133 28.4937ZM12.9508 28.8184L12.859 28.6595L12.5837 28.8184L12.859 28.9774L12.9508 28.8184ZM13.5435 29.1606L13.4518 29.3196L13.5435 29.1606ZM13.7721 30.0136L13.931 30.1054V30.1054L13.7721 30.0136ZM12.9191 30.2421L13.0109 30.0832L12.9191 30.2421ZM12.3264 29.8999L12.4181 29.741L12.1428 29.582V29.8999H12.3264ZM11.0776 29.9H11.2611V29.5821L10.9858 29.741L11.0776 29.9ZM10.4851 30.242L10.5768 30.401L10.4851 30.242ZM9.6321 30.0135L9.47315 30.1053H9.47315L9.6321 30.0135ZM9.86065 29.1605L9.95241 29.3195L9.86065 29.1605ZM10.4532 28.8184L10.545 28.9774L10.8203 28.8184L10.545 28.6595L10.4532 28.8184ZM9.89091 28.4938L9.79915 28.6528H9.79915L9.89091 28.4938ZM9.66236 27.6409L9.82131 27.7326L9.66236 27.6409ZM10.5153 27.4123L10.4236 27.5712H10.4236L10.5153 27.4123ZM11.0776 27.7369L10.9858 27.8959L11.2611 28.0548V27.7369H11.0776ZM12.5099 26.954C12.5099 26.5078 12.1482 26.1461 11.702 26.1461V26.5131C11.9455 26.5131 12.1428 26.7105 12.1428 26.954H12.5099ZM12.5099 27.737V26.954H12.1428V27.737H12.5099ZM12.7971 27.2533L12.2346 27.578L12.4181 27.8959L12.9806 27.5712L12.7971 27.2533ZM13.9007 27.549C13.6776 27.1626 13.1835 27.0302 12.7971 27.2533L12.9806 27.5712C13.1915 27.4494 13.4611 27.5217 13.5829 27.7325L13.9007 27.549ZM13.605 28.6527C13.9914 28.4296 14.1239 27.9354 13.9007 27.549L13.5829 27.7325C13.7046 27.9434 13.6324 28.213 13.4215 28.3348L13.605 28.6527ZM13.0426 28.9774L13.605 28.6527L13.4215 28.3348L12.859 28.6595L13.0426 28.9774ZM13.6353 29.0017L13.0426 28.6595L12.859 28.9774L13.4518 29.3196L13.6353 29.0017ZM13.931 30.1054C14.1541 29.7189 14.0217 29.2248 13.6353 29.0017L13.4518 29.3196C13.6626 29.4413 13.7349 29.711 13.6131 29.9218L13.931 30.1054ZM12.8273 30.4011C13.2138 30.6242 13.7079 30.4918 13.931 30.1054L13.6131 29.9218C13.4914 30.1327 13.2217 30.2049 13.0109 30.0832L12.8273 30.4011ZM12.2346 30.0589L12.8273 30.4011L13.0109 30.0832L12.4181 29.741L12.2346 30.0589ZM12.5099 30.4507V29.8999H12.1428V30.4507H12.5099ZM11.702 31.2586C12.1482 31.2586 12.5099 30.8969 12.5099 30.4507H12.1428C12.1428 30.6941 11.9455 30.8915 11.702 30.8915V31.2586ZM10.894 30.4507C10.894 30.8969 11.2558 31.2586 11.702 31.2586V30.8915C11.4585 30.8915 11.2611 30.6941 11.2611 30.4507H10.894ZM10.894 29.9V30.4507H11.2611V29.9H10.894ZM10.5768 30.401L11.1693 30.0589L10.9858 29.741L10.3933 30.0831L10.5768 30.401ZM9.47315 30.1053C9.69626 30.4917 10.1904 30.6241 10.5768 30.401L10.3933 30.0831C10.1824 30.2048 9.91279 30.1326 9.79104 29.9217L9.47315 30.1053ZM9.76888 29.0016C9.38245 29.2247 9.25005 29.7188 9.47315 30.1053L9.79104 29.9217C9.6693 29.7109 9.74155 29.4412 9.95241 29.3195L9.76888 29.0016ZM10.3614 28.6595L9.76888 29.0016L9.95241 29.3195L10.545 28.9774L10.3614 28.6595ZM9.79915 28.6528L10.3614 28.9774L10.545 28.6595L9.98268 28.3349L9.79915 28.6528ZM9.50342 27.5491C9.28031 27.9355 9.41272 28.4296 9.79915 28.6528L9.98268 28.3349C9.77181 28.2131 9.69957 27.9435 9.82131 27.7326L9.50342 27.5491ZM10.6071 27.2534C10.2207 27.0303 9.72653 27.1627 9.50342 27.5491L9.82131 27.7326C9.94305 27.5218 10.2127 27.4495 10.4236 27.5712L10.6071 27.2534ZM11.1693 27.578L10.6071 27.2534L10.4236 27.5712L10.9858 27.8959L11.1693 27.578ZM10.894 26.954V27.7369H11.2611V26.954H10.894ZM11.702 26.1461C11.2558 26.1461 10.894 26.5078 10.894 26.954H11.2611C11.2611 26.7105 11.4585 26.5131 11.702 26.5131V26.1461Z" fill="#85CFFF" fill-opacity="0.2" mask="url(#path-6-inside-2_3200_10877)"/>
<mask id="path-8-inside-3_3200_10877" fill="white">
<path fill-rule="evenodd" clip-rule="evenodd" d="M20.2982 26.3296C20.643 26.3296 20.9226 26.6091 20.9226 26.954V27.737L21.485 27.4122C21.7837 27.2398 22.1656 27.3421 22.338 27.6408C22.5104 27.9394 22.4081 28.3213 22.1094 28.4937L21.547 28.8184L22.1397 29.1606C22.4384 29.3331 22.5407 29.7149 22.3683 30.0136C22.1958 30.3122 21.814 30.4146 21.5153 30.2421L20.9226 29.8999V30.4507C20.9226 30.7955 20.643 31.0751 20.2982 31.0751C19.9533 31.0751 19.6738 30.7955 19.6738 30.4507V29.9L19.0812 30.242C18.7826 30.4145 18.4007 30.3121 18.2283 30.0135C18.0559 29.7149 18.1582 29.333 18.4568 29.1605L19.0494 28.8184L18.4871 28.4938C18.1885 28.3214 18.0861 27.9395 18.2586 27.6409C18.431 27.3422 18.8129 27.2399 19.1115 27.4123L19.6738 27.7369V26.954C19.6738 26.6091 19.9533 26.3296 20.2982 26.3296Z"/>
</mask>
<path fill-rule="evenodd" clip-rule="evenodd" d="M20.2982 26.3296C20.643 26.3296 20.9226 26.6091 20.9226 26.954V27.737L21.485 27.4122C21.7837 27.2398 22.1656 27.3421 22.338 27.6408C22.5104 27.9394 22.4081 28.3213 22.1094 28.4937L21.547 28.8184L22.1397 29.1606C22.4384 29.3331 22.5407 29.7149 22.3683 30.0136C22.1958 30.3122 21.814 30.4146 21.5153 30.2421L20.9226 29.8999V30.4507C20.9226 30.7955 20.643 31.0751 20.2982 31.0751C19.9533 31.0751 19.6738 30.7955 19.6738 30.4507V29.9L19.0812 30.242C18.7826 30.4145 18.4007 30.3121 18.2283 30.0135C18.0559 29.7149 18.1582 29.333 18.4568 29.1605L19.0494 28.8184L18.4871 28.4938C18.1885 28.3214 18.0861 27.9395 18.2586 27.6409C18.431 27.3422 18.8129 27.2399 19.1115 27.4123L19.6738 27.7369V26.954C19.6738 26.6091 19.9533 26.3296 20.2982 26.3296Z" fill="url(#paint3_linear_3200_10877)"/>
<path d="M20.9226 27.737H20.739V28.0549L21.0143 27.8959L20.9226 27.737ZM21.485 27.4122L21.5768 27.5712L21.485 27.4122ZM22.338 27.6408L22.179 27.7325V27.7325L22.338 27.6408ZM22.1094 28.4937L22.2012 28.6527L22.1094 28.4937ZM21.547 28.8184L21.4552 28.6595L21.1799 28.8184L21.4552 28.9774L21.547 28.8184ZM22.1397 29.1606L22.2315 29.0017L22.1397 29.1606ZM22.3683 30.0136L22.5272 30.1054V30.1054L22.3683 30.0136ZM21.5153 30.2421L21.4235 30.4011L21.5153 30.2421ZM20.9226 29.8999L21.0143 29.741L20.739 29.582V29.8999H20.9226ZM19.6738 29.9H19.8573V29.5821L19.582 29.741L19.6738 29.9ZM19.0812 30.242L19.173 30.401L19.0812 30.242ZM18.2283 30.0135L18.0693 30.1053H18.0693L18.2283 30.0135ZM18.4568 29.1605L18.5486 29.3195L18.4568 29.1605ZM19.0494 28.8184L19.1412 28.9774L19.4165 28.8184L19.1412 28.6595L19.0494 28.8184ZM18.4871 28.4938L18.3953 28.6528H18.3953L18.4871 28.4938ZM18.2586 27.6409L18.4175 27.7326L18.2586 27.6409ZM19.1115 27.4123L19.0197 27.5712L19.1115 27.4123ZM19.6738 27.7369L19.582 27.8959L19.8573 28.0548V27.7369H19.6738ZM21.1061 26.954C21.1061 26.5078 20.7444 26.1461 20.2982 26.1461V26.5131C20.5416 26.5131 20.739 26.7105 20.739 26.954H21.1061ZM21.1061 27.737V26.954H20.739V27.737H21.1061ZM21.3933 27.2533L20.8308 27.578L21.0143 27.8959L21.5768 27.5712L21.3933 27.2533ZM22.4969 27.549C22.2738 27.1626 21.7797 27.0302 21.3933 27.2533L21.5768 27.5712C21.7877 27.4494 22.0573 27.5217 22.179 27.7325L22.4969 27.549ZM22.2012 28.6527C22.5876 28.4296 22.72 27.9354 22.4969 27.549L22.179 27.7325C22.3008 27.9434 22.2285 28.213 22.0177 28.3348L22.2012 28.6527ZM21.6388 28.9774L22.2012 28.6527L22.0177 28.3348L21.4552 28.6595L21.6388 28.9774ZM22.2315 29.0017L21.6388 28.6595L21.4552 28.9774L22.0479 29.3196L22.2315 29.0017ZM22.5272 30.1054C22.7503 29.7189 22.6179 29.2248 22.2315 29.0017L22.0479 29.3196C22.2588 29.4413 22.3311 29.711 22.2093 29.9218L22.5272 30.1054ZM21.4235 30.4011C21.81 30.6242 22.3041 30.4918 22.5272 30.1054L22.2093 29.9218C22.0876 30.1327 21.8179 30.2049 21.6071 30.0832L21.4235 30.4011ZM20.8308 30.0589L21.4235 30.4011L21.6071 30.0832L21.0143 29.741L20.8308 30.0589ZM21.1061 30.4507V29.8999H20.739V30.4507H21.1061ZM20.2982 31.2586C20.7444 31.2586 21.1061 30.8969 21.1061 30.4507H20.739C20.739 30.6941 20.5416 30.8915 20.2982 30.8915V31.2586ZM19.4902 30.4507C19.4902 30.8969 19.8519 31.2586 20.2982 31.2586V30.8915C20.0547 30.8915 19.8573 30.6941 19.8573 30.4507H19.4902ZM19.4902 29.9V30.4507H19.8573V29.9H19.4902ZM19.173 30.401L19.7655 30.0589L19.582 29.741L18.9895 30.0831L19.173 30.401ZM18.0693 30.1053C18.2925 30.4917 18.7866 30.6241 19.173 30.401L18.9895 30.0831C18.7786 30.2048 18.509 30.1326 18.3872 29.9217L18.0693 30.1053ZM18.3651 29.0016C17.9786 29.2247 17.8462 29.7188 18.0693 30.1053L18.3872 29.9217C18.2655 29.7109 18.3377 29.4412 18.5486 29.3195L18.3651 29.0016ZM18.9576 28.6595L18.3651 29.0016L18.5486 29.3195L19.1412 28.9774L18.9576 28.6595ZM18.3953 28.6528L18.9576 28.9774L19.1412 28.6595L18.5789 28.3349L18.3953 28.6528ZM18.0996 27.5491C17.8765 27.9355 18.0089 28.4296 18.3953 28.6528L18.5789 28.3349C18.368 28.2131 18.2958 27.9435 18.4175 27.7326L18.0996 27.5491ZM19.2033 27.2534C18.8168 27.0303 18.3227 27.1627 18.0996 27.5491L18.4175 27.7326C18.5392 27.5218 18.8089 27.4495 19.0197 27.5712L19.2033 27.2534ZM19.7655 27.578L19.2033 27.2534L19.0197 27.5712L19.582 27.8959L19.7655 27.578ZM19.4902 26.954V27.7369H19.8573V26.954H19.4902ZM20.2982 26.1461C19.8519 26.1461 19.4902 26.5078 19.4902 26.954H19.8573C19.8573 26.7105 20.0547 26.5131 20.2982 26.5131V26.1461Z" fill="#85CFFF" fill-opacity="0.2" mask="url(#path-8-inside-3_3200_10877)"/>
<defs>
<filter id="filter0_d_3200_10877" x="-1.72458" y="4.92862" width="25.6" height="21.1689" filterUnits="userSpaceOnUse" color-interpolation-filters="sRGB">
<feFlood flood-opacity="0" result="BackgroundImageFix"/>
<feColorMatrix in="SourceAlpha" type="matrix" values="0 0 0 0 0 0 0 0 0 0 0 0 0 0 0 0 0 0 127 0" result="hardAlpha"/>
<feOffset dy="-0.492306"/>
<feGaussianBlur stdDeviation="1.96922"/>
<feComposite in2="hardAlpha" operator="out"/>
<feColorMatrix type="matrix" values="0 0 0 0 0.414632 0 0 0 0 0.765853 0 0 0 0 1 0 0 0 0.55 0"/>
<feBlend mode="normal" in2="BackgroundImageFix" result="effect1_dropShadow_3200_10877"/>
<feBlend mode="normal" in="SourceGraphic" in2="effect1_dropShadow_3200_10877" result="shape"/>
</filter>
<linearGradient id="paint0_linear_3200_10877" x1="17.2303" y1="2.22199" x2="23.384" y2="17.7296" gradientUnits="userSpaceOnUse">
<stop stop-color="#F0F9FF"/>
<stop offset="0.545228" stop-color="#E5F5FF"/>
<stop offset="1" stop-color="#BAE4FF"/>
</linearGradient>
<linearGradient id="paint1_linear_3200_10877" x1="9.10615" y1="9.60553" x2="12.5523" y2="21.1747" gradientUnits="userSpaceOnUse">
<stop stop-color="#E5F5FF"/>
<stop offset="1" stop-color="#BAE4FF"/>
</linearGradient>
<linearGradient id="paint2_linear_3200_10877" x1="11.7021" y1="26.3296" x2="11.7021" y2="31.0751" gradientUnits="userSpaceOnUse">
<stop stop-color="#CFEBFD"/>
<stop offset="1" stop-color="#81C2FF"/>
</linearGradient>
<linearGradient id="paint3_linear_3200_10877" x1="20.2983" y1="26.3296" x2="20.2983" y2="31.0751" gradientUnits="userSpaceOnUse">
<stop stop-color="#CFEBFD"/>
<stop offset="1" stop-color="#81C2FF"/>
</linearGradient>
</defs>
</svg>
