<svg width="32" height="33" viewBox="0 0 32 33" fill="none" xmlns="http://www.w3.org/2000/svg">
<path fill-rule="evenodd" clip-rule="evenodd" d="M27.6377 20.8732C26.0405 21.4758 24.2787 21.7127 22.4668 21.4936C16.4653 20.7677 12.1885 15.3138 12.9144 9.31233C13.1336 7.50049 13.7838 5.84577 14.7497 4.43848C9.49458 5.1947 5.18701 9.38961 4.519 14.9123C3.72047 21.5142 8.42485 27.5132 15.0267 28.3117C20.5496 28.9797 25.6504 25.7965 27.6377 20.8732Z" fill="url(#paint0_linear_3200_10883)"/>
<g style="mix-blend-mode:hard-light">
<path d="M14.2373 4.77539C13.4773 6.01339 12.9479 7.41845 12.7168 8.9375L12.6699 9.2832C11.9511 15.2277 16.0326 20.6466 21.8672 21.6543L22.4375 21.7383C24.0893 21.938 25.7006 21.7655 27.1885 21.2891C25.1723 25.6735 20.5838 28.5104 15.5625 28.1182L15.0566 28.0674C8.6907 27.2974 4.12521 21.5909 4.73047 15.2441L4.76367 14.9424C5.39462 9.72604 9.34046 5.71914 14.2373 4.77539Z" stroke="white" stroke-opacity="0.07" stroke-width="0.492308"/>
</g>
<g opacity="0.93">
<mask id="mask0_3200_10883" style="mask-type:alpha" maskUnits="userSpaceOnUse" x="6" y="13" width="25" height="18">
<path fill-rule="evenodd" clip-rule="evenodd" d="M22.0828 30.6727C26.7438 30.6727 30.5224 26.8941 30.5224 22.2331C30.5224 17.572 26.7438 13.7935 22.0828 13.7935C18.3848 13.7935 15.2424 16.1718 14.1016 19.4822C13.6197 19.3498 13.1123 19.279 12.5884 19.279C9.44213 19.279 6.8916 21.8295 6.8916 24.9758C6.8916 28.122 9.44213 30.6725 12.5884 30.6725H22.029C22.0469 30.6726 22.0648 30.6727 22.0828 30.6727Z" fill="#D9D9D9"/>
</mask>
<g mask="url(#mask0_3200_10883)">
<circle cx="22.0827" cy="22.2331" r="8.43961" fill="url(#paint1_linear_3200_10883)"/>
<g filter="url(#filter0_d_3200_10883)">
<path fill-rule="evenodd" clip-rule="evenodd" d="M18.2807 25.2019C18.2836 25.127 18.2851 25.0517 18.2851 24.976C18.2851 21.8298 15.7346 19.2793 12.5883 19.2793C9.44212 19.2793 6.8916 21.8298 6.8916 24.976C6.8916 28.1222 9.44201 30.6727 12.5881 30.6728C12.5882 30.6728 12.5883 30.6728 12.5883 30.6728H22.0826C19.7664 29.6199 18.2865 27.7263 18.2807 25.2019Z" fill="url(#paint2_linear_3200_10883)"/>
</g>
<g opacity="0.3">
<mask id="path-6-inside-1_3200_10883" fill="white">
<path fill-rule="evenodd" clip-rule="evenodd" d="M22.0823 30.6717C26.7433 30.6717 30.5219 26.8932 30.5219 22.2321C30.5219 17.571 26.7433 13.7925 22.0823 13.7925C18.3844 13.7925 15.2419 16.1708 14.1011 19.4812C13.6193 19.3488 13.1118 19.2781 12.5879 19.2781C9.44164 19.2781 6.89111 21.8286 6.89111 24.9748C6.89111 28.121 9.44164 30.6715 12.5879 30.6715H22.0285C22.0464 30.6716 22.0643 30.6717 22.0823 30.6717Z"/>
</mask>
<path d="M14.1011 19.4812L13.9893 19.8881L14.3711 19.9931L14.5001 19.6187L14.1011 19.4812ZM22.0285 30.6715L22.0311 30.2495H22.0285V30.6715ZM30.0999 22.2321C30.0999 26.6601 26.5103 30.2497 22.0823 30.2497V31.0937C26.9764 31.0937 30.9439 27.1262 30.9439 22.2321H30.0999ZM22.0823 14.2145C26.5103 14.2145 30.0999 17.8041 30.0999 22.2321H30.9439C30.9439 17.338 26.9764 13.3705 22.0823 13.3705V14.2145ZM14.5001 19.6187C15.584 16.4733 18.5699 14.2145 22.0823 14.2145V13.3705C18.1988 13.3705 14.8998 15.8683 13.7022 19.3438L14.5001 19.6187ZM14.213 19.0743C13.695 18.932 13.15 18.8561 12.5879 18.8561V19.7C13.0737 19.7 13.5435 19.7656 13.9893 19.8881L14.213 19.0743ZM12.5879 18.8561C9.20859 18.8561 6.46913 21.5955 6.46913 24.9748H7.31309C7.31309 22.0616 9.67469 19.7 12.5879 19.7V18.8561ZM6.46913 24.9748C6.46913 28.3541 9.20859 31.0935 12.5879 31.0935V30.2495C9.67469 30.2495 7.31309 27.888 7.31309 24.9748H6.46913ZM12.5879 31.0935H22.0285V30.2495H12.5879V31.0935ZM22.0823 30.2497C22.0652 30.2497 22.0482 30.2497 22.0311 30.2496L22.0258 31.0935C22.0447 31.0936 22.0635 31.0937 22.0823 31.0937V30.2497Z" fill="#ACDFFF" mask="url(#path-6-inside-1_3200_10883)"/>
</g>
</g>
</g>
<path d="M20.9979 7.41309L21.2002 6.90039L21.4025 7.41309C21.6343 8.00105 22.0998 8.46648 22.6875 8.69813L23.2002 8.90039L22.6875 9.10265C22.0995 9.33454 21.6341 9.79997 21.4025 10.3877L21.2002 10.9004L20.9979 10.3877C20.766 9.79973 20.3006 9.3343 19.7129 9.10265L19.2002 8.90039L19.7129 8.69813C20.3009 8.46624 20.7663 8.00081 20.9979 7.41309Z" fill="url(#paint3_linear_3200_10883)"/>
<path d="M21.3799 7.42188C21.585 7.9419 21.9707 8.36703 22.4619 8.62207L22.6787 8.7207L23.1338 8.90039L22.6787 9.08008C22.1587 9.28518 21.7336 9.67086 21.4785 10.1621L21.3799 10.3789L21.2002 10.834L21.0205 10.3789C20.8154 9.85888 20.4297 9.43375 19.9385 9.17871L19.7217 9.08008L19.2656 8.90039L19.7217 8.7207C20.2417 8.5156 20.6668 8.12993 20.9219 7.63867L21.0205 7.42188L21.2002 6.96582L21.3799 7.42188Z" stroke="white" stroke-opacity="0.2" stroke-width="0.0492308"/>
<defs>
<filter id="filter0_d_3200_10883" x="3.51576" y="15.4815" width="21.9426" height="18.1452" filterUnits="userSpaceOnUse" color-interpolation-filters="sRGB">
<feFlood flood-opacity="0" result="BackgroundImageFix"/>
<feColorMatrix in="SourceAlpha" type="matrix" values="0 0 0 0 0 0 0 0 0 0 0 0 0 0 0 0 0 0 127 0" result="hardAlpha"/>
<feOffset dy="-0.42198"/>
<feGaussianBlur stdDeviation="1.68792"/>
<feComposite in2="hardAlpha" operator="out"/>
<feColorMatrix type="matrix" values="0 0 0 0 0.414632 0 0 0 0 0.765853 0 0 0 0 1 0 0 0 0.55 0"/>
<feBlend mode="normal" in2="BackgroundImageFix" result="effect1_dropShadow_3200_10883"/>
<feBlend mode="normal" in="SourceGraphic" in2="effect1_dropShadow_3200_10883" result="shape"/>
</filter>
<linearGradient id="paint0_linear_3200_10883" x1="15.7537" y1="4.43848" x2="23.3845" y2="27.8231" gradientUnits="userSpaceOnUse">
<stop stop-color="#CBCBFF"/>
<stop offset="0.480926" stop-color="#8081F2"/>
<stop offset="1" stop-color="#6465CA"/>
</linearGradient>
<linearGradient id="paint1_linear_3200_10883" x1="19.7618" y1="13.1605" x2="25.0365" y2="26.4529" gradientUnits="userSpaceOnUse">
<stop stop-color="#F0F9FF"/>
<stop offset="0.545228" stop-color="#E5F5FF"/>
<stop offset="1" stop-color="#BAE4FF"/>
</linearGradient>
<linearGradient id="paint2_linear_3200_10883" x1="12.7992" y1="19.4903" x2="15.7531" y2="29.4068" gradientUnits="userSpaceOnUse">
<stop stop-color="#E5F5FF"/>
<stop offset="1" stop-color="#BAE4FF"/>
</linearGradient>
<linearGradient id="paint3_linear_3200_10883" x1="21.2002" y1="6.90039" x2="21.8669" y2="10.9004" gradientUnits="userSpaceOnUse">
<stop stop-color="#FFF490"/>
<stop offset="1" stop-color="#FFD990"/>
</linearGradient>
</defs>
</svg>
