<svg width="32" height="33" viewBox="0 0 32 33" fill="none" xmlns="http://www.w3.org/2000/svg">
<rect x="5.37842" y="7.39209" width="12.5277" height="2.7234" rx="1.3617" fill="url(#paint0_linear_3200_10880)"/>
<rect x="5.48735" y="7.50103" width="12.3098" height="2.50553" rx="1.25277" stroke="white" stroke-opacity="0.1" stroke-width="0.217872"/>
<rect x="8.64648" y="12.2944" width="20.1532" height="3.26809" rx="1.63404" fill="url(#paint1_linear_3200_10880)"/>
<rect x="8.75542" y="12.4034" width="19.9353" height="3.05021" rx="1.52511" stroke="white" stroke-opacity="0.1" stroke-width="0.217872"/>
<rect x="3.19971" y="17.7412" width="6.53617" height="2.7234" rx="1.3617" fill="url(#paint2_linear_3200_10880)"/>
<rect x="3.30864" y="17.8501" width="6.3183" height="2.50553" rx="1.25277" stroke="white" stroke-opacity="0.1" stroke-width="0.217872"/>
<rect x="11.3701" y="17.7412" width="12.5277" height="2.7234" rx="1.3617" fill="url(#paint3_linear_3200_10880)"/>
<rect x="11.4791" y="17.8501" width="12.3098" height="2.50553" rx="1.25277" stroke="white" stroke-opacity="0.1" stroke-width="0.217872"/>
<rect x="6.46777" y="22.6431" width="20.1532" height="3.26809" rx="1.63404" fill="url(#paint4_linear_3200_10880)"/>
<rect x="6.57671" y="22.752" width="19.9353" height="3.05021" rx="1.52511" stroke="white" stroke-opacity="0.1" stroke-width="0.217872"/>
<rect x="19.54" y="7.39209" width="4.90213" height="2.7234" rx="1.3617" fill="url(#paint5_linear_3200_10880)"/>
<rect x="19.649" y="7.50103" width="4.68426" height="2.50553" rx="1.25277" stroke="white" stroke-opacity="0.1" stroke-width="0.217872"/>
<defs>
<linearGradient id="paint0_linear_3200_10880" x1="8.4437" y1="7.27194" x2="9.32193" y2="10.5929" gradientUnits="userSpaceOnUse">
<stop stop-color="#D1BA85"/>
<stop offset="1" stop-color="#937E4E"/>
</linearGradient>
<linearGradient id="paint1_linear_3200_10880" x1="13.5776" y1="12.1503" x2="14.3872" y2="16.2544" gradientUnits="userSpaceOnUse">
<stop stop-color="#D1BA85"/>
<stop offset="1" stop-color="#937E4E"/>
</linearGradient>
<linearGradient id="paint2_linear_3200_10880" x1="4.79898" y1="17.6211" x2="6.23187" y2="20.448" gradientUnits="userSpaceOnUse">
<stop stop-color="#D1BA85"/>
<stop offset="1" stop-color="#937E4E"/>
</linearGradient>
<linearGradient id="paint3_linear_3200_10880" x1="14.4354" y1="17.6211" x2="15.3136" y2="20.9421" gradientUnits="userSpaceOnUse">
<stop stop-color="#D1BA85"/>
<stop offset="1" stop-color="#937E4E"/>
</linearGradient>
<linearGradient id="paint4_linear_3200_10880" x1="11.3989" y1="22.4989" x2="12.2085" y2="26.6031" gradientUnits="userSpaceOnUse">
<stop stop-color="#D1BA85"/>
<stop offset="1" stop-color="#937E4E"/>
</linearGradient>
<linearGradient id="paint5_linear_3200_10880" x1="20.7395" y1="7.27194" x2="22.3879" y2="9.71113" gradientUnits="userSpaceOnUse">
<stop stop-color="#D1BA85"/>
<stop offset="1" stop-color="#937E4E"/>
</linearGradient>
</defs>
</svg>
