<svg width="32" height="33" viewBox="0 0 32 33" fill="none" xmlns="http://www.w3.org/2000/svg">
<g clip-path="url(#clip0_3200_10876)">
<mask id="mask0_3200_10876" style="mask-type:alpha" maskUnits="userSpaceOnUse" x="1" y="0" width="29" height="21">
<path fill-rule="evenodd" clip-rule="evenodd" d="M19.6923 20.6843C25.1302 20.6843 29.5385 16.2761 29.5385 10.8383C29.5385 5.40043 25.1302 0.992188 19.6923 0.992188C15.3782 0.992188 11.7121 3.76673 10.3811 7.62875C9.81886 7.4742 9.22678 7.39165 8.61542 7.39165C4.94483 7.39165 1.96924 10.3672 1.96924 14.0377C1.96924 17.7083 4.94483 20.6838 8.61542 20.6838H19.593C19.6261 20.6842 19.6592 20.6843 19.6923 20.6843Z" fill="#D9D9D9"/>
</mask>
<g mask="url(#mask0_3200_10876)">
<ellipse cx="19.6928" cy="10.8373" rx="9.84615" ry="9.84608" fill="url(#paint0_linear_3200_10876)"/>
<g filter="url(#filter0_d_3200_10876)">
<path fill-rule="evenodd" clip-rule="evenodd" d="M15.2581 14.2951C15.2614 14.2095 15.263 14.1236 15.263 14.0372C15.263 10.3667 12.2874 7.39111 8.61685 7.39111C4.94629 7.39111 1.9707 10.3667 1.9707 14.0372C1.9707 17.7078 4.94629 20.6833 8.61685 20.6833C8.61687 20.6833 8.61688 20.6833 8.61689 20.6833L8.61686 20.6833H19.6937C16.9897 19.4542 15.2626 17.2431 15.2581 14.2951Z" fill="url(#paint1_linear_3200_10876)"/>
</g>
<g opacity="0.3">
<mask id="path-4-inside-1_3200_10876" fill="white">
<path fill-rule="evenodd" clip-rule="evenodd" d="M19.6919 20.6834C25.1298 20.6834 29.5381 16.2751 29.5381 10.8373C29.5381 5.39945 25.1298 0.991211 19.6919 0.991211C15.3778 0.991211 11.7117 3.76579 10.3807 7.62785C9.81843 7.47328 9.22632 7.39073 8.61493 7.39073C4.94434 7.39073 1.96875 10.3663 1.96875 14.0368C1.96875 17.7074 4.94434 20.6829 8.61493 20.6829H19.5988C19.6298 20.6832 19.6609 20.6834 19.6919 20.6834Z"/>
</mask>
<path d="M10.3807 7.62785L10.2502 8.10255L10.6956 8.22499L10.8462 7.78826L10.3807 7.62785ZM19.5988 20.6829L19.6034 20.1906H19.5988V20.6829ZM29.0458 10.8373C29.0458 16.0032 24.8579 20.1911 19.6919 20.1911V21.1757C25.4017 21.1757 30.0304 16.547 30.0304 10.8373H29.0458ZM19.6919 1.48352C24.8579 1.48352 29.0458 5.67135 29.0458 10.8373H30.0304C30.0304 5.12755 25.4017 0.498905 19.6919 0.498905V1.48352ZM10.8462 7.78826C12.1108 4.11868 15.5943 1.48352 19.6919 1.48352V0.498905C15.1613 0.498905 11.3126 3.4129 9.91527 7.46745L10.8462 7.78826ZM10.5112 7.15316C9.9068 6.98701 9.27082 6.89842 8.61493 6.89842V7.88304C9.18182 7.88304 9.73005 7.95956 10.2502 8.10255L10.5112 7.15316ZM8.61493 6.89842C4.67246 6.89842 1.47644 10.0944 1.47644 14.0368H2.46106C2.46106 10.6382 5.21623 7.88304 8.61493 7.88304V6.89842ZM1.47644 14.0368C1.47644 17.9793 4.67246 21.1752 8.61493 21.1752V20.1906C5.21623 20.1906 2.46106 17.4355 2.46106 14.0368H1.47644ZM8.61493 21.1752H19.5988V20.1906H8.61493V21.1752ZM19.6919 20.1911C19.6624 20.1911 19.6329 20.1909 19.6034 20.1906L19.5943 21.1752C19.6268 21.1755 19.6594 21.1757 19.6919 21.1757V20.1911Z" fill="#ACDFFF" mask="url(#path-4-inside-1_3200_10876)"/>
</g>
</g>
<path d="M10.0488 23.7476L7.82812 26.7232" stroke="url(#paint2_linear_3200_10876)" stroke-width="1.53162" stroke-linecap="round"/>
<path d="M16.5581 23.7476L14.3374 26.7232" stroke="url(#paint3_linear_3200_10876)" stroke-width="1.53162" stroke-linecap="round"/>
<path d="M23.0674 23.7476L20.8467 26.7232" stroke="url(#paint4_linear_3200_10876)" stroke-width="1.53162" stroke-linecap="round"/>
<path d="M10.6611 28.5615L8.44043 31.5372" stroke="url(#paint5_linear_3200_10876)" stroke-width="1.53162" stroke-linecap="round"/>
<path d="M17.1704 28.5615L14.9497 31.5372" stroke="url(#paint6_linear_3200_10876)" stroke-width="1.53162" stroke-linecap="round"/>
<path d="M23.6797 28.5615L21.459 31.5372" stroke="url(#paint7_linear_3200_10876)" stroke-width="1.53162" stroke-linecap="round"/>
</g>
<defs>
<filter id="filter0_d_3200_10876" x="-1.96774" y="2.96036" width="25.6" height="21.1689" filterUnits="userSpaceOnUse" color-interpolation-filters="sRGB">
<feFlood flood-opacity="0" result="BackgroundImageFix"/>
<feColorMatrix in="SourceAlpha" type="matrix" values="0 0 0 0 0 0 0 0 0 0 0 0 0 0 0 0 0 0 127 0" result="hardAlpha"/>
<feOffset dy="-0.492306"/>
<feGaussianBlur stdDeviation="1.96922"/>
<feComposite in2="hardAlpha" operator="out"/>
<feColorMatrix type="matrix" values="0 0 0 0 0.414632 0 0 0 0 0.765853 0 0 0 0 1 0 0 0 0.55 0"/>
<feBlend mode="normal" in2="BackgroundImageFix" result="effect1_dropShadow_3200_10876"/>
<feBlend mode="normal" in="SourceGraphic" in2="effect1_dropShadow_3200_10876" result="shape"/>
</filter>
<linearGradient id="paint0_linear_3200_10876" x1="16.9851" y1="0.252755" x2="23.1389" y2="15.7604" gradientUnits="userSpaceOnUse">
<stop stop-color="#F0F9FF"/>
<stop offset="0.545228" stop-color="#E5F5FF"/>
<stop offset="1" stop-color="#BAE4FF"/>
</linearGradient>
<linearGradient id="paint1_linear_3200_10876" x1="8.86298" y1="7.63727" x2="12.3091" y2="19.2064" gradientUnits="userSpaceOnUse">
<stop stop-color="#E5F5FF"/>
<stop offset="1" stop-color="#BAE4FF"/>
</linearGradient>
<linearGradient id="paint2_linear_3200_10876" x1="9.55129" y1="22.5228" x2="8.32599" y2="27.7303" gradientUnits="userSpaceOnUse">
<stop stop-color="#7CBEFB"/>
<stop offset="1" stop-color="#54A5F0"/>
</linearGradient>
<linearGradient id="paint3_linear_3200_10876" x1="16.0606" y1="22.5228" x2="14.8353" y2="27.7303" gradientUnits="userSpaceOnUse">
<stop stop-color="#7CBEFB"/>
<stop offset="1" stop-color="#54A5F0"/>
</linearGradient>
<linearGradient id="paint4_linear_3200_10876" x1="22.5698" y1="22.5228" x2="21.3445" y2="27.7303" gradientUnits="userSpaceOnUse">
<stop stop-color="#7CBEFB"/>
<stop offset="1" stop-color="#54A5F0"/>
</linearGradient>
<linearGradient id="paint5_linear_3200_10876" x1="10.1636" y1="27.3367" x2="8.93829" y2="32.5443" gradientUnits="userSpaceOnUse">
<stop stop-color="#54A5F0"/>
<stop offset="1" stop-color="#BADEFF"/>
</linearGradient>
<linearGradient id="paint6_linear_3200_10876" x1="16.6729" y1="27.3367" x2="15.4476" y2="32.5443" gradientUnits="userSpaceOnUse">
<stop stop-color="#54A5F0"/>
<stop offset="1" stop-color="#BADEFF"/>
</linearGradient>
<linearGradient id="paint7_linear_3200_10876" x1="23.1821" y1="27.3367" x2="21.9568" y2="32.5443" gradientUnits="userSpaceOnUse">
<stop stop-color="#54A5F0"/>
<stop offset="1" stop-color="#BADEFF"/>
</linearGradient>
<clipPath id="clip0_3200_10876">
<rect width="32" height="32" fill="white" transform="translate(0 0.5)"/>
</clipPath>
</defs>
</svg>
