<svg width="32" height="33" viewBox="0 0 32 33" fill="none" xmlns="http://www.w3.org/2000/svg">
<mask id="mask0_3200_10873" style="mask-type:alpha" maskUnits="userSpaceOnUse" x="2" y="7" width="28" height="20">
<path fill-rule="evenodd" clip-rule="evenodd" d="M19.7968 26.2429C25.0405 26.2429 29.2914 21.9921 29.2914 16.7484C29.2914 11.5047 25.0405 7.25391 19.7968 7.25391C15.6366 7.25391 12.1014 9.92946 10.818 13.6537C10.2758 13.5047 9.70492 13.4251 9.11541 13.4251C5.57589 13.4251 2.70654 16.2944 2.70654 19.8339C2.70654 23.3733 5.57589 26.2426 9.11541 26.2426H19.7238C19.7481 26.2428 19.7724 26.2429 19.7968 26.2429Z" fill="#D9D9D9"/>
</mask>
<g mask="url(#mask0_3200_10873)">
<ellipse cx="19.7963" cy="16.7474" rx="9.49458" ry="9.49451" fill="url(#paint0_linear_3200_10873)"/>
<g filter="url(#filter0_d_3200_10873)">
<path fill-rule="evenodd" clip-rule="evenodd" d="M15.5183 20.0864C15.5216 20.0024 15.5232 19.9179 15.5232 19.8331C15.5232 16.2936 12.6539 13.4243 9.11441 13.4243C5.5749 13.4243 2.70557 16.2936 2.70557 19.8331C2.70557 23.3725 5.5748 26.2418 9.11422 26.2419C9.11428 26.2419 9.11434 26.2419 9.11441 26.2419H19.7956C17.1895 25.0573 15.5245 22.9268 15.5183 20.0864Z" fill="url(#paint1_linear_3200_10873)"/>
</g>
<g opacity="0.3">
<mask id="path-4-inside-1_3200_10873" fill="white">
<path fill-rule="evenodd" clip-rule="evenodd" d="M19.7963 26.2419C25.04 26.2419 29.2909 21.9911 29.2909 16.7474C29.2909 11.5038 25.04 7.25293 19.7963 7.25293C15.6362 7.25293 12.1009 9.92849 10.8175 13.6527C10.2753 13.5037 9.70443 13.4241 9.11492 13.4241C5.5754 13.4241 2.70605 16.2934 2.70605 19.8329C2.70605 23.3724 5.5754 26.2417 9.11492 26.2417H19.7233C19.7476 26.2418 19.772 26.2419 19.7963 26.2419Z"/>
</mask>
<path d="M10.8175 13.6527L10.6917 14.1105L11.1212 14.2285L11.2663 13.8074L10.8175 13.6527ZM19.7233 26.2417L19.7269 25.7669H19.7233V26.2417ZM28.8162 16.7474C28.8162 21.7289 24.7778 25.7672 19.7963 25.7672V26.7167C25.3022 26.7167 29.7656 22.2533 29.7656 16.7474H28.8162ZM19.7963 7.72766C24.7778 7.72766 28.8162 11.766 28.8162 16.7474H29.7656C29.7656 11.2416 25.3022 6.7782 19.7963 6.7782V7.72766ZM11.2663 13.8074C12.4858 10.2688 15.8449 7.72766 19.7963 7.72766V6.7782C15.4274 6.7782 11.7161 9.5882 10.3687 13.498L11.2663 13.8074ZM10.9433 13.195C10.3606 13.0348 9.74734 12.9494 9.11492 12.9494V13.8988C9.66152 13.8988 10.1901 13.9726 10.6917 14.1105L10.9433 13.195ZM9.11492 12.9494C5.31322 12.9494 2.23133 16.0312 2.23133 19.8329H3.18078C3.18078 16.5556 5.83758 13.8988 9.11492 13.8988V12.9494ZM2.23133 19.8329C2.23133 23.6345 5.31322 26.7164 9.11492 26.7164V25.7669C5.83758 25.7669 3.18078 23.1102 3.18078 19.8329H2.23133ZM9.11492 26.7164H19.7233V25.7669H9.11492V26.7164ZM19.7963 25.7672C19.7731 25.7672 19.75 25.7671 19.7269 25.767L19.7197 26.7164C19.7452 26.7166 19.7708 26.7167 19.7963 26.7167V25.7672Z" fill="#ACDFFF" mask="url(#path-4-inside-1_3200_10873)"/>
</g>
</g>
<defs>
<filter id="filter0_d_3200_10873" x="-1.09225" y="9.15177" width="24.6855" height="20.413" filterUnits="userSpaceOnUse" color-interpolation-filters="sRGB">
<feFlood flood-opacity="0" result="BackgroundImageFix"/>
<feColorMatrix in="SourceAlpha" type="matrix" values="0 0 0 0 0 0 0 0 0 0 0 0 0 0 0 0 0 0 127 0" result="hardAlpha"/>
<feOffset dy="-0.474727"/>
<feGaussianBlur stdDeviation="1.89891"/>
<feComposite in2="hardAlpha" operator="out"/>
<feColorMatrix type="matrix" values="0 0 0 0 0.414632 0 0 0 0 0.765853 0 0 0 0 1 0 0 0 0.55 0"/>
<feBlend mode="normal" in2="BackgroundImageFix" result="effect1_dropShadow_3200_10873"/>
<feBlend mode="normal" in="SourceGraphic" in2="effect1_dropShadow_3200_10873" result="shape"/>
</filter>
<linearGradient id="paint0_linear_3200_10873" x1="17.1853" y1="6.54084" x2="23.1194" y2="21.4947" gradientUnits="userSpaceOnUse">
<stop stop-color="#F0F9FF"/>
<stop offset="0.545228" stop-color="#E5F5FF"/>
<stop offset="1" stop-color="#BAE4FF"/>
</linearGradient>
<linearGradient id="paint1_linear_3200_10873" x1="9.35167" y1="13.6617" x2="12.6748" y2="24.8177" gradientUnits="userSpaceOnUse">
<stop stop-color="#E5F5FF"/>
<stop offset="1" stop-color="#BAE4FF"/>
</linearGradient>
</defs>
</svg>
