<svg width="32" height="33" viewBox="0 0 32 33" fill="none" xmlns="http://www.w3.org/2000/svg">
<path fill-rule="evenodd" clip-rule="evenodd" d="M27.6377 20.8732C26.0405 21.4758 24.2787 21.7127 22.4668 21.4936C16.4653 20.7676 12.1885 15.3138 12.9144 9.31233C13.1336 7.50049 13.7838 5.84577 14.7497 4.43848C9.49458 5.1947 5.18701 9.38961 4.519 14.9123C3.72047 21.5142 8.42485 27.5132 15.0267 28.3117C20.5496 28.9797 25.6504 25.7965 27.6377 20.8732Z" fill="url(#paint0_linear_3200_10875)"/>
<g style="mix-blend-mode:hard-light">
<path d="M14.2373 4.77539C13.4773 6.01339 12.9479 7.41845 12.7168 8.9375L12.6699 9.2832C11.9511 15.2277 16.0326 20.6466 21.8672 21.6543L22.4375 21.7383C24.0893 21.938 25.7006 21.7655 27.1885 21.2891C25.1723 25.6735 20.5838 28.5104 15.5625 28.1182L15.0566 28.0674C8.6907 27.2974 4.12521 21.5909 4.73047 15.2441L4.76367 14.9424C5.39462 9.72604 9.34046 5.71914 14.2373 4.77539Z" stroke="white" stroke-opacity="0.07" stroke-width="0.492308"/>
</g>
<g opacity="0.93">
<mask id="mask0_3200_10875" style="mask-type:alpha" maskUnits="userSpaceOnUse" x="4" y="19" width="15" height="12">
<path fill-rule="evenodd" clip-rule="evenodd" d="M13.6791 30.0025C16.5922 30.0025 18.9538 27.6409 18.9538 24.7278C18.9538 21.8147 16.5922 19.4531 13.6791 19.4531C11.3679 19.4531 9.4039 20.9395 8.6909 23.0085C8.3897 22.9257 8.07253 22.8815 7.74502 22.8815C5.77864 22.8815 4.18457 24.4756 4.18457 26.4419C4.18457 28.4083 5.77864 30.0023 7.74502 30.0023H13.6387C13.6521 30.0024 13.6656 30.0025 13.6791 30.0025Z" fill="#D9D9D9"/>
</mask>
<g mask="url(#mask0_3200_10875)">
<ellipse cx="13.679" cy="24.7278" rx="5.27472" ry="5.27468" fill="url(#paint1_linear_3200_10875)"/>
<g filter="url(#filter0_d_3200_10875)">
<path fill-rule="evenodd" clip-rule="evenodd" d="M11.3025 26.5881C11.3045 26.5396 11.3054 26.4908 11.3054 26.4418C11.3054 24.4754 9.71138 22.8813 7.74501 22.8813C5.77863 22.8813 4.18457 24.4754 4.18457 26.4418C4.18457 28.408 5.77846 30.002 7.7447 30.0022L7.74467 30.0022H13.6787C12.2326 29.3449 11.3081 28.1633 11.3025 26.5881Z" fill="url(#paint2_linear_3200_10875)"/>
</g>
<g opacity="0.3">
<mask id="path-6-inside-1_3200_10875" fill="white">
<path fill-rule="evenodd" clip-rule="evenodd" d="M13.6791 30.0025C16.5922 30.0025 18.9538 27.6409 18.9538 24.7278C18.9538 21.8147 16.5922 19.4531 13.6791 19.4531C11.3679 19.4531 9.4039 20.9395 8.6909 23.0085C8.3897 22.9257 8.07253 22.8815 7.74502 22.8815C5.77864 22.8815 4.18457 24.4756 4.18457 26.4419C4.18457 28.4083 5.77864 30.0023 7.74502 30.0023H13.6385C13.652 30.0024 13.6656 30.0025 13.6791 30.0025Z"/>
</mask>
<path d="M8.6909 23.0085L8.56508 23.4663L8.9946 23.5843L9.13973 23.1632L8.6909 23.0085ZM13.6385 30.0023L13.6421 29.5276H13.6385V30.0023ZM18.4791 24.7278C18.4791 27.3787 16.33 29.5278 13.6791 29.5278V30.4772C16.8544 30.4772 19.4285 27.9031 19.4285 24.7278H18.4791ZM13.6791 19.9279C16.33 19.9279 18.4791 22.0769 18.4791 24.7278H19.4285C19.4285 21.5525 16.8544 18.9784 13.6791 18.9784V19.9279ZM9.13973 23.1632C9.78876 21.2798 11.5766 19.9279 13.6791 19.9279V18.9784C11.1592 18.9784 9.01904 20.5992 8.24208 22.8539L9.13973 23.1632ZM8.81673 22.5508C8.47492 22.4568 8.11543 22.4068 7.74502 22.4068V23.3562C8.02962 23.3562 8.30449 23.3946 8.56508 23.4663L8.81673 22.5508ZM7.74502 22.4068C5.51646 22.4068 3.70984 24.2134 3.70984 26.4419H4.6593C4.6593 24.7378 6.04082 23.3562 7.74502 23.3562V22.4068ZM3.70984 26.4419C3.70984 28.6705 5.51646 30.4771 7.74502 30.4771V29.5276C6.04082 29.5276 4.6593 28.1461 4.6593 26.4419H3.70984ZM7.74502 30.4771H13.6385V29.5276H7.74502V30.4771ZM13.6791 29.5278C13.6667 29.5278 13.6544 29.5277 13.6421 29.5276L13.6349 30.4771C13.6497 30.4772 13.6644 30.4772 13.6791 30.4772V29.5278Z" fill="#ACDFFF" mask="url(#path-6-inside-1_3200_10875)"/>
</g>
</g>
</g>
<path d="M20.9979 7.41309L21.2002 6.90039L21.4025 7.41309C21.6343 8.00105 22.0998 8.46648 22.6875 8.69813L23.2002 8.90039L22.6875 9.10265C22.0995 9.33454 21.6341 9.79997 21.4025 10.3877L21.2002 10.9004L20.9979 10.3877C20.766 9.79973 20.3006 9.3343 19.7129 9.10265L19.2002 8.90039L19.7129 8.69813C20.3009 8.46624 20.7663 8.00081 20.9979 7.41309Z" fill="url(#paint3_linear_3200_10875)"/>
<path d="M21.3799 7.42188C21.585 7.9419 21.9707 8.36703 22.4619 8.62207L22.6787 8.7207L23.1338 8.90039L22.6787 9.08008C22.1587 9.28518 21.7336 9.67086 21.4785 10.1621L21.3799 10.3789L21.2002 10.834L21.0205 10.3789C20.8154 9.85888 20.4297 9.43375 19.9385 9.17871L19.7217 9.08008L19.2656 8.90039L19.7217 8.7207C20.2417 8.5156 20.6668 8.12993 20.9219 7.63867L21.0205 7.42188L21.2002 6.96582L21.3799 7.42188Z" stroke="white" stroke-opacity="0.2" stroke-width="0.0492308"/>
<defs>
<filter id="filter0_d_3200_10875" x="0.386754" y="18.6088" width="17.0898" height="14.7167" filterUnits="userSpaceOnUse" color-interpolation-filters="sRGB">
<feFlood flood-opacity="0" result="BackgroundImageFix"/>
<feColorMatrix in="SourceAlpha" type="matrix" values="0 0 0 0 0 0 0 0 0 0 0 0 0 0 0 0 0 0 127 0" result="hardAlpha"/>
<feOffset dy="-0.474727"/>
<feGaussianBlur stdDeviation="1.89891"/>
<feComposite in2="hardAlpha" operator="out"/>
<feColorMatrix type="matrix" values="0 0 0 0 0.414632 0 0 0 0 0.765853 0 0 0 0 1 0 0 0 0.55 0"/>
<feBlend mode="normal" in2="BackgroundImageFix" result="effect1_dropShadow_3200_10875"/>
<feBlend mode="normal" in="SourceGraphic" in2="effect1_dropShadow_3200_10875" result="shape"/>
</filter>
<linearGradient id="paint0_linear_3200_10875" x1="15.7537" y1="4.43848" x2="23.3845" y2="27.8231" gradientUnits="userSpaceOnUse">
<stop stop-color="#CBCBFF"/>
<stop offset="0.480926" stop-color="#8081F2"/>
<stop offset="1" stop-color="#6465CA"/>
</linearGradient>
<linearGradient id="paint1_linear_3200_10875" x1="12.2285" y1="19.0575" x2="15.5251" y2="27.3652" gradientUnits="userSpaceOnUse">
<stop stop-color="#F0F9FF"/>
<stop offset="0.545228" stop-color="#E5F5FF"/>
<stop offset="1" stop-color="#BAE4FF"/>
</linearGradient>
<linearGradient id="paint2_linear_3200_10875" x1="7.87673" y1="23.0132" x2="9.72293" y2="29.211" gradientUnits="userSpaceOnUse">
<stop stop-color="#E5F5FF"/>
<stop offset="1" stop-color="#BAE4FF"/>
</linearGradient>
<linearGradient id="paint3_linear_3200_10875" x1="21.2002" y1="6.90039" x2="21.8669" y2="10.9004" gradientUnits="userSpaceOnUse">
<stop stop-color="#FFF490"/>
<stop offset="1" stop-color="#FFD990"/>
</linearGradient>
</defs>
</svg>
