<svg width="52" height="52" viewBox="0 0 52 52" fill="none" xmlns="http://www.w3.org/2000/svg">
<rect width="52" height="52" rx="26" fill="white" fill-opacity="0.2"/>
<path d="M22.2788 22.277L24.4086 13.0476L27.9584 21.5671L32.9281 15.8874L31.5082 22.277L37.1878 21.5671L30.7982 26.5368L38.6078 29.3766L31.5082 30.7965L34.348 39.316L27.2485 32.9264L26.5385 37.1861L24.4086 34.3463L22.2788 38.6061L21.5688 32.9264L14.4692 35.7662L18.729 29.3766L13.0493 24.4069L19.4389 25.1169L18.019 19.4372L22.2788 22.277Z" stroke="white" stroke-width="1.82857" stroke-linejoin="round"/>
<path opacity="0.75" d="M24.4087 25.8269L25.1186 22.2771L26.5385 25.1169L30.0883 23.697L27.2485 27.2468L30.0883 30.7966L26.5385 29.3767L25.1186 32.2165L24.4087 29.3767L20.8589 30.7966L22.9888 28.6667L20.1489 27.2468L22.9888 26.5368L21.5688 24.407L24.4087 25.8269Z" fill="white"/>
</svg>
