<svg width="26" height="32" viewBox="0 0 26 32" fill="none" xmlns="http://www.w3.org/2000/svg">
<ellipse opacity="0.5" cx="12.8621" cy="30.3448" rx="3.03448" ry="1.10345" fill="#F7635C"/>
<path d="M21.2485 20.9313C22.9078 19.3072 24.038 17.2377 24.4959 14.9847C24.9539 12.7317 24.7192 10.3963 23.8215 8.27383C22.9238 6.15142 21.4034 4.33732 19.4527 3.06098C17.5019 1.78464 15.2083 1.10339 12.8621 1.10339C10.5158 1.10339 8.22227 1.78464 6.27148 3.06098C4.3207 4.33732 2.80031 6.15142 1.90261 8.27383C1.0049 10.3963 0.770203 12.7317 1.22819 14.9847C1.68618 17.2377 2.81629 19.3072 4.47559 20.9313C5.31722 21.7573 6.83557 23.2694 8.4495 24.8743C11.4828 27.9075 12.5862 30.3448 12.8621 30.3448C13.1379 30.3448 14.2881 27.862 17.2759 24.8743C18.9496 23.2105 20.5078 21.6585 21.2485 20.9313Z" fill="#F7635C"/>
<g opacity="0.5" filter="url(#filter0_i_358_94614)">
<circle cx="12.862" cy="12.9655" r="8.55172" fill="#772E2B"/>
</g>
<path d="M15.6482 13.5172C15.6482 12.7197 15.3568 11.8002 14.7872 10.8044C14.3112 9.97218 13.6549 9.11354 12.8621 8.26451C12.0693 9.11354 11.413 9.97218 10.937 10.8044C10.3674 11.8002 10.076 12.7197 10.076 13.5172C10.076 15.056 11.3233 16.3033 12.8621 16.3033V16.9655C10.9577 16.9655 9.41382 15.4216 9.41382 13.5172C9.41382 11.6128 10.7931 9.37927 12.8621 7.3103C14.9311 9.37927 16.3104 11.6128 16.3104 13.5172C16.3104 15.4216 14.7665 16.9655 12.8621 16.9655V16.3033C14.4009 16.3033 15.6482 15.056 15.6482 13.5172Z" fill="white"/>
<path d="M12.7107 7.07983C12.8177 7.00936 12.9632 7.02083 13.0574 7.11499C14.1042 8.16178 14.9826 9.25695 15.6013 10.3386C16.2189 11.4183 16.5867 12.5006 16.5867 13.5173C16.5866 15.5741 14.9188 17.241 12.8621 17.241C10.8053 17.2409 9.1385 15.574 9.13843 13.5173C9.13843 12.5007 9.50527 11.4183 10.1228 10.3386C10.7415 9.25696 11.62 8.16178 12.6667 7.11499L12.7107 7.07983ZM12.8621 8.67358C12.1712 9.43809 11.5989 10.2027 11.1765 10.9412C10.621 11.9124 10.3523 12.7844 10.3523 13.5173C10.3524 14.9037 11.4757 16.0271 12.8621 16.0271C14.2484 16.0271 15.3727 14.9037 15.3728 13.5173C15.3728 12.7844 15.1031 11.9124 14.5476 10.9412C14.1252 10.2027 13.553 9.43809 12.8621 8.67358Z" stroke="black" stroke-opacity="0.1" stroke-width="0.551724" stroke-linejoin="round"/>
<path d="M10.7932 14.8725C10.7932 15.8074 11.5412 16.7424 12.8502 16.7424C13.7852 16.7424 14.7575 15.957 14.9071 15.0595C15.0567 14.1619 14.4708 13.5635 14.1591 13.3765C14.0095 14.1245 13.3488 14.3115 13.0372 14.3115C13.1618 14.1245 13.4112 13.5261 13.4112 12.6285C13.4112 11.7309 12.5385 11.0079 12.1022 10.7585C12.4762 11.5065 12.4762 12.2545 11.9152 12.8155C11.3542 13.3765 10.7932 13.9375 10.7932 14.8725Z" fill="url(#paint0_linear_358_94614)"/>
<defs>
<filter id="filter0_i_358_94614" x="4.3103" y="4.41382" width="17.3794" height="17.3793" filterUnits="userSpaceOnUse" color-interpolation-filters="sRGB">
<feFlood flood-opacity="0" result="BackgroundImageFix"/>
<feBlend mode="normal" in="SourceGraphic" in2="BackgroundImageFix" result="shape"/>
<feColorMatrix in="SourceAlpha" type="matrix" values="0 0 0 0 0 0 0 0 0 0 0 0 0 0 0 0 0 0 127 0" result="hardAlpha"/>
<feOffset dx="0.275862" dy="0.275862"/>
<feGaussianBlur stdDeviation="0.137931"/>
<feComposite in2="hardAlpha" operator="arithmetic" k2="-1" k3="1"/>
<feColorMatrix type="matrix" values="0 0 0 0 0 0 0 0 0 0 0 0 0 0 0 0 0 0 1 0"/>
<feBlend mode="normal" in2="shape" result="effect1_innerShadow_358_94614"/>
</filter>
<linearGradient id="paint0_linear_358_94614" x1="12.8622" y1="10.7585" x2="12.8622" y2="16.7424" gradientUnits="userSpaceOnUse">
<stop offset="0.588542" stop-color="white"/>
<stop offset="1" stop-color="white" stop-opacity="0.75"/>
</linearGradient>
</defs>
</svg>
