<svg width="50" height="61" viewBox="0 0 50 61" fill="none" xmlns="http://www.w3.org/2000/svg">
<g clip-path="url(#clip0_489_100101)">
<path d="M18.4963 57.9305L2.0392 48.1799C1.50344 47.8623 1.58685 47.4036 1.69553 47.2139C3.76881 43.5958 8.08806 36.1251 8.77883 35.188C9.64229 34.0167 9.75179 34.7202 11.0982 33.377C12.1754 32.3025 14.3555 29.6683 15.3109 28.4856C16.9598 26.0554 20.9262 20.2965 23.6008 16.7025C26.9441 12.21 29.0943 7.67469 30.4202 6.2556C31.746 4.83651 34.7147 2.11595 38.8603 1.47954C43.0058 0.843131 45.9627 2.28114 47.1205 2.94459C48.0468 3.47535 47.8772 4.53169 47.6767 4.99351C47.2505 5.7746 46.0898 7.85228 44.857 9.91423C43.316 12.4917 45.2365 15.5146 46.0122 18.5224C46.6328 20.9287 46.0558 22.4351 45.6898 22.8875L42.2896 28.8213C42.1882 28.9982 42.1038 29.6376 42.5769 30.7803C43.1683 32.2086 44.2059 46.8372 44.3561 48.1409C44.4762 49.1838 44.1153 49.6049 43.9198 49.6852C43.1629 50.1486 41.1979 51.3039 39.3926 52.2176C37.1361 53.3598 34.8498 56.3432 32.5722 57.8577C30.2945 59.3722 28.225 59.8525 26.059 60.2775C24.3262 60.6175 20.2952 58.8545 18.4963 57.9305Z" fill="#E4262D"/>
<path d="M32.9122 27.8072V36.0206H31.7664L27.603 30.0194H27.5349V36.0206H26.287V27.8072H27.4441L31.6076 33.8198H31.687V27.8072H32.9122Z" fill="white"/>
</g>
<defs>
<clipPath id="clip0_489_100101">
<rect width="50" height="61" fill="white"/>
</clipPath>
</defs>
</svg>
