<svg width="52" height="52" viewBox="0 0 52 52" fill="none" xmlns="http://www.w3.org/2000/svg">
<rect width="52" height="52" rx="26" fill="white" fill-opacity="0.2"/>
<path d="M26 13.3698C28.6523 16.1099 30.8518 18.9183 32.417 21.6549C34.1179 24.6288 35.04 27.4626 35.04 29.9996C35.04 34.9923 30.9927 39.0397 26 39.0397C21.0073 39.0397 16.96 34.9923 16.96 29.9996C16.96 27.4626 17.8821 24.6288 19.583 21.6549C21.1482 18.9183 23.3477 16.1099 26 13.3698Z" stroke="white" stroke-width="1.92"/>
<path d="M20 33.93C20 36.6414 22.1692 39.3529 25.9652 39.3529C28.6766 39.3529 31.4965 37.0753 31.9304 34.4723C32.3642 31.8693 30.665 30.134 29.7612 29.5917C29.3274 31.7608 27.4113 32.3031 26.5075 32.3031C26.869 31.7608 27.5921 30.0255 27.5921 27.4225C27.5921 24.8195 25.0614 22.7227 23.796 21.9996C24.8806 24.1688 24.8806 26.3379 23.2537 27.9648C21.6269 29.5917 20 31.2186 20 33.93Z" fill="url(#paint0_linear_314_101888)"/>
<defs>
<linearGradient id="paint0_linear_314_101888" x1="26" y1="21.9996" x2="26" y2="39.3529" gradientUnits="userSpaceOnUse">
<stop offset="0.588542" stop-color="white"/>
<stop offset="1" stop-color="white" stop-opacity="0.75"/>
</linearGradient>
</defs>
</svg>
