<svg width="100" height="100" viewBox="0 0 100 100" fill="none" xmlns="http://www.w3.org/2000/svg">
<path fill-rule="evenodd" clip-rule="evenodd" d="M25.5331 40.3877C26.2944 39.8396 27.178 39.6666 27.7819 39.6666H33.3335V41.6666H27.7819C27.4981 41.6666 27.05 41.76 26.7017 42.0108C26.4043 42.2249 26.1187 42.5905 26.1187 43.3299V43.9998L24.1187 44V43.3299C24.1187 41.9387 24.7207 40.9726 25.5331 40.3877ZM72.7911 44.5493C74.3953 44.5493 75.4945 45.2401 76.1593 46.1634C76.7874 47.0358 76.987 48.0525 76.987 48.7452V73.6911C76.987 74.6619 76.7081 75.4498 76.2301 76.0492L74.6664 74.8022C74.8305 74.5965 74.987 74.262 74.987 73.6911V48.7452C74.987 48.3726 74.867 47.7914 74.5363 47.3321C74.2423 46.9237 73.7435 46.5493 72.7911 46.5493H71.0002V44.5493H72.7911Z" fill="#ADAEB8"/>
<path fill-rule="evenodd" clip-rule="evenodd" d="M18.3893 43.6198H36.0382C37.944 43.6198 38.9691 44.8879 39.272 45.6612C39.5698 46.3463 40.2017 47.8014 40.4168 48.303C40.4223 48.3095 40.4413 48.3287 40.4891 48.3545C40.5257 48.3743 40.5673 48.3911 40.608 48.4035C40.6226 48.408 40.6353 48.4113 40.6456 48.4137H64.5351C66.3291 48.4137 67.6245 49.0653 68.5153 49.9494C69.3814 50.8089 69.8173 51.8379 70.0242 52.5621L70.0265 52.5702L70.0287 52.5783C70.9291 55.9438 72.2854 60.7673 73.516 65.1194C73.7842 66.0678 74.0466 66.9944 74.2969 67.8786C75.1931 71.0434 75.9356 73.6659 76.2428 74.8107C76.4735 75.6705 76.4925 76.4485 76.3072 77.1368C76.1201 77.8311 75.7419 78.3701 75.283 78.7694C74.3987 79.5387 73.2354 79.7801 72.4594 79.7981L72.4477 79.7984H28.1372C25.0716 79.7984 23.7267 77.5836 23.4383 76.3776C21.101 67.5016 16.3025 49.255 15.8036 47.2593C15.4954 46.0265 15.7164 45.012 16.4164 44.3401C17.0376 43.7438 17.8518 43.603 18.3893 43.6198ZM40.4149 48.3007C40.4149 48.3007 40.4151 48.3009 40.4153 48.3013L40.4149 48.3007ZM17.6874 46.0089C17.6583 46.1446 17.6468 46.3858 17.7439 46.7742C18.239 48.7548 23.0362 66.9968 25.3756 75.8805L25.3792 75.8941L25.3824 75.9079C25.5161 76.4809 26.2442 77.7984 28.1372 77.7984H72.4235C72.9185 77.7847 73.5599 77.6175 73.9703 77.2605C74.1602 77.0953 74.3024 76.8897 74.376 76.6166C74.4512 76.3374 74.471 75.925 74.3111 75.3289C74.0079 74.1987 73.2713 71.5973 72.3761 68.436C72.125 67.5492 71.8615 66.6183 71.5915 65.6635C70.3625 61.3174 69.0036 56.4848 68.0989 53.1037C67.9499 52.586 67.6493 51.9076 67.1065 51.369C66.5858 50.8522 65.795 50.4137 64.5351 50.4137H40.5103L40.4553 50.4076C40.205 50.3798 39.8661 50.2915 39.5371 50.1134C39.2047 49.9335 38.8043 49.6177 38.5813 49.0974C38.3695 48.6033 37.7257 47.1207 37.4293 46.439L37.419 46.4154L37.41 46.3914C37.3437 46.2147 36.95 45.6198 36.0382 45.6198H18.3517L18.3317 45.619C18.129 45.6109 17.9098 45.6788 17.8014 45.7829C17.7609 45.8218 17.7143 45.8838 17.6874 46.0089Z" fill="#ADAEB8"/>
<path opacity="0.2" d="M33.3335 27.9999V44.6666H36.6668L38.3335 45.6666L40.0002 48.9999L65.3335 49.3333L68.6668 51.6666L71.0002 59.6666V21.3333H40.0002L33.3335 27.9999Z" fill="#CBCDE6"/>
<path fill-rule="evenodd" clip-rule="evenodd" d="M39.7239 20.6666H40.6459V22H40.2762L40.0548 22.2214L39.112 21.2786L39.7239 20.6666ZM43.2292 22H41.9376V20.6666H43.2292V22ZM45.8126 22H44.5209V20.6666H45.8126V22ZM48.3959 22H47.1042V20.6666H48.3959V22ZM50.9792 22H49.6876V20.6666H50.9792V22ZM53.5626 22H52.2709V20.6666H53.5626V22ZM56.1459 22H54.8542V20.6666H56.1459V22ZM58.7293 22H57.4376V20.6666H58.7293V22ZM61.3126 22H60.0209V20.6666H61.3126V22ZM63.8959 22H62.6043V20.6666H63.8959V22ZM66.4793 22H65.1876V20.6666H66.4793V22ZM69.0626 22H67.7709V20.6666H69.0626V22ZM70.3543 20.6666H71.6668V22.0178H70.3334V21.3333H70.3543V20.6666ZM39.2215 23.0547L38.3882 23.888L37.4453 22.9452L38.2787 22.1119L39.2215 23.0547ZM70.3334 24.7559V23.3869H71.6668V24.7559H70.3334ZM37.5548 24.7214L36.7215 25.5547L35.7787 24.6119L36.612 23.7786L37.5548 24.7214ZM35.8882 26.388L35.0548 27.2214L34.112 26.2786L34.9453 25.4452L35.8882 26.388ZM70.3334 27.494V26.125H71.6668V27.494H70.3334ZM34.2215 28.0547L34.0001 28.2761V28.6944H32.6667V27.7238L33.2787 27.1119L34.2215 28.0547ZM70.3334 30.2321V28.8631H71.6668V30.2321H70.3334ZM34.0001 30.0833V31.4722H32.6667V30.0833H34.0001ZM70.3334 32.9702V31.6012H71.6668V32.9702H70.3334ZM34.0001 32.8611V34.25H32.6667V32.8611H34.0001ZM70.3334 35.7083V34.3392H71.6668V35.7083H70.3334ZM34.0001 35.6389V37.0277H32.6667V35.6389H34.0001ZM70.3334 38.4464V37.0773H71.6668V38.4464H70.3334ZM34.0001 38.4166V39.8055H32.6667V38.4166H34.0001ZM70.3334 41.1845V39.8154H71.6668V41.1845H70.3334ZM34.0001 41.1944V42.5833H32.6667V41.1944H34.0001ZM70.3334 43.9226V42.5535H71.6668V43.9226H70.3334ZM34.0001 43.9722V44.6666H32.6667V43.9722H34.0001ZM70.3334 46.6607V45.2916H71.6668V46.6607H70.3334ZM70.3334 49.3988V48.0297H71.6668V49.3988H70.3334ZM70.3334 52.1369V50.7678H71.6668V52.1369H70.3334ZM70.3334 54.875V53.5059H71.6668V54.875H70.3334ZM70.3334 57.613V56.244H71.6668V57.613H70.3334ZM70.3334 59.6666V58.9821H71.6668V59.6666H70.3334Z" fill="#ADAEB8"/>
<path fill-rule="evenodd" clip-rule="evenodd" d="M40.6668 21.3333V21.8888H39.3335V21.3333H40.6668ZM40.6668 22.9999V24.111H39.3335V22.9999H40.6668ZM40.6668 25.2221V26.3333H39.3335V25.2221H40.6668ZM33.8891 28.6666H33.3335V27.3333H33.8891V28.6666ZM36.1113 28.6666H35.0002V27.3333H36.1113V28.6666ZM38.3335 28.6666H37.2224V27.3333H38.3335V28.6666ZM39.4446 28.6666V27.9999H39.3335V27.4444H39.4446V27.3333H40.0002V27.4444H40.6668V28.6666H39.4446Z" fill="#ADAEB8"/>
<path fill-rule="evenodd" clip-rule="evenodd" d="M54.949 31.6558C54.596 31.2058 53.9115 30.722 52.4602 30.7221C51.2906 30.7221 50.6514 31.1656 50.2757 31.6274C49.8619 32.1363 49.7134 32.7422 49.6957 33.0364L47.5309 32.9064C47.5711 32.237 47.8474 31.1761 48.5933 30.2591C49.3773 29.295 50.6326 28.5535 52.4601 28.5534C54.4653 28.5534 55.8266 29.2608 56.6554 30.3174C57.445 31.324 57.6363 32.5017 57.6364 33.2819C57.6365 34.8711 56.8286 36.6707 55.0801 37.7336C54.4197 38.1351 54.0668 38.519 53.8621 38.9067C53.6537 39.3013 53.5445 39.8022 53.5445 40.5311L51.3758 40.5311C51.3758 39.5947 51.5146 38.708 51.9444 37.894C52.3778 37.0733 53.0533 36.4278 53.9535 35.8805C55.0043 35.2417 55.4678 34.1751 55.4677 33.282C55.4676 32.8003 55.3413 32.1559 54.949 31.6558Z" fill="#9C9DA9"/>
<path d="M51.4758 43.4921H53.326V41.6419H51.4758V43.4921Z" fill="#9C9DA9"/>
</svg>
