<svg width="50" height="52" viewBox="0 0 50 52" fill="none" xmlns="http://www.w3.org/2000/svg">
<g clip-path="url(#clip0_489_100103)">
<path d="M3.65297 10.236L6.45155 5.35205C6.75488 4.82269 8.60493 4.04441 8.632 4.03497C8.80397 3.94932 10.6165 3.05954 11.3493 3.02552C11.9938 2.9956 13.2235 3.36279 13.7578 3.55012C16.1685 4.36116 21.4961 6.14497 23.5208 6.79187C26.4509 7.40149 27.2957 6.67363 29.4141 5.96264C32.0932 4.81244 37.7245 2.38347 38.8177 1.86919C39.8078 1.50978 41.2424 1.61891 41.6622 3.49914L43.1011 12.8074C44.2879 19.072 46.7513 32.2658 47.1103 34.9239C47.559 38.2466 47.1948 41.246 47.1851 42.8802C47.1833 44.3763 46.8993 44.4987 46.154 45.4262C45.8404 45.8739 45.2555 46.1233 45.0022 46.1921C43.5903 46.3336 40.2049 46.6513 37.9583 46.7897C36.307 46.9842 31.5057 46.8945 29.3115 46.8254L22.3146 46.5945L15.6627 46.6326C14.3531 46.7615 11.5099 47.0619 10.6135 47.2327C10.0841 47.2858 5.01084 48.7988 3.85184 49.2041C3.07804 49.5591 2.88016 49.075 2.87795 48.7886L2.41171 40.8932C2.19519 38.0363 1.66904 31.9126 1.29659 30.2733C0.730933 28.5233 1.83747 27.0899 3.09053 25.0276C4.34359 22.9652 4.9665 21.7537 4.98396 19.9815C4.56906 18.3416 3.64145 14.735 3.25019 13.4272C2.85893 12.1194 3.35569 10.7548 3.65297 10.236Z" fill="#F6812C"/>
<path d="M19.8203 30.5293V22.3159H24.9707V23.3936H21.0682V25.878H24.6985V26.9444H21.0682V29.4516H25.0161V30.5293H19.8203Z" fill="white"/>
</g>
<defs>
<clipPath id="clip0_489_100103">
<rect width="50" height="52" fill="white"/>
</clipPath>
</defs>
</svg>
