<svg width="70" height="36" viewBox="0 0 70 36" fill="none" xmlns="http://www.w3.org/2000/svg">
<g clip-path="url(#clip0_489_100100)">
<path opacity="0.9" d="M64.886 24.2352C64.9887 25.5488 65.4519 27.9339 65.6706 28.9623L65.8539 29.6377C66.0159 30.2346 65.8219 30.6888 65.1773 30.8184C63.1055 31.0333 58.3619 31.49 55.9619 31.5976C51.4354 31.4516 42.0003 31.1543 40.472 31.1341C39.7599 31.1823 30.1506 30.733 25.4349 30.5023C23.1537 30.5021 18.0496 30.4766 15.883 30.3758C13.7165 30.275 11.5647 29.3272 10.7597 28.8659C8.86337 27.7792 4.76258 25.3724 3.52998 24.4379C0.771707 21.289 1.14315 18.6501 1.23661 17.4917C1.33006 16.3333 1.23116 15.635 4.70035 14.5574C8.16954 13.4797 10.3434 11.3034 10.6968 10.9355C11.0502 10.5677 14.1454 7.77866 17.93 6.02622C21.7146 4.27379 31.5686 2.0069 34.8985 1.91882C36.157 1.71317 44.9944 2.21475 47.2042 2.34017L47.2044 2.34018C48.8799 2.50177 52.465 2.40786 54.0481 2.3407C56.1428 2.21022 60.6867 1.95276 62.1046 1.96673C63.6266 2.09745 64.1945 3.71085 64.2881 4.50122C64.2968 5.8132 64.2966 8.94045 64.2267 10.9536C64.1393 13.47 64.7575 22.5932 64.886 24.2352Z" fill="#41C64E"/>
<path d="M33.0705 20.3339L30.7902 12.1204H32.1062L33.7058 18.4734H33.7739L35.4415 12.1204H36.7348L38.4024 18.4734H38.4705L40.0701 12.1204H41.386L39.1058 20.3339H37.8465L36.1222 14.1965H36.0541L34.3297 20.3339H33.0705Z" fill="white"/>
</g>
<defs>
<clipPath id="clip0_489_100100">
<rect width="70" height="36" fill="white"/>
</clipPath>
</defs>
</svg>
