<svg width="26" height="34" viewBox="0 0 26 34" fill="none" xmlns="http://www.w3.org/2000/svg">
<g opacity="0.5" filter="url(#filter0_d_358_94613)">
<ellipse cx="12.8621" cy="30.3448" rx="3.03448" ry="1.10345" fill="#F07E2C"/>
</g>
<path d="M21.2485 20.9313C22.9078 19.3072 24.038 17.2377 24.4959 14.9847C24.9539 12.7317 24.7192 10.3963 23.8215 8.27383C22.9238 6.15142 21.4034 4.33732 19.4527 3.06098C17.5019 1.78464 15.2083 1.10339 12.8621 1.10339C10.5158 1.10339 8.22227 1.78464 6.27148 3.06098C4.3207 4.33732 2.80031 6.15142 1.90261 8.27383C1.0049 10.3963 0.770203 12.7317 1.22819 14.9847C1.68618 17.2377 2.81629 19.3072 4.47559 20.9313C5.31722 21.7573 6.83557 23.2694 8.4495 24.8743C11.4828 27.9075 12.5862 30.3448 12.8621 30.3448C13.1379 30.3448 14.2881 27.862 17.2759 24.8743C18.9496 23.2105 20.5078 21.6585 21.2485 20.9313Z" fill="#F07E2C"/>
<g opacity="0.5" filter="url(#filter1_i_358_94613)">
<circle cx="12.862" cy="12.9655" r="8.55172" fill="#773512"/>
</g>
<path d="M12.3528 8.39185L14.5928 8.71185L15.8728 9.35185L16.8328 11.5918V12.8718L16.1928 14.7918L15.2328 15.7518L12.6728 16.0718L10.4328 15.4318L9.15283 13.8318V11.5918L10.4328 9.35185L12.3528 8.39185Z" fill="white" fill-opacity="0.1"/>
<path d="M10.4326 12.2319C10.4326 11.2079 11.2631 10.8396 11.7126 10.9519C12.6726 11.2719 12.6726 12.8719 11.7126 13.1919C11.286 13.2986 10.4326 13.2559 10.4326 12.2319Z" fill="white"/>
<path d="M15.5559 12.2513C15.5559 11.2273 14.7254 10.8591 14.2759 10.9713C13.3159 11.2913 13.3159 12.8913 14.2759 13.2113C14.7026 13.318 15.5559 13.2753 15.5559 12.2513Z" fill="white"/>
<path d="M8.19263 12.5519H9.15263" stroke="white" stroke-width="0.768" stroke-linecap="round"/>
<path d="M16.8325 12.5519H17.7925" stroke="white" stroke-width="0.768" stroke-linecap="round"/>
<path d="M12.9929 13.5118C14.2299 13.512 15.2332 14.515 15.2332 15.7521C15.233 16.989 14.2299 17.9922 12.9929 17.9923C11.7559 17.9923 10.7528 16.9891 10.7527 15.7521C10.7527 14.515 11.7558 13.5118 12.9929 13.5118ZM13.031 16.4904C12.7727 16.4904 12.5632 16.6998 12.5632 16.9581C12.5633 17.2164 12.7728 17.4259 13.031 17.4259C13.2893 17.4259 13.4987 17.2164 13.4988 16.9581C13.4988 16.6998 13.2893 16.4904 13.031 16.4904ZM12.4236 16.1398C12.2945 15.9162 12.0085 15.8391 11.7849 15.9679C11.5612 16.097 11.4839 16.3839 11.613 16.6075C11.7422 16.8312 12.029 16.9076 12.2527 16.7784C12.4761 16.6493 12.5525 16.3633 12.4236 16.1398ZM14.2771 15.9679C14.0535 15.8391 13.7675 15.9162 13.6384 16.1398C13.5095 16.3633 13.586 16.6492 13.8093 16.7784C14.033 16.9076 14.3198 16.8312 14.449 16.6075C14.5781 16.3839 14.5008 16.097 14.2771 15.9679ZM12.2527 14.799C12.029 14.6698 11.7422 14.7471 11.613 14.9708C11.4843 15.1944 11.5614 15.4804 11.7849 15.6095C12.0086 15.7384 12.2945 15.6612 12.4236 15.4376C12.5524 15.214 12.4761 14.9281 12.2527 14.799ZM14.449 14.9708C14.3198 14.7471 14.033 14.6698 13.8093 14.799C13.5859 14.9281 13.5096 15.2141 13.6384 15.4376C13.7675 15.6612 14.0535 15.7383 14.2771 15.6095C14.5006 15.4804 14.5777 15.1944 14.449 14.9708ZM13.031 14.1515C12.7728 14.1515 12.5634 14.3611 12.5632 14.6193C12.5632 14.8776 12.7727 15.087 13.031 15.087C13.2893 15.087 13.4988 14.8776 13.4988 14.6193C13.4986 14.3611 13.2892 14.1515 13.031 14.1515Z" fill="white"/>
<path d="M12.9927 8.00806C14.7202 8.00817 15.8021 8.73849 16.4341 9.70142C17.0498 10.6398 17.2173 11.763 17.2173 12.552C17.2173 13.2322 17.0826 14.2093 16.4673 15.0237C16.1092 15.4976 15.604 15.8938 14.9126 16.1487V15.3157C15.3359 15.1129 15.6376 14.8462 15.854 14.5598C16.3265 13.9344 16.4487 13.1517 16.4487 12.552C16.4487 11.8477 16.2956 10.8905 15.7915 10.1223C15.3034 9.3788 14.4648 8.77573 12.9927 8.77563C11.596 8.77561 10.7509 9.41748 10.2388 10.2014C9.7133 11.0061 9.53663 11.9695 9.53662 12.552C9.53663 13.1517 9.65893 13.9344 10.1313 14.5598C10.3478 14.8463 10.6494 15.1129 11.0728 15.3157V16.1497C10.3811 15.8948 9.87625 15.4977 9.51807 15.0237C8.9027 14.2093 8.76905 13.2322 8.76904 12.552C8.76905 11.8545 8.97137 10.7368 9.59521 9.78149C10.2325 8.8058 11.3074 8.00803 12.9927 8.00806Z" fill="white"/>
<defs>
<filter id="filter0_d_358_94613" x="7.62074" y="27.0344" width="10.4826" height="6.6207" filterUnits="userSpaceOnUse" color-interpolation-filters="sRGB">
<feFlood flood-opacity="0" result="BackgroundImageFix"/>
<feColorMatrix in="SourceAlpha" type="matrix" values="0 0 0 0 0 0 0 0 0 0 0 0 0 0 0 0 0 0 127 0" result="hardAlpha"/>
<feOffset/>
<feGaussianBlur stdDeviation="1.10345"/>
<feComposite in2="hardAlpha" operator="out"/>
<feColorMatrix type="matrix" values="0 0 0 0 0 0 0 0 0 0 0 0 0 0 0 0 0 0 0.4 0"/>
<feBlend mode="normal" in2="BackgroundImageFix" result="effect1_dropShadow_358_94613"/>
<feBlend mode="normal" in="SourceGraphic" in2="effect1_dropShadow_358_94613" result="shape"/>
</filter>
<filter id="filter1_i_358_94613" x="4.3103" y="4.41382" width="17.3794" height="17.3793" filterUnits="userSpaceOnUse" color-interpolation-filters="sRGB">
<feFlood flood-opacity="0" result="BackgroundImageFix"/>
<feBlend mode="normal" in="SourceGraphic" in2="BackgroundImageFix" result="shape"/>
<feColorMatrix in="SourceAlpha" type="matrix" values="0 0 0 0 0 0 0 0 0 0 0 0 0 0 0 0 0 0 127 0" result="hardAlpha"/>
<feOffset dx="0.275862" dy="0.275862"/>
<feGaussianBlur stdDeviation="0.137931"/>
<feComposite in2="hardAlpha" operator="arithmetic" k2="-1" k3="1"/>
<feColorMatrix type="matrix" values="0 0 0 0 0 0 0 0 0 0 0 0 0 0 0 0 0 0 1 0"/>
<feBlend mode="normal" in2="shape" result="effect1_innerShadow_358_94613"/>
</filter>
</defs>
</svg>
