<svg width="28" height="28" viewBox="0 0 28 28" fill="none" xmlns="http://www.w3.org/2000/svg">
<g filter="url(#filter0_i_314_88432)">
<rect x="3" y="2" width="22" height="18" rx="5" fill="url(#paint0_linear_314_88432)"/>
</g>
<path opacity="0.3" d="M3 26C3 23.2386 5.23858 21 8 21H20C22.7614 21 25 23.2386 25 26V27H3V26Z" fill="url(#paint1_linear_314_88432)"/>
<g filter="url(#filter1_d_314_88432)">
<path d="M16.9706 10.2076C17.4906 10.6079 17.4906 11.3921 16.9706 11.7924L12.86 14.9568C12.2024 15.463 11.25 14.9942 11.25 14.1644L11.25 7.83563C11.25 7.00579 12.2024 6.53702 12.86 7.04322L16.9706 10.2076Z" fill="url(#paint2_linear_314_88432)" shape-rendering="crispEdges"/>
</g>
<defs>
<filter id="filter0_i_314_88432" x="3" y="2" width="22" height="18" filterUnits="userSpaceOnUse" color-interpolation-filters="sRGB">
<feFlood flood-opacity="0" result="BackgroundImageFix"/>
<feBlend mode="normal" in="SourceGraphic" in2="BackgroundImageFix" result="shape"/>
<feColorMatrix in="SourceAlpha" type="matrix" values="0 0 0 0 0 0 0 0 0 0 0 0 0 0 0 0 0 0 127 0" result="hardAlpha"/>
<feOffset dx="0.5" dy="0.5"/>
<feComposite in2="hardAlpha" operator="arithmetic" k2="-1" k3="1"/>
<feColorMatrix type="matrix" values="0 0 0 0 1 0 0 0 0 1 0 0 0 0 1 0 0 0 0.25 0"/>
<feBlend mode="normal" in2="shape" result="effect1_innerShadow_314_88432"/>
</filter>
<filter id="filter1_d_314_88432" x="8.25" y="6.83374" width="12.1106" height="14.3325" filterUnits="userSpaceOnUse" color-interpolation-filters="sRGB">
<feFlood flood-opacity="0" result="BackgroundImageFix"/>
<feColorMatrix in="SourceAlpha" type="matrix" values="0 0 0 0 0 0 0 0 0 0 0 0 0 0 0 0 0 0 127 0" result="hardAlpha"/>
<feOffset dy="3"/>
<feGaussianBlur stdDeviation="1.5"/>
<feComposite in2="hardAlpha" operator="out"/>
<feColorMatrix type="matrix" values="0 0 0 0 0 0 0 0 0 0 0 0 0 0 0 0 0 0 0.15 0"/>
<feBlend mode="normal" in2="BackgroundImageFix" result="effect1_dropShadow_314_88432"/>
<feBlend mode="normal" in="SourceGraphic" in2="effect1_dropShadow_314_88432" result="shape"/>
</filter>
<linearGradient id="paint0_linear_314_88432" x1="3" y1="2" x2="25" y2="20" gradientUnits="userSpaceOnUse">
<stop stop-color="#8E9CB6"/>
<stop offset="1" stop-color="#3C4B6C"/>
</linearGradient>
<linearGradient id="paint1_linear_314_88432" x1="14" y1="21" x2="14" y2="27" gradientUnits="userSpaceOnUse">
<stop stop-color="#95A2BE"/>
<stop offset="1" stop-color="#506AA2" stop-opacity="0"/>
</linearGradient>
<linearGradient id="paint2_linear_314_88432" x1="11" y1="6.5" x2="17" y2="16" gradientUnits="userSpaceOnUse">
<stop stop-color="white"/>
<stop offset="1" stop-color="white" stop-opacity="0.5"/>
</linearGradient>
</defs>
</svg>
