<svg width="52" height="52" viewBox="0 0 52 52" fill="none" xmlns="http://www.w3.org/2000/svg">
<rect width="52" height="52" rx="26" fill="white" fill-opacity="0.2"/>
<path d="M24.2936 14.0321L30.2669 14.8854L33.6803 16.5921L36.2403 22.5654V25.9788L34.5336 31.0988L31.9736 33.6588L25.1469 34.5121L19.1736 32.8054L15.7603 28.5388V22.5654L19.1736 16.5921L24.2936 14.0321Z" fill="white" fill-opacity="0.1"/>
<path d="M19.1733 24.2722C19.1733 21.5415 21.388 20.5595 22.5867 20.8588C25.1467 21.7121 25.1467 25.9788 22.5867 26.8322C21.4489 27.1166 19.1733 27.0028 19.1733 24.2722Z" fill="white"/>
<path d="M32.8352 24.3237C32.8352 21.593 30.6205 20.611 29.4219 20.9104C26.8619 21.7636 26.8619 26.0304 29.4219 26.8837C30.5596 27.1681 32.8352 27.0544 32.8352 24.3237Z" fill="white"/>
<path d="M13.2 25.1255H15.76" stroke="white" stroke-width="2.048" stroke-linecap="round"/>
<path d="M36.2397 25.1255H38.7997" stroke="white" stroke-width="2.048" stroke-linecap="round"/>
<path d="M26.0002 27.6854C29.2991 27.6856 31.9729 30.3602 31.9729 33.6591C31.9727 36.9578 29.299 39.6316 26.0002 39.6317C22.7014 39.6317 20.0268 36.9579 20.0266 33.6591C20.0266 30.3601 22.7013 27.6854 26.0002 27.6854ZM26.1018 35.6278C25.4133 35.6281 24.8549 36.1864 24.8547 36.8749C24.8547 37.5635 25.4132 38.1217 26.1018 38.1219C26.7906 38.1219 27.3499 37.5637 27.3499 36.8749C27.3497 36.1862 26.7905 35.6278 26.1018 35.6278ZM24.4817 34.6923C24.1372 34.0961 23.3749 33.8919 22.7786 34.2362C22.1822 34.5805 21.9776 35.3429 22.3215 35.9393C22.6659 36.5358 23.4291 36.7407 24.0256 36.3964C24.6222 36.052 24.8261 35.2888 24.4817 34.6923ZM29.426 34.2362C28.8297 33.8919 28.0674 34.0961 27.7229 34.6923C27.3785 35.2888 27.5824 36.052 28.179 36.3964C28.7755 36.7407 29.5387 36.5358 29.8831 35.9393C30.227 35.3429 30.0224 34.5805 29.426 34.2362ZM24.0256 31.118C23.4291 30.7737 22.6659 30.9786 22.3215 31.5751C21.9775 32.1715 22.1822 32.9339 22.7786 33.2782C23.3749 33.6225 24.1372 33.4183 24.4817 32.8221C24.8261 32.2256 24.6222 31.4624 24.0256 31.118ZM29.8831 31.5751C29.5387 30.9786 28.7755 30.7737 28.179 31.118C27.5824 31.4624 27.3785 32.2256 27.7229 32.8221C28.0674 33.4183 28.8297 33.6225 29.426 33.2782C30.0224 32.9339 30.227 32.1715 29.8831 31.5751ZM26.1018 29.3925C25.4132 29.3927 24.8547 29.9509 24.8547 30.6395C24.8549 31.3281 25.4133 31.8863 26.1018 31.8866C26.7905 31.8866 27.3497 31.3282 27.3499 30.6395C27.3499 29.9507 26.7906 29.3925 26.1018 29.3925Z" fill="white"/>
<path d="M26.0005 13.0077C30.6071 13.008 33.4911 14.9557 35.1763 17.5233C36.8186 20.0258 37.2642 23.0218 37.2642 25.1259C37.2641 26.9396 36.906 29.544 35.2651 31.7157C34.31 32.9798 32.9636 34.0392 31.1196 34.7196V32.4999C32.2498 31.9592 33.0538 31.2456 33.6313 30.4813C34.8914 28.8136 35.2163 26.7253 35.2163 25.1259C35.2163 23.2477 34.8087 20.6958 33.4644 18.6473C32.1629 16.6643 29.9267 15.0568 26.0005 15.0565C22.275 15.0563 20.0204 16.7672 18.6548 18.8583C17.2535 21.0041 16.7847 23.5726 16.7847 25.1259C16.7847 26.7253 17.1095 28.8136 18.3696 30.4813C18.947 31.2454 19.7508 31.9583 20.8804 32.4989V34.7196C19.0363 34.0392 17.69 32.9797 16.7349 31.7157C15.0941 29.544 14.7359 26.9396 14.7358 25.1259C14.7358 23.2659 15.2765 20.2866 16.9399 17.7391C18.6393 15.1369 21.5057 13.0075 26.0005 13.0077Z" fill="white"/>
</svg>
