<svg width="16" height="16" viewBox="0 0 16 16" fill="none" xmlns="http://www.w3.org/2000/svg">
<circle cx="8" cy="8" r="7.42857" stroke="#9CA3AF" stroke-width="1.14286"/>
<circle cx="8.00004" cy="4.57145" r="1.14286" fill="#9CA3AF"/>
<path d="M9.14313 7.42861C9.14313 7.11115 8.52637 6.85718 8.1152 6.85718C7.60123 6.85718 7.11437 6.95242 6.85739 7.42861C6.18062 8.68274 7.60124 7.52384 7.60124 8.00003C7.60124 8.47623 7.42881 9.14289 6.85739 10.2857C6.36292 11.2747 5.71455 12.5715 6.85739 12.5715C8.57173 12.5715 9.54324 11.9048 9.71456 11.4286C9.71456 11.1111 9.61636 10.5568 9.14313 10.8572C7.94284 11.6191 7.31389 12 8.5717 9.71432C9.15727 8.65022 9.14313 7.58734 9.14313 7.42861Z" fill="#9CA3AF"/>
</svg>
