<svg width="24" height="24" viewBox="0 0 24 24" fill="none" xmlns="http://www.w3.org/2000/svg">
<g opacity="0.8">
<path d="M16.4493 11.9537H19.721C20.0107 11.9537 20.199 12.2585 20.0695 12.5176L18.0392 16.5782C17.908 16.8407 17.5446 16.8693 17.3738 16.6306L15.4534 13.9457" stroke="#4B4B4B" stroke-linecap="round" stroke-linejoin="round"/>
<path d="M16.6802 9.74704C17.0649 9.9396 17.2208 10.4075 17.0284 10.7923L14.7523 15.3445C14.5598 15.7295 14.0916 15.8855 13.7066 15.6928L6.68129 12.1768C6.16869 11.9186 5.77924 11.4678 5.59815 10.9232C5.41707 10.3786 5.4591 9.78437 5.71505 9.27064L6.74075 7.19695C6.86859 6.94218 7.04537 6.71509 7.26098 6.52864C7.4766 6.3422 7.72683 6.20005 7.99739 6.11032C8.26795 6.0206 8.55353 5.98505 8.83783 6.00571C9.12213 6.02636 9.39957 6.10282 9.65432 6.23072L16.6802 9.74704Z" stroke="#4B4B4B" stroke-linecap="round" stroke-linejoin="round"/>
<path d="M10.1297 13.9246L8.78664 16.6107C8.65464 16.8747 8.38483 17.0414 8.08968 17.0414H5.84399" stroke="#4B4B4B" stroke-linecap="round" stroke-linejoin="round"/>
<path d="M5.84399 15.8726C5.84399 15.4423 5.49512 15.0934 5.06477 15.0934H4.28555V18.9895H5.06477C5.49512 18.9895 5.84399 18.6406 5.84399 18.2103V15.8726Z" fill="#4B4B4B"/>
<rect width="1.94805" height="1.16883" transform="matrix(-0.890665 -0.45466 -0.45466 0.890665 10.0166 9.3999)" fill="#4B4B4B"/>
</g>
</svg>
