<svg width="24" height="24" viewBox="0 0 24 24" fill="none" xmlns="http://www.w3.org/2000/svg">
<g opacity="0.8">
<path d="M5.16431 18.2142L18.8357 18.2142" stroke="#4B4B4B" stroke-width="0.942857" stroke-linecap="round" stroke-linejoin="round"/>
<path d="M14.4857 13.9679C14.4857 13.7963 14.6248 13.6572 14.7964 13.6572H15.4179C15.5895 13.6572 15.7286 13.7963 15.7286 13.9679V15.8322C15.7286 16.0038 15.5895 16.1429 15.4179 16.1429H14.7964C14.6248 16.1429 14.4857 16.0038 14.4857 15.8322V13.9679Z" fill="#4B4B4B"/>
<path d="M14.4857 11.6893C14.4857 11.5177 14.6248 11.3785 14.7964 11.3785H15.4179C15.5895 11.3785 15.7286 11.5177 15.7286 11.6893V12.3107C15.7286 12.4823 15.5895 12.6214 15.4179 12.6214H14.7964C14.6248 12.6214 14.4857 12.4823 14.4857 12.3107V11.6893Z" fill="#4B4B4B"/>
<path d="M8.58191 7.96062C8.58191 7.78901 8.72102 7.6499 8.89262 7.6499H10.1355C10.3071 7.6499 10.4462 7.78901 10.4462 7.96062V9.20347C10.4462 9.37508 10.3071 9.51419 10.1355 9.51419H8.89262C8.72102 9.51419 8.58191 9.37508 8.58191 9.20347V7.96062Z" fill="#4B4B4B"/>
<path d="M8.58191 11.0678C8.58191 10.8962 8.72102 10.757 8.89262 10.757H10.1355C10.3071 10.757 10.4462 10.8962 10.4462 11.0678V12.3106C10.4462 12.4822 10.3071 12.6213 10.1355 12.6213H8.89262C8.72102 12.6213 8.58191 12.4822 8.58191 12.3106V11.0678Z" fill="#4B4B4B"/>
<path d="M8.58191 14.1749C8.58191 14.0033 8.72102 13.8642 8.89262 13.8642H10.1355C10.3071 13.8642 10.4462 14.0033 10.4462 14.1749V15.4178C10.4462 15.5894 10.3071 15.7285 10.1355 15.7285H8.89262C8.72102 15.7285 8.58191 15.5894 8.58191 15.4178V14.1749Z" fill="#4B4B4B"/>
<path d="M6.40723 7.02862C6.40723 6.34221 6.96367 5.78577 7.65008 5.78577H11.3787C12.0651 5.78577 12.6215 6.34221 12.6215 7.02862V18.2143H6.40723V7.02862Z" stroke="#4B4B4B" stroke-width="0.942857" stroke-linejoin="round"/>
<path d="M12.6216 9.51425C12.6216 9.17104 12.8998 8.89282 13.243 8.89282H14.8352C15.0087 8.89282 15.1742 8.9653 15.2918 9.09275L17.4282 11.4071C17.5342 11.5219 17.593 11.6724 17.593 11.8286V17.5928C17.593 17.936 17.3148 18.2143 16.9716 18.2143H13.243C12.8998 18.2143 12.6216 17.936 12.6216 17.5928V9.51425Z" stroke="#4B4B4B" stroke-width="0.942857" stroke-linejoin="round"/>
</g>
</svg>
