<svg width="18" height="18" viewBox="0 0 18 18" fill="none" xmlns="http://www.w3.org/2000/svg">
<g opacity="0.9">
<path d="M2.4751 14.9316L15.5251 14.9316" stroke="white" stroke-width="0.9" stroke-linecap="round" stroke-linejoin="round"/>
<path d="M11.3728 10.8783C11.3728 10.7145 11.5056 10.5817 11.6694 10.5817H12.2626C12.4264 10.5817 12.5592 10.7145 12.5592 10.8783V12.6578C12.5592 12.8216 12.4264 12.9544 12.2626 12.9544H11.6694C11.5056 12.9544 11.3728 12.8216 11.3728 12.6578V10.8783Z" fill="white"/>
<path d="M11.3728 8.70321C11.3728 8.5394 11.5056 8.40662 11.6694 8.40662H12.2626C12.4264 8.40662 12.5592 8.5394 12.5592 8.70321V9.29639C12.5592 9.46019 12.4264 9.59298 12.2626 9.59298H11.6694C11.5056 9.59298 11.3728 9.46019 11.3728 9.29639V8.70321Z" fill="white"/>
<path d="M5.73755 5.14449C5.73755 4.98069 5.87034 4.8479 6.03414 4.8479H7.2205C7.38431 4.8479 7.51709 4.98069 7.51709 5.14449V6.33086C7.51709 6.49466 7.38431 6.62745 7.2205 6.62745H6.03414C5.87034 6.62745 5.73755 6.49466 5.73755 6.33086V5.14449Z" fill="white"/>
<path d="M5.73755 8.1104C5.73755 7.9466 5.87034 7.81381 6.03414 7.81381H7.2205C7.38431 7.81381 7.51709 7.9466 7.51709 8.1104V9.29676C7.51709 9.46057 7.38431 9.59336 7.2205 9.59336H6.03414C5.87034 9.59336 5.73755 9.46057 5.73755 9.29676V8.1104Z" fill="white"/>
<path d="M5.73755 11.0763C5.73755 10.9125 5.87034 10.7797 6.03414 10.7797H7.2205C7.38431 10.7797 7.51709 10.9125 7.51709 11.0763V12.2627C7.51709 12.4265 7.38431 12.5593 7.2205 12.5593H6.03414C5.87034 12.5593 5.73755 12.4265 5.73755 12.2627V11.0763Z" fill="white"/>
<path d="M3.66162 4.25448C3.66162 3.59927 4.19277 3.06812 4.84798 3.06812H8.40708C9.06229 3.06812 9.59344 3.59927 9.59344 4.25448V14.9318H3.66162V4.25448Z" fill="white" fill-opacity="0.5"/>
<path d="M9.59338 6.62712C9.59338 6.29951 9.85896 6.03394 10.1866 6.03394H11.7064C11.872 6.03394 12.03 6.10312 12.1423 6.22477L14.1815 8.43397C14.2827 8.54355 14.3388 8.68719 14.3388 8.83631V14.3385C14.3388 14.6661 14.0733 14.9317 13.7457 14.9317H10.1866C9.85896 14.9317 9.59338 14.6661 9.59338 14.3385V6.62712Z" fill="white" fill-opacity="0.3"/>
</g>
</svg>
