<svg width="28" height="28" viewBox="0 0 28 28" fill="none" xmlns="http://www.w3.org/2000/svg">
<g opacity="0.8">
<path d="M6.0249 21.25L21.9749 21.25" stroke="white" stroke-width="1.1" stroke-linecap="round" stroke-linejoin="round"/>
<path d="M16.8999 16.2959C16.8999 16.0957 17.0622 15.9334 17.2624 15.9334H17.9874C18.1876 15.9334 18.3499 16.0957 18.3499 16.2959V18.4709C18.3499 18.6711 18.1876 18.8334 17.9874 18.8334H17.2624C17.0622 18.8334 16.8999 18.6711 16.8999 18.4709V16.2959Z" fill="white"/>
<path d="M16.8999 13.6375C16.8999 13.4373 17.0622 13.275 17.2624 13.275H17.9874C18.1876 13.275 18.3499 13.4373 18.3499 13.6375V14.3625C18.3499 14.5627 18.1876 14.725 17.9874 14.725H17.2624C17.0622 14.725 16.8999 14.5627 16.8999 14.3625V13.6375Z" fill="white"/>
<path d="M10.0125 9.28743C10.0125 9.08722 10.1747 8.92493 10.375 8.92493H11.825C12.0252 8.92493 12.1875 9.08722 12.1875 9.28743V10.7374C12.1875 10.9376 12.0252 11.0999 11.825 11.0999H10.375C10.1747 11.0999 10.0125 10.9376 10.0125 10.7374V9.28743Z" fill="white"/>
<path d="M10.0125 12.9124C10.0125 12.7122 10.1747 12.5499 10.375 12.5499H11.825C12.0252 12.5499 12.1875 12.7122 12.1875 12.9124V14.3624C12.1875 14.5626 12.0252 14.7249 11.825 14.7249H10.375C10.1747 14.7249 10.0125 14.5626 10.0125 14.3624V12.9124Z" fill="white"/>
<path d="M10.0125 16.5374C10.0125 16.3372 10.1747 16.1749 10.375 16.1749H11.825C12.0252 16.1749 12.1875 16.3372 12.1875 16.5374V17.9874C12.1875 18.1876 12.0252 18.3499 11.825 18.3499H10.375C10.1747 18.3499 10.0125 18.1876 10.0125 17.9874V16.5374Z" fill="white"/>
<path d="M7.47498 8.2C7.47498 7.39919 8.12416 6.75 8.92498 6.75H13.275C14.0758 6.75 14.725 7.39919 14.725 8.2V21.25H7.47498V8.2Z" fill="white" fill-opacity="0.2" stroke="white" stroke-width="1.1" stroke-linejoin="round"/>
<path d="M14.725 11.1C14.725 10.6996 15.0496 10.375 15.45 10.375H17.3075C17.5099 10.375 17.703 10.4596 17.8403 10.6082L20.3327 13.3084C20.4563 13.4423 20.525 13.6179 20.525 13.8001V20.525C20.525 20.9254 20.2004 21.25 19.8 21.25H15.45C15.0496 21.25 14.725 20.9254 14.725 20.525V11.1Z" fill="white" fill-opacity="0.2" stroke="white" stroke-width="1.1" stroke-linejoin="round"/>
</g>
</svg>
