<svg width="28" height="28" viewBox="0 0 28 28" fill="none" xmlns="http://www.w3.org/2000/svg">
<path d="M13.6696 3.48987C15.3476 3.43055 17.0106 3.8242 18.484 4.62952C19.9574 5.43484 21.1874 6.62158 22.0436 8.06604C22.8462 9.42023 23.2923 10.9541 23.3444 12.524L23.3502 12.8385C23.3493 14.63 22.8328 16.3834 21.8639 17.8903C20.8681 19.4389 19.1148 21.2776 17.4547 22.8063C16.6285 23.5671 15.834 24.2444 15.1803 24.7614C14.6668 25.1674 14.2599 25.4564 13.9996 25.6168C13.7449 25.4593 13.3531 25.1785 12.859 24.7858C12.228 24.2842 11.4618 23.6299 10.6627 22.8951C9.05865 21.4201 7.34819 19.6483 6.31897 18.1656C5.36149 16.7863 4.79303 15.1745 4.67346 13.4996C4.55396 11.8249 4.88748 10.1484 5.63928 8.64709C6.39126 7.14568 7.53401 5.87388 8.9469 4.96643C10.3598 4.05898 11.9914 3.54923 13.6696 3.48987Z" fill="#3B82F6"/>
<path d="M13.6696 3.48987C15.3476 3.43055 17.0106 3.8242 18.484 4.62952C19.9574 5.43484 21.1874 6.62158 22.0436 8.06604C22.8462 9.42023 23.2923 10.9541 23.3444 12.524L23.3502 12.8385C23.3493 14.63 22.8328 16.3834 21.8639 17.8903C20.8681 19.4389 19.1148 21.2776 17.4547 22.8063C16.6285 23.5671 15.834 24.2444 15.1803 24.7614C14.6668 25.1674 14.2599 25.4564 13.9996 25.6168C13.7449 25.4593 13.3531 25.1785 12.859 24.7858C12.228 24.2842 11.4618 23.6299 10.6627 22.8951C9.05865 21.4201 7.34819 19.6483 6.31897 18.1656C5.36149 16.7863 4.79303 15.1745 4.67346 13.4996C4.55396 11.8249 4.88748 10.1484 5.63928 8.64709C6.39126 7.14568 7.53401 5.87388 8.9469 4.96643C10.3598 4.05898 11.9914 3.54923 13.6696 3.48987Z" fill="#EFF5FF"/>
<path d="M13.6696 3.48987C15.3476 3.43055 17.0106 3.8242 18.484 4.62952C19.9574 5.43484 21.1874 6.62158 22.0436 8.06604C22.8462 9.42023 23.2923 10.9541 23.3444 12.524L23.3502 12.8385C23.3493 14.63 22.8328 16.3834 21.8639 17.8903C20.8681 19.4389 19.1148 21.2776 17.4547 22.8063C16.6285 23.5671 15.834 24.2444 15.1803 24.7614C14.6668 25.1674 14.2599 25.4564 13.9996 25.6168C13.7449 25.4593 13.3531 25.1785 12.859 24.7858C12.228 24.2842 11.4618 23.6299 10.6627 22.8951C9.05865 21.4201 7.34819 19.6483 6.31897 18.1656C5.36149 16.7863 4.79303 15.1745 4.67346 13.4996C4.55396 11.8249 4.88748 10.1484 5.63928 8.64709C6.39126 7.14568 7.53401 5.87388 8.9469 4.96643C10.3598 4.05898 11.9914 3.54923 13.6696 3.48987Z" fill="#F0FFEE"/>
<path d="M13.6696 3.48987C15.3476 3.43055 17.0106 3.8242 18.484 4.62952C19.9574 5.43484 21.1874 6.62158 22.0436 8.06604C22.8462 9.42023 23.2923 10.9541 23.3444 12.524L23.3502 12.8385C23.3493 14.63 22.8328 16.3834 21.8639 17.8903C20.8681 19.4389 19.1148 21.2776 17.4547 22.8063C16.6285 23.5671 15.834 24.2444 15.1803 24.7614C14.6668 25.1674 14.2599 25.4564 13.9996 25.6168C13.7449 25.4593 13.3531 25.1785 12.859 24.7858C12.228 24.2842 11.4618 23.6299 10.6627 22.8951C9.05865 21.4201 7.34819 19.6483 6.31897 18.1656C5.36149 16.7863 4.79303 15.1745 4.67346 13.4996C4.55396 11.8249 4.88748 10.1484 5.63928 8.64709C6.39126 7.14568 7.53401 5.87388 8.9469 4.96643C10.3598 4.05898 11.9914 3.54923 13.6696 3.48987Z" stroke="#3B82F6" stroke-width="0.9" stroke-linejoin="round"/>
<path d="M13.6696 3.48987C15.3476 3.43055 17.0106 3.8242 18.484 4.62952C19.9574 5.43484 21.1874 6.62158 22.0436 8.06604C22.8462 9.42023 23.2923 10.9541 23.3444 12.524L23.3502 12.8385C23.3493 14.63 22.8328 16.3834 21.8639 17.8903C20.8681 19.4389 19.1148 21.2776 17.4547 22.8063C16.6285 23.5671 15.834 24.2444 15.1803 24.7614C14.6668 25.1674 14.2599 25.4564 13.9996 25.6168C13.7449 25.4593 13.3531 25.1785 12.859 24.7858C12.228 24.2842 11.4618 23.6299 10.6627 22.8951C9.05865 21.4201 7.34819 19.6483 6.31897 18.1656C5.36149 16.7863 4.79303 15.1745 4.67346 13.4996C4.55396 11.8249 4.88748 10.1484 5.63928 8.64709C6.39126 7.14568 7.53401 5.87388 8.9469 4.96643C10.3598 4.05898 11.9914 3.54923 13.6696 3.48987Z" stroke="#76D066" stroke-width="0.9" stroke-linejoin="round"/>
<path opacity="0.75" d="M13.2274 14.2552C13.2274 14.5789 13.2274 14.8378 13.2274 15.2262C13.2274 15.7117 12.9847 16.4399 12.0138 16.4399C11.237 16.4399 11.5799 16.4399 10.8517 16.4399" stroke="#76D066" stroke-width="0.704845"/>
<g opacity="0.75">
<mask id="path-3-inside-1_507_88204" fill="white">
<path d="M9.71545 14.9863H10.3134C10.6134 14.9863 10.8566 15.2295 10.8566 15.5295V17.3559C10.8566 17.6559 10.6134 17.8991 10.3134 17.8991H9.71545V14.9863Z"/>
</mask>
<path d="M9.71545 14.9863H10.3134C10.6134 14.9863 10.8566 15.2295 10.8566 15.5295V17.3559C10.8566 17.6559 10.6134 17.8991 10.3134 17.8991H9.71545V14.9863Z" stroke="#76D066" stroke-width="1.14118" mask="url(#path-3-inside-1_507_88204)"/>
</g>
<path d="M17.2613 14.3814C17.1653 14.1209 17.3377 13.8366 17.6212 13.7879L19.6006 13.448C19.9866 13.3818 20.271 13.7802 20.072 14.1084L18.7629 16.2675C18.5639 16.5957 18.0624 16.5554 17.9317 16.2006L17.2613 14.3814Z" fill="url(#paint0_linear_507_88204)"/>
<path d="M13.0381 8.43637L18.2674 11.3376C18.6712 11.5618 18.8042 12.0612 18.5645 12.4532L16.5609 15.7298C16.3211 16.1218 15.7995 16.2584 15.3956 16.0344L10.1662 13.1331C9.76228 12.909 9.62943 12.4097 9.86916 12.0176L11.8719 8.7406C12.1116 8.34851 12.6341 8.21228 13.0381 8.43637ZM12.0314 11.5783L13.5343 12.4133L14.0608 11.5514L12.557 10.716L12.0314 11.5783Z" fill="#76D066"/>
<defs>
<linearGradient id="paint0_linear_507_88204" x1="19.1964" y1="15.1832" x2="16.2796" y2="13.2622" gradientUnits="userSpaceOnUse">
<stop offset="0.130825" stop-color="#76D066"/>
<stop offset="1" stop-color="#76D066" stop-opacity="0.25"/>
</linearGradient>
</defs>
</svg>
