<svg width="28" height="28" viewBox="0 0 28 28" fill="none" xmlns="http://www.w3.org/2000/svg">
<rect x="8.10059" y="9.26367" width="11.8" height="10.6364" rx="1.82727" stroke="white"/>
<rect width="1" height="3.2" rx="0.5" transform="matrix(-1 0 0 1 11.6006 7.59998)" fill="white"/>
<rect width="11.272" height="1" transform="matrix(-1 0 0 1 19.6729 12.3999)" fill="white"/>
<rect width="1.28006" height="1.28006" transform="matrix(-1 0 0 1 17.2017 14.4069)" fill="white"/>
<rect width="1.28006" height="1.28006" transform="matrix(-1 0 0 1 14.6421 14.4069)" fill="white"/>
<rect width="1.28006" height="1.28006" transform="matrix(-1 0 0 1 14.6421 16.9679)" fill="white"/>
<rect width="1.28006" height="1.28006" transform="matrix(-1 0 0 1 12.0823 16.9679)" fill="white"/>
<rect width="1" height="3.2" rx="0.5" transform="matrix(-1 0 0 1 17.4 7.59998)" fill="white"/>
</svg>
