<svg width="28" height="28" viewBox="0 0 28 28" fill="none" xmlns="http://www.w3.org/2000/svg">
<path d="M13.6696 3.48987C15.3476 3.43055 17.0106 3.8242 18.484 4.62952C19.9574 5.43484 21.1874 6.62158 22.0436 8.06604C22.8462 9.42023 23.2923 10.9541 23.3444 12.524L23.3502 12.8385C23.3493 14.63 22.8328 16.3834 21.8639 17.8903C20.8681 19.4389 19.1148 21.2776 17.4547 22.8063C16.6285 23.5671 15.834 24.2444 15.1803 24.7614C14.6668 25.1674 14.2599 25.4564 13.9996 25.6168C13.7449 25.4593 13.3531 25.1785 12.859 24.7858C12.228 24.2842 11.4618 23.6299 10.6627 22.8951C9.05865 21.4201 7.34819 19.6483 6.31897 18.1656C5.36149 16.7863 4.79303 15.1745 4.67346 13.4996C4.55396 11.8249 4.88748 10.1484 5.63928 8.64709C6.39126 7.14568 7.53401 5.87388 8.9469 4.96643C10.3598 4.05898 11.9914 3.54923 13.6696 3.48987Z" fill="#3B82F6"/>
<path d="M13.6696 3.48987C15.3476 3.43055 17.0106 3.8242 18.484 4.62952C19.9574 5.43484 21.1874 6.62158 22.0436 8.06604C22.8462 9.42023 23.2923 10.9541 23.3444 12.524L23.3502 12.8385C23.3493 14.63 22.8328 16.3834 21.8639 17.8903C20.8681 19.4389 19.1148 21.2776 17.4547 22.8063C16.6285 23.5671 15.834 24.2444 15.1803 24.7614C14.6668 25.1674 14.2599 25.4564 13.9996 25.6168C13.7449 25.4593 13.3531 25.1785 12.859 24.7858C12.228 24.2842 11.4618 23.6299 10.6627 22.8951C9.05865 21.4201 7.34819 19.6483 6.31897 18.1656C5.36149 16.7863 4.79303 15.1745 4.67346 13.4996C4.55396 11.8249 4.88748 10.1484 5.63928 8.64709C6.39126 7.14568 7.53401 5.87388 8.9469 4.96643C10.3598 4.05898 11.9914 3.54923 13.6696 3.48987Z" fill="#EFF5FF"/>
<path d="M13.6696 3.48987C15.3476 3.43055 17.0106 3.8242 18.484 4.62952C19.9574 5.43484 21.1874 6.62158 22.0436 8.06604C22.8462 9.42023 23.2923 10.9541 23.3444 12.524L23.3502 12.8385C23.3493 14.63 22.8328 16.3834 21.8639 17.8903C20.8681 19.4389 19.1148 21.2776 17.4547 22.8063C16.6285 23.5671 15.834 24.2444 15.1803 24.7614C14.6668 25.1674 14.2599 25.4564 13.9996 25.6168C13.7449 25.4593 13.3531 25.1785 12.859 24.7858C12.228 24.2842 11.4618 23.6299 10.6627 22.8951C9.05865 21.4201 7.34819 19.6483 6.31897 18.1656C5.36149 16.7863 4.79303 15.1745 4.67346 13.4996C4.55396 11.8249 4.88748 10.1484 5.63928 8.64709C6.39126 7.14568 7.53401 5.87388 8.9469 4.96643C10.3598 4.05898 11.9914 3.54923 13.6696 3.48987Z" stroke="#3B82F6" stroke-width="0.9" stroke-linejoin="round"/>
<path opacity="0.75" d="M13.2274 14.2552C13.2274 14.5789 13.2274 14.8378 13.2274 15.2262C13.2274 15.7117 12.9847 16.4399 12.0138 16.4399C11.237 16.4399 11.5799 16.4399 10.8517 16.4399" stroke="#3B82F6" stroke-width="0.704845"/>
<g opacity="0.75">
<mask id="path-3-inside-1_507_88205" fill="white">
<path d="M9.71545 14.9863H10.3134C10.6134 14.9863 10.8566 15.2295 10.8566 15.5295V17.3559C10.8566 17.6559 10.6134 17.8991 10.3134 17.8991H9.71545V14.9863Z"/>
</mask>
<path d="M9.71545 14.9863H10.3134C10.6134 14.9863 10.8566 15.2295 10.8566 15.5295V17.3559C10.8566 17.6559 10.6134 17.8991 10.3134 17.8991H9.71545V14.9863Z" stroke="#3B82F6" stroke-width="1.14118" mask="url(#path-3-inside-1_507_88205)"/>
</g>
<path d="M17.2612 14.3814C17.1652 14.1209 17.3376 13.8366 17.6211 13.7879L19.6005 13.448C19.9865 13.3818 20.2709 13.7802 20.0719 14.1084L18.7628 16.2675C18.5638 16.5957 18.0623 16.5554 17.9316 16.2006L17.2612 14.3814Z" fill="url(#paint0_linear_507_88205)"/>
<path d="M13.0374 8.43575L18.2668 11.337C18.6707 11.5611 18.8043 12.0608 18.5648 12.4529L16.5605 15.7303C16.3207 16.1221 15.7997 16.258 15.3958 16.0341L10.1659 13.1336C9.76191 12.9095 9.62879 12.409 9.86851 12.017L11.8722 8.74034C12.1118 8.34849 12.6336 8.21201 13.0374 8.43575ZM12.0307 11.5777L13.5345 12.413L14.0604 11.5519L12.5566 10.7165L12.0307 11.5777Z" fill="#3B82F6"/>
<defs>
<linearGradient id="paint0_linear_507_88205" x1="19.1963" y1="15.1832" x2="16.2795" y2="13.2622" gradientUnits="userSpaceOnUse">
<stop offset="0.130825" stop-color="#3B82F6"/>
<stop offset="1" stop-color="#3B82F6" stop-opacity="0.25"/>
</linearGradient>
</defs>
</svg>
