<svg width="22" height="22" viewBox="0 0 22 22" fill="none" xmlns="http://www.w3.org/2000/svg">
<path opacity="0.87" d="M11 4.58325C15.375 4.58325 19.1112 7.3045 20.625 11.1458C19.1112 14.987 15.375 17.7083 11 17.7083C6.625 17.7083 2.88875 14.987 1.375 11.1458C2.88875 7.3045 6.625 4.58325 11 4.58325ZM3.2825 11.1458C4.72625 14.0858 7.71 15.9583 11 15.9583C14.29 15.9583 17.2737 14.0858 18.7175 11.1458C17.2737 8.20575 14.29 6.33325 11 6.33325C7.71 6.33325 4.72625 8.20575 3.2825 11.1458Z" fill="#F3F4F6"/>
<path d="M12.8564 9.28923C12.3641 8.79695 11.6964 8.52039 11.0002 8.52039C10.3041 8.52039 9.63637 8.79695 9.14409 9.28923C8.65181 9.78151 8.37524 10.4492 8.37524 11.1454C8.37524 11.8416 8.65181 12.5093 9.14409 13.0015C9.63637 13.4938 10.3041 13.7704 11.0002 13.7704C11.6964 13.7704 12.3641 13.4938 12.8564 13.0015C13.3487 12.5093 13.6252 11.8416 13.6252 11.1454C13.6252 10.4492 13.3487 9.78151 12.8564 9.28923Z" fill="#F3F4F6"/>
</svg>
