<svg width="16" height="16" viewBox="0 0 16 16" fill="none" xmlns="http://www.w3.org/2000/svg">
<path d="M5 4.5V3C5 2.44772 5.44772 2 6 2H13C13.5523 2 14 2.44772 14 3V13C14 13.5523 13.5523 14 13 14H6C5.44772 14 5 13.5523 5 13V11.5" stroke="white"/>
<rect x="1.5" y="4.5" width="7" height="7" rx="1" stroke="white"/>
<path d="M4 7L6 9" stroke="white" stroke-linecap="round"/>
<path d="M4 9L6 7" stroke="white" stroke-linecap="round"/>
<path d="M11.5 14L11.5 2" stroke="white"/>
<path d="M8 5L14 5" stroke="white"/>
<path d="M8 8L14 8" stroke="white"/>
<path d="M8 11L14 11" stroke="white"/>
</svg>
