<svg width="22" height="22" viewBox="0 0 22 22" fill="none" xmlns="http://www.w3.org/2000/svg">
<path d="M11 3.94177C15.375 3.94177 19.1112 6.66302 20.625 10.5043C19.1112 14.3455 15.375 17.0668 11 17.0668C6.625 17.0668 2.88875 14.3455 1.375 10.5043C2.88875 6.66302 6.625 3.94177 11 3.94177ZM3.2825 10.5043C4.72625 13.4443 7.71 15.3168 11 15.3168C14.29 15.3168 17.2737 13.4443 18.7175 10.5043C17.2737 7.56427 14.29 5.69177 11 5.69177C7.71 5.69177 4.72625 7.56427 3.2825 10.5043Z" fill="#F3F4F6"/>
<path d="M12.8564 8.64787C12.3641 8.15559 11.6964 7.87903 11.0002 7.87903C10.3041 7.87903 9.63637 8.15559 9.14409 8.64787C8.65181 9.14016 8.37524 9.80784 8.37524 10.504C8.37524 11.2002 8.65181 11.8679 9.14409 12.3602C9.63637 12.8525 10.3041 13.129 11.0002 13.129C11.6964 13.129 12.3641 12.8525 12.8564 12.3602C13.3487 11.8679 13.6252 11.2002 13.6252 10.504C13.6252 9.80784 13.3487 9.14016 12.8564 8.64787Z" fill="#F3F4F6"/>
<path d="M18.7916 2.75L3.20825 18.3333" stroke="#F3F4F6" stroke-width="1.83333" stroke-linecap="round"/>
</svg>
