<svg width="20" height="20" viewBox="0 0 20 20" fill="none" xmlns="http://www.w3.org/2000/svg">
<path d="M10 2.10815C11.6572 3.82042 13.0327 5.5749 14.0107 7.28491C15.0737 9.14341 15.6504 10.9142 15.6504 12.4998C15.6504 15.6202 13.1204 18.1501 10 18.1501C6.87959 18.1501 4.34961 15.6202 4.34961 12.4998C4.34961 10.9142 4.92634 9.14341 5.98926 7.28491C6.96732 5.5749 8.34276 3.82042 10 2.10815Z" stroke="#F7635C" stroke-width="1.2"/>
<path d="M6.25 14.9562C6.25 16.6509 7.60572 18.3455 9.97824 18.3455C11.6729 18.3455 13.4353 16.922 13.7065 15.2952C13.9776 13.6683 12.9156 12.5837 12.3508 12.2448C12.0796 13.6005 10.8821 13.9394 10.3172 13.9394C10.5431 13.6005 10.995 12.5159 10.995 10.8891C10.995 9.2622 9.41335 7.95166 8.62252 7.49976C9.30038 8.85548 9.30038 10.2112 8.28359 11.228C7.26679 12.2448 6.25 13.2616 6.25 14.9562Z" fill="url(#paint0_linear_321_17512)"/>
<defs>
<linearGradient id="paint0_linear_321_17512" x1="10" y1="7.49976" x2="10" y2="18.3455" gradientUnits="userSpaceOnUse">
<stop offset="0.588542" stop-color="#F7635C"/>
<stop offset="1" stop-color="#F7635C" stop-opacity="0.75"/>
</linearGradient>
</defs>
</svg>
