<svg width="20" height="20" viewBox="0 0 20 20" fill="none" xmlns="http://www.w3.org/2000/svg">
<path d="M7.67404 7.67318L9.00521 1.90479L11.2238 7.22946L14.3299 3.67968L13.4424 7.67318L16.9922 7.22946L12.9987 10.3355L17.8797 12.1104L13.4424 12.9979L15.2173 18.3225L10.7801 14.329L10.3364 16.9914L9.00521 15.2165L7.67404 17.8788L7.23032 14.329L2.79309 16.1039L5.45542 12.1104L1.90564 9.00435L5.89915 9.44808L5.0117 5.89829L7.67404 7.67318Z" stroke="white" stroke-width="1.14286" stroke-linejoin="round"/>
<path opacity="0.75" d="M9.00523 9.89183L9.44896 7.67322L10.3364 9.44811L12.555 8.56066L10.7801 10.7793L12.555 12.9979L10.3364 12.1104L9.44896 13.8853L9.00523 12.1104L6.78662 12.9979L8.11779 11.6667L6.3429 10.7793L8.11779 10.3356L7.23034 9.00439L9.00523 9.89183Z" fill="white"/>
</svg>
