<svg width="21" height="20" viewBox="0 0 21 20" fill="none" xmlns="http://www.w3.org/2000/svg">
<path d="M10.25 2.1084C11.9072 3.82066 13.2827 5.57515 14.2607 7.28516C15.3237 9.14365 15.9004 10.9145 15.9004 12.5C15.9004 15.6204 13.3704 18.1504 10.25 18.1504C7.12959 18.1504 4.59961 15.6204 4.59961 12.5C4.59961 10.9145 5.17634 9.14365 6.23926 7.28516C7.21732 5.57515 8.59276 3.82066 10.25 2.1084Z" stroke="#54B6E8" stroke-width="1.2"/>
<path d="M6.5 14.9565C6.5 16.6511 7.85572 18.3458 10.2282 18.3458C11.9229 18.3458 13.6853 16.9223 13.9565 15.2954C14.2276 13.6685 13.1656 12.584 12.6008 12.245C12.3296 13.6008 11.1321 13.9397 10.5672 13.9397C10.7931 13.6008 11.245 12.5162 11.245 10.8893C11.245 9.26244 9.66335 7.95191 8.87252 7.5C9.55038 8.85572 9.55038 10.2114 8.53359 11.2282C7.51679 12.245 6.5 13.2618 6.5 14.9565Z" fill="url(#paint0_linear_647_87139)"/>
<defs>
<linearGradient id="paint0_linear_647_87139" x1="10.25" y1="7.5" x2="10.25" y2="18.3458" gradientUnits="userSpaceOnUse">
<stop offset="0.588542" stop-color="#54B6E8"/>
<stop offset="1" stop-color="#54B6E8" stop-opacity="0.75"/>
</linearGradient>
</defs>
</svg>
