<svg width="21" height="20" viewBox="0 0 21 20" fill="none" xmlns="http://www.w3.org/2000/svg">
<path d="M8.17465 7.67318L9.50582 1.90479L11.7244 7.22946L14.8305 3.67968L13.943 7.67318L17.4928 7.22946L13.4993 10.3355L18.3803 12.1104L13.943 12.9979L15.7179 18.3225L11.2807 14.329L10.837 16.9914L9.50582 15.2165L8.17465 17.8788L7.73093 14.329L3.2937 16.1039L5.95603 12.1104L2.40625 9.00435L6.39976 9.44808L5.51231 5.89829L8.17465 7.67318Z" stroke="#54B6E8" stroke-width="1.14286" stroke-linejoin="round"/>
<path opacity="0.75" d="M9.50609 9.89195L9.94981 7.67334L10.8373 9.44823L13.0559 8.56079L11.281 10.7794L13.0559 12.998L10.8373 12.1106L9.94981 13.8855L9.50609 12.1106L7.28747 12.998L8.61864 11.6668L6.84375 10.7794L8.61864 10.3357L7.7312 9.00451L9.50609 9.89195Z" fill="#54B6E8"/>
</svg>
