<svg width="20" height="20" viewBox="0 0 20 20" fill="none" xmlns="http://www.w3.org/2000/svg">
<path d="M8.93331 2.52002L12.6666 3.05335L14.8 4.12002L16.4 7.85335V9.98669L15.3333 13.1867L13.7333 14.7867L9.46664 15.32L5.73331 14.2534L3.59998 11.5867V7.85335L5.73331 4.12002L8.93331 2.52002Z" fill="#FF94CF" fill-opacity="0.1"/>
<path d="M5.73328 8.92005C5.73328 7.21338 7.11744 6.59965 7.86661 6.78672C9.46661 7.32002 9.46661 9.98672 7.86661 10.5201C7.1555 10.6978 5.73328 10.6267 5.73328 8.92005Z" fill="#FF94CF"/>
<path d="M14.2719 8.95228C14.2719 7.24561 12.8877 6.63188 12.1385 6.81894C10.5385 7.35225 10.5385 10.0189 12.1385 10.5523C12.8496 10.7301 14.2719 10.6589 14.2719 8.95228Z" fill="#FF94CF"/>
<path d="M2 9.45337H3.6" stroke="#FF94CF" stroke-width="1.28" stroke-linecap="round"/>
<path d="M16.4 9.45337H18" stroke="#FF94CF" stroke-width="1.28" stroke-linecap="round"/>
<path d="M10.0001 11.0533C12.062 11.0534 13.7335 12.7249 13.7335 14.7867C13.7335 16.8486 12.0619 18.5201 10.0001 18.5201C7.93828 18.5201 6.26676 16.8486 6.26672 14.7867C6.26672 12.7249 7.93826 11.0533 10.0001 11.0533ZM10.0646 16.0172C9.63421 16.0172 9.28451 16.3662 9.2843 16.7965C9.2843 17.227 9.63408 17.5768 10.0646 17.5768C10.4949 17.5765 10.8439 17.2269 10.8439 16.7965C10.8437 16.3663 10.4947 16.0175 10.0646 16.0172ZM9.05188 15.4332C8.83663 15.0604 8.35927 14.9318 7.98645 15.1471C7.61367 15.3624 7.48606 15.8397 7.70129 16.2125C7.9165 16.5851 8.39302 16.7126 8.76575 16.4977C9.13841 16.2825 9.26675 15.806 9.05188 15.4332ZM12.1417 15.1471C11.7689 14.9319 11.2915 15.0604 11.0763 15.4332C10.8614 15.806 10.9898 16.2825 11.3624 16.4977C11.7351 16.7126 12.2117 16.5851 12.4269 16.2125C12.6421 15.8397 12.5145 15.3623 12.1417 15.1471ZM8.76575 13.1989C8.39297 12.9839 7.91648 13.1113 7.70129 13.484C7.48613 13.8567 7.61394 14.3331 7.98645 14.5485C8.35927 14.7637 8.83663 14.6361 9.05188 14.2633C9.26685 13.8905 9.13845 13.414 8.76575 13.1989ZM12.4269 13.484C12.2117 13.1113 11.7352 12.9838 11.3624 13.1989C10.9897 13.414 10.8614 13.8905 11.0763 14.2633C11.2915 14.6361 11.7689 14.7637 12.1417 14.5485C12.5143 14.3331 12.6421 13.8567 12.4269 13.484ZM10.0646 12.1198C9.63422 12.1198 9.28453 12.4687 9.2843 12.899C9.2843 13.3295 9.63408 13.6793 10.0646 13.6793C10.4949 13.6791 10.8439 13.3294 10.8439 12.899C10.8436 12.4689 10.4947 12.12 10.0646 12.1198Z" fill="#FF94CF"/>
<path d="M10.0005 1.88037C12.8796 1.88064 14.6817 3.09781 15.7349 4.70264C16.7612 6.26667 17.0405 8.1386 17.0405 9.45361C17.0405 10.5872 16.8161 12.2154 15.7905 13.5728C15.1936 14.3626 14.352 15.0237 13.1997 15.4487V14.0601C13.9054 13.7221 14.4083 13.2778 14.769 12.8003C15.5566 11.758 15.7602 10.4532 15.7603 9.45361C15.7603 8.27991 15.5055 6.68502 14.6655 5.40479C13.8522 4.1654 12.4542 3.15993 10.0005 3.15967C7.67206 3.15956 6.26316 4.2297 5.40967 5.53662C4.53387 6.87777 4.23975 8.4828 4.23975 9.45361C4.23977 10.4532 4.44348 11.758 5.23096 12.8003C5.59171 13.2777 6.09456 13.7221 6.80029 14.0601V15.4487C5.64795 15.0237 4.80636 14.3626 4.20947 13.5728C3.18388 12.2154 2.96047 10.5873 2.96045 9.45361C2.96045 8.29109 3.29764 6.42867 4.3374 4.83643C5.39949 3.21006 7.1913 1.88024 10.0005 1.88037Z" fill="#FF94CF"/>
</svg>
