<svg width="21" height="20" viewBox="0 0 21 20" fill="none" xmlns="http://www.w3.org/2000/svg">
<path d="M9.6849 2.52002L13.4182 3.05335L15.5516 4.12002L17.1516 7.85335V9.98669L16.0849 13.1867L14.4849 14.7867L10.2182 15.32L6.4849 14.2534L4.35156 11.5867V7.85335L6.4849 4.12002L9.6849 2.52002Z" fill="#54B6E8" fill-opacity="0.1"/>
<path d="M6.48438 8.92005C6.48438 7.21338 7.86854 6.59965 8.61771 6.78672C10.2177 7.32002 10.2177 9.98672 8.61771 10.5201C7.9066 10.6978 6.48438 10.6267 6.48438 8.92005Z" fill="#54B6E8"/>
<path d="M15.0234 8.95228C15.0234 7.24561 13.6393 6.63188 12.8901 6.81894C11.2901 7.35225 11.2901 10.0189 12.8901 10.5523C13.6012 10.7301 15.0234 10.6589 15.0234 8.95228Z" fill="#54B6E8"/>
<path d="M2.75 9.45312H4.35" stroke="#54B6E8" stroke-width="1.28" stroke-linecap="round"/>
<path d="M17.1484 9.45312H18.7484" stroke="#54B6E8" stroke-width="1.28" stroke-linecap="round"/>
<path d="M10.749 11.0532C12.8109 11.0533 14.4824 12.7248 14.4824 14.7866C14.4824 16.8484 12.8108 18.52 10.749 18.52C8.68718 18.52 7.01566 16.8485 7.01562 14.7866C7.01562 12.7248 8.68716 11.0532 10.749 11.0532ZM10.8135 16.0171C10.3831 16.0171 10.0334 16.3661 10.0332 16.7964C10.0332 17.2269 10.383 17.5767 10.8135 17.5767C11.2438 17.5764 11.5928 17.2267 11.5928 16.7964C11.5926 16.3662 11.2436 16.0173 10.8135 16.0171ZM9.80078 15.4331C9.58553 15.0603 9.10817 14.9317 8.73535 15.147C8.36257 15.3622 8.23496 15.8396 8.4502 16.2124C8.6654 16.585 9.14192 16.7125 9.51465 16.4976C9.88732 16.2824 10.0157 15.8059 9.80078 15.4331ZM12.8906 15.147C12.5178 14.9317 12.0404 15.0603 11.8252 15.4331C11.6103 15.8059 11.7387 16.2824 12.1113 16.4976C12.484 16.7125 12.9606 16.585 13.1758 16.2124C13.391 15.8396 13.2634 15.3622 12.8906 15.147ZM9.51465 13.1987C9.14188 12.9837 8.66538 13.1112 8.4502 13.4839C8.23503 13.8566 8.36284 14.333 8.73535 14.5483C9.10817 14.7636 9.58553 14.636 9.80078 14.2632C10.0158 13.8904 9.88736 13.4139 9.51465 13.1987ZM13.1758 13.4839C12.9606 13.1112 12.4841 12.9837 12.1113 13.1987C11.7386 13.4139 11.6103 13.8904 11.8252 14.2632C12.0404 14.636 12.5178 14.7636 12.8906 14.5483C13.2632 14.333 13.391 13.8566 13.1758 13.4839ZM10.8135 12.1196C10.3831 12.1196 10.0334 12.4686 10.0332 12.8989C10.0332 13.3294 10.383 13.6792 10.8135 13.6792C11.2438 13.679 11.5928 13.3293 11.5928 12.8989C11.5925 12.4688 11.2436 12.1199 10.8135 12.1196Z" fill="#54B6E8"/>
<path d="M10.751 1.88037C13.6301 1.88064 15.4322 3.09781 16.4854 4.70264C17.5117 6.26667 17.791 8.1386 17.791 9.45361C17.791 10.5872 17.5666 12.2154 16.541 13.5728C15.9441 14.3626 15.1025 15.0237 13.9502 15.4487V14.0601C14.6559 13.7221 15.1588 13.2778 15.5195 12.8003C16.307 11.758 16.5107 10.4532 16.5107 9.45361C16.5107 8.27991 16.256 6.68502 15.416 5.40479C14.6027 4.1654 13.2047 3.15993 10.751 3.15967C8.42255 3.15956 7.01364 4.2297 6.16016 5.53662C5.28436 6.87777 4.99023 8.4828 4.99023 9.45361C4.99026 10.4532 5.19397 11.758 5.98145 12.8003C6.3422 13.2777 6.84505 13.7221 7.55078 14.0601V15.4487C6.39844 15.0237 5.55685 14.3626 4.95996 13.5728C3.93437 12.2154 3.71096 10.5873 3.71094 9.45361C3.71094 8.29109 4.04813 6.42867 5.08789 4.83643C6.14998 3.21006 7.94179 1.88024 10.751 1.88037Z" fill="#54B6E8"/>
</svg>
