<svg width="20" height="20" viewBox="0 0 20 20" fill="none" xmlns="http://www.w3.org/2000/svg">
<path d="M8.92098 2.31982L12.6543 2.85316L14.7876 3.91982L16.3876 7.65316V9.78649L15.321 12.9865L13.721 14.5865L9.45431 15.1198L5.72098 14.0532L3.58765 11.3865V7.65316L5.72098 3.91982L8.92098 2.31982Z" fill="white" fill-opacity="0.1"/>
<path d="M5.72095 8.71986C5.72095 7.01319 7.10511 6.39945 7.85428 6.58652C9.45428 7.11982 9.45428 9.78652 7.85428 10.3199C7.14317 10.4976 5.72095 10.4265 5.72095 8.71986Z" fill="white"/>
<path d="M14.2595 8.75208C14.2595 7.04542 12.8754 6.43168 12.1262 6.61875C10.5262 7.15205 10.5262 9.81875 12.1262 10.3521C12.8373 10.5299 14.2595 10.4587 14.2595 8.75208Z" fill="white"/>
<path d="M1.98767 9.25317H3.58767" stroke="white" stroke-width="1.28" stroke-linecap="round"/>
<path d="M16.3877 9.25317H17.9877" stroke="white" stroke-width="1.28" stroke-linecap="round"/>
<path d="M9.98779 10.8531C12.0496 10.8532 13.7212 12.5247 13.7212 14.5865C13.7212 16.6484 12.0496 18.3199 9.98779 18.3199C7.92595 18.3199 6.25443 16.6484 6.25439 14.5865C6.25439 12.5247 7.92593 10.8531 9.98779 10.8531ZM10.0522 15.817C9.62188 15.817 9.27218 16.166 9.27197 16.5963C9.27197 17.0268 9.62175 17.3766 10.0522 17.3766C10.4825 17.3763 10.8315 17.0267 10.8315 16.5963C10.8313 16.1661 10.4824 15.8173 10.0522 15.817ZM9.03955 15.233C8.8243 14.8602 8.34694 14.7317 7.97412 14.9469C7.60134 15.1622 7.47373 15.6395 7.68896 16.0123C7.90417 16.3849 8.38069 16.5124 8.75342 16.2975C9.12608 16.0823 9.25442 15.6058 9.03955 15.233ZM12.1294 14.9469C11.7566 14.7317 11.2792 14.8602 11.064 15.233C10.8491 15.6058 10.9774 16.0823 11.3501 16.2975C11.7228 16.5124 12.1993 16.3849 12.4146 16.0123C12.6298 15.6395 12.5022 15.1621 12.1294 14.9469ZM8.75342 12.9987C8.38064 12.7837 7.90415 12.9111 7.68896 13.2838C7.4738 13.6565 7.60161 14.1329 7.97412 14.3483C8.34694 14.5635 8.8243 14.4359 9.03955 14.0631C9.25452 13.6903 9.12613 13.2138 8.75342 12.9987ZM12.4146 13.2838C12.1993 12.9111 11.7229 12.7836 11.3501 12.9987C10.9774 13.2138 10.849 13.6903 11.064 14.0631C11.2792 14.4359 11.7566 14.5635 12.1294 14.3483C12.5019 14.1329 12.6297 13.6565 12.4146 13.2838ZM10.0522 11.9196C9.62189 11.9196 9.2722 12.2685 9.27197 12.6989C9.27197 13.1294 9.62175 13.4791 10.0522 13.4791C10.4825 13.4789 10.8315 13.1292 10.8315 12.6989C10.8313 12.2687 10.4824 11.9198 10.0522 11.9196Z" fill="white"/>
<path d="M9.98816 1.68018C12.8672 1.68044 14.6693 2.89761 15.7225 4.50244C16.7489 6.06648 17.0282 7.9384 17.0282 9.25342C17.0282 10.3871 16.8038 12.0152 15.7782 13.3726C15.1813 14.1624 14.3397 14.8235 13.1874 15.2485V13.8599C13.893 13.5219 14.3959 13.0776 14.7567 12.6001C15.5442 11.5578 15.7479 10.253 15.7479 9.25342C15.7479 8.07972 15.4932 6.48483 14.6532 5.20459C13.8398 3.96521 12.4419 2.95973 9.98816 2.95947C7.65973 2.95936 6.25083 4.0295 5.39734 5.33643C4.52154 6.67758 4.22742 8.28261 4.22742 9.25342C4.22744 10.253 4.43115 11.5578 5.21863 12.6001C5.57938 13.0775 6.08223 13.5219 6.78796 13.8599V15.2485C5.63562 14.8235 4.79403 14.1624 4.19714 13.3726C3.17155 12.0152 2.94814 10.3871 2.94812 9.25342C2.94812 8.09089 3.28531 6.22847 4.32507 4.63623C5.38717 3.00986 7.17897 1.68004 9.98816 1.68018Z" fill="white"/>
</svg>
