<svg width="16" height="16" viewBox="0 0 16 16" fill="none" xmlns="http://www.w3.org/2000/svg">
<path d="M12.3642 4.95106L13.8187 4.36365V12.2518L9.93995 13.8182L6.06116 12.2518L2.18237 13.8182V5.93008L3.63692 5.34267" stroke="#111111" stroke-width="0.909091" stroke-linejoin="round"/>
<path d="M10.3455 10.1819C10.3455 9.93085 10.142 9.72734 9.89099 9.72734C9.63995 9.72734 9.43645 9.93085 9.43645 10.1819L9.89099 10.1819L10.3455 10.1819ZM9.89099 13.8182L10.3455 13.8182L10.3455 10.1819L9.89099 10.1819L9.43645 10.1819L9.43645 13.8182L9.89099 13.8182Z" fill="#111111"/>
<path d="M6.41817 9.45459C6.41817 9.20355 6.21466 9.00004 5.96362 9.00004C5.71258 9.00004 5.50908 9.20355 5.50908 9.45459L5.96362 9.45459L6.41817 9.45459ZM5.96362 12.3637L6.41817 12.3637L6.41817 9.45459L5.96362 9.45459L5.50908 9.45459L5.50908 12.3637L5.96362 12.3637Z" fill="#111111"/>
<path d="M7.88879 1.2019C8.45604 1.18174 9.01837 1.31588 9.51672 1.5896C10.0151 1.86339 10.4318 2.26689 10.7218 2.75854C11.0117 3.25018 11.1644 3.8117 11.1642 4.38354C11.1639 4.98879 10.992 5.58145 10.6691 6.09155C10.0577 6.98295 9.48728 7.62347 8.93469 8.33765C8.59489 8.77683 8.27581 9.22663 8.00012 9.74194C7.72804 9.23224 7.41703 8.78927 7.08508 8.36108C6.54213 7.66072 5.99169 7.05118 5.40247 6.198C5.07823 5.72851 4.88537 5.17962 4.84485 4.60913C4.80435 4.03864 4.9183 3.46795 5.17297 2.95679C5.42769 2.44561 5.8141 2.01244 6.29211 1.70386C6.77001 1.39539 7.3216 1.22211 7.88879 1.2019Z" stroke="#111111" stroke-width="0.945455" stroke-linejoin="round"/>
<circle cx="8.0002" cy="4.36373" r="0.935065" stroke="#111111" stroke-width="1.03896"/>
</svg>
