<svg width="20" height="20" viewBox="0 0 20 20" fill="none" xmlns="http://www.w3.org/2000/svg">
<path d="M16.4979 9.25987C16.4985 8.09251 16.1848 6.94653 15.5896 5.9423C14.9943 4.93808 14.1397 4.11268 13.1153 3.55281C12.091 2.99294 10.9348 2.71927 9.76816 2.76053C8.60152 2.8018 7.46754 3.15648 6.48531 3.78733C5.50309 4.41817 4.70888 5.30189 4.18611 6.34566C3.66335 7.38943 3.43132 8.55471 3.51441 9.71911C3.5975 10.8835 3.99264 12.004 4.65831 12.963C6.06141 14.9843 9.27373 17.7332 9.99792 18.0779C10.7221 17.7332 14.102 14.8921 15.4652 12.7719C16.1388 11.7244 16.4973 10.5053 16.4979 9.25987Z" fill="#907AFF"/>
<path d="M9.77917 3.06506C10.8909 3.02578 11.9925 3.28743 12.9686 3.82092C13.9449 4.3545 14.7598 5.1412 15.327 6.09827C15.8941 7.05518 16.1928 8.14706 16.1923 9.2594C16.1916 10.4464 15.8508 11.6087 15.2089 12.6071C14.5489 13.6335 13.386 14.852 12.285 15.8658C11.7371 16.3704 11.2097 16.819 10.7762 17.1617C10.4379 17.4293 10.1702 17.6206 9.99792 17.7272C9.82939 17.6226 9.57065 17.4372 9.245 17.1783C8.82665 16.8458 8.31871 16.4116 7.78894 15.9244C6.72518 14.9463 5.59122 13.7714 4.90906 12.7887C4.27481 11.8749 3.89847 10.8073 3.81921 9.69788C3.74003 8.58815 3.96064 7.47681 4.45886 6.48206C4.95705 5.48743 5.7143 4.64574 6.65027 4.04456C7.58637 3.44333 8.66732 3.10439 9.77917 3.06506Z" stroke="white" stroke-opacity="0.3" stroke-width="0.610415" stroke-linejoin="round"/>
</svg>
