<svg width="28" height="28" viewBox="0 0 28 28" fill="none" xmlns="http://www.w3.org/2000/svg">
<path d="M23.7998 12.8389C23.8007 11.0789 23.3277 9.35113 22.4303 7.83707C21.5329 6.32301 20.2443 5.07857 18.6999 4.23445C17.1555 3.39034 15.4123 2.97772 13.6534 3.03994C11.8945 3.10216 10.1848 3.63691 8.70389 4.58803C7.22299 5.53915 6.02557 6.87153 5.2374 8.44521C4.44924 10.0189 4.09942 11.7758 4.22469 13.5313C4.34996 15.2869 4.9457 16.9763 5.94933 18.4221C8.06478 21.4696 12.908 25.6142 13.9998 26.1338C15.0916 25.6142 20.1875 21.3306 22.2428 18.1341C23.2584 16.5546 23.7988 14.7167 23.7998 12.8389Z" fill="#907AFF"/>
</svg>
