<svg width="16" height="16" viewBox="0 0 16 16" fill="none" xmlns="http://www.w3.org/2000/svg">
<path d="M7.16394 1.53894C10.2706 1.53894 12.7897 4.0573 12.7899 7.16394L12.7821 7.45398C12.7208 8.66199 12.2778 9.76894 11.5721 10.6581L14.0507 13.1376C14.3022 13.3899 14.3026 13.7987 14.0507 14.0507C13.7987 14.3027 13.3899 14.3022 13.1376 14.0507L10.6581 11.5721C9.69828 12.3341 8.48454 12.7899 7.16394 12.7899L6.87488 12.7821C3.90259 12.6315 1.53894 10.1737 1.53894 7.16394C1.53914 4.05743 4.05743 1.53914 7.16394 1.53894ZM7.16394 2.64636C4.66893 2.64657 2.64657 4.66893 2.64636 7.16394C2.64636 9.65913 4.6688 11.6823 7.16394 11.6825C9.65925 11.6825 11.6825 9.65925 11.6825 7.16394C11.6823 4.6688 9.65913 2.64636 7.16394 2.64636Z" fill="white"/>
</svg>
