<svg width="16" height="16" viewBox="0 0 16 16" fill="none" xmlns="http://www.w3.org/2000/svg">
<path d="M7.09668 1C10.4638 1 13.1933 3.72957 13.1934 7.09668C13.1934 8.49188 12.723 9.77628 11.9346 10.8037L14.6309 13.499C14.9429 13.8115 14.9432 14.3186 14.6309 14.6309C14.3186 14.9432 13.8115 14.9429 13.499 14.6309L10.8037 11.9346C9.77628 12.723 8.49188 13.1934 7.09668 13.1934C3.72957 13.1933 1 10.4638 1 7.09668C1.00005 3.7296 3.7296 1.00005 7.09668 1ZM7.09668 2.59961C4.61325 2.59966 2.59966 4.61325 2.59961 7.09668C2.59961 9.58015 4.61322 11.5937 7.09668 11.5938C9.58018 11.5938 11.5938 9.58018 11.5938 7.09668C11.5937 4.61322 9.58015 2.59961 7.09668 2.59961Z" fill="#1F8DD5"/>
</svg>
